STARTFONT 2.1
COMMENT
COMMENT Converted from OpenType font "UbuntuMono-Italic.ttf" by "otf2bdf 3.0".
COMMENT
FONT -FreeType-Ubuntu Mono-Medium-I-Normal--14-100-100-100-P-67-ISO10646-1
SIZE 10 100 100
FONTBOUNDINGBOX 12 14 -3 -2
STARTPROPERTIES 19
FOUNDRY "FreeType"
FAMILY_NAME "Ubuntu Mono"
WEIGHT_NAME "Medium"
SLANT "I"
SETWIDTH_NAME "Normal"
ADD_STYLE_NAME ""
PIXEL_SIZE 14
POINT_SIZE 100
RESOLUTION_X 100
RESOLUTION_Y 100
SPACING "P"
AVERAGE_WIDTH 67
CHARSET_REGISTRY "ISO10646"
CHARSET_ENCODING "1"
FONT_ASCENT 11
FONT_DESCENT 2
COPYRIGHT "Copyright 2011 Canonical Ltd.  Licensed under the Ubuntu Font Licence 1.0"
_OTF_FONTFILE "UbuntuMono-Italic.ttf"
_OTF_PSNAME "UbuntuMono-Italic"
ENDPROPERTIES
CHARS 1224
STARTCHAR 0000
ENCODING 0
SWIDTH 432 0
DWIDTH 6 0
BBX 0 0 0 0
BITMAP
ENDCHAR
STARTCHAR 0008
ENCODING 8
SWIDTH 432 0
DWIDTH 6 0
BBX 0 0 0 0
BITMAP
ENDCHAR
STARTCHAR 0009
ENCODING 9
SWIDTH 432 0
DWIDTH 6 0
BBX 0 0 0 0
BITMAP
ENDCHAR
STARTCHAR 000D
ENCODING 13
SWIDTH 432 0
DWIDTH 6 0
BBX 0 0 0 0
BITMAP
ENDCHAR
STARTCHAR 001D
ENCODING 29
SWIDTH 432 0
DWIDTH 6 0
BBX 0 0 0 0
BITMAP
ENDCHAR
STARTCHAR 0020
ENCODING 32
SWIDTH 432 0
DWIDTH 6 0
BBX 0 0 0 0
BITMAP
ENDCHAR
STARTCHAR 0021
ENCODING 33
SWIDTH 432 0
DWIDTH 6 0
BBX 4 9 2 0
BITMAP
30
20
20
20
20
40
00
40
C0
ENDCHAR
STARTCHAR 0022
ENCODING 34
SWIDTH 432 0
DWIDTH 6 0
BBX 4 3 3 6
BITMAP
D0
A0
A0
ENDCHAR
STARTCHAR 0023
ENCODING 35
SWIDTH 432 0
DWIDTH 6 0
BBX 7 9 1 0
BITMAP
12
14
24
FE
68
48
FC
90
A0
ENDCHAR
STARTCHAR 0024
ENCODING 36
SWIDTH 432 0
DWIDTH 6 0
BBX 6 11 1 -1
BITMAP
08
08
3C
60
60
30
08
08
88
70
20
ENDCHAR
STARTCHAR 0025
ENCODING 37
SWIDTH 432 0
DWIDTH 6 0
BBX 8 9 0 0
BITMAP
31
2A
52
54
28
16
2A
4A
8C
ENDCHAR
STARTCHAR 0026
ENCODING 38
SWIDTH 432 0
DWIDTH 6 0
BBX 6 9 1 0
BITMAP
18
28
48
78
24
D8
98
98
E8
ENDCHAR
STARTCHAR 0027
ENCODING 39
SWIDTH 432 0
DWIDTH 6 0
BBX 2 3 4 6
BITMAP
40
80
80
ENDCHAR
STARTCHAR 0028
ENCODING 40
SWIDTH 432 0
DWIDTH 6 0
BBX 5 12 2 -2
BITMAP
08
18
30
60
40
C0
80
80
80
80
40
60
ENDCHAR
STARTCHAR 0029
ENCODING 41
SWIDTH 432 0
DWIDTH 6 0
BBX 5 11 1 -1
BITMAP
10
18
08
08
08
08
10
10
20
60
80
ENDCHAR
STARTCHAR 002A
ENCODING 42
SWIDTH 432 0
DWIDTH 6 0
BBX 5 5 2 3
BITMAP
20
20
F8
20
50
ENDCHAR
STARTCHAR 002B
ENCODING 43
SWIDTH 432 0
DWIDTH 6 0
BBX 6 6 1 1
BITMAP
10
10
10
FC
20
20
ENDCHAR
STARTCHAR 002C
ENCODING 44
SWIDTH 432 0
DWIDTH 6 0
BBX 2 4 2 -2
BITMAP
40
C0
40
80
ENDCHAR
STARTCHAR 002D
ENCODING 45
SWIDTH 432 0
DWIDTH 6 0
BBX 3 1 3 3
BITMAP
E0
ENDCHAR
STARTCHAR 002E
ENCODING 46
SWIDTH 432 0
DWIDTH 6 0
BBX 2 2 2 0
BITMAP
40
C0
ENDCHAR
STARTCHAR 002F
ENCODING 47
SWIDTH 432 0
DWIDTH 6 0
BBX 8 12 0 -2
BITMAP
03
02
04
04
08
08
10
30
20
60
40
80
ENDCHAR
STARTCHAR 0030
ENCODING 48
SWIDTH 432 0
DWIDTH 6 0
BBX 6 9 1 0
BITMAP
18
24
44
44
F4
84
88
88
70
ENDCHAR
STARTCHAR 0031
ENCODING 49
SWIDTH 432 0
DWIDTH 6 0
BBX 5 9 1 0
BITMAP
08
18
28
18
10
10
10
10
F8
ENDCHAR
STARTCHAR 0032
ENCODING 50
SWIDTH 432 0
DWIDTH 6 0
BBX 6 9 1 0
BITMAP
18
24
04
04
08
30
60
C0
F8
ENDCHAR
STARTCHAR 0033
ENCODING 51
SWIDTH 432 0
DWIDTH 6 0
BBX 6 9 1 0
BITMAP
38
04
04
0C
38
08
0C
08
F8
ENDCHAR
STARTCHAR 0034
ENCODING 52
SWIDTH 432 0
DWIDTH 6 0
BBX 6 9 1 0
BITMAP
04
0C
1C
28
48
88
FC
10
10
ENDCHAR
STARTCHAR 0035
ENCODING 53
SWIDTH 432 0
DWIDTH 6 0
BBX 7 9 1 0
BITMAP
1E
20
20
20
78
08
08
08
F0
ENDCHAR
STARTCHAR 0036
ENCODING 54
SWIDTH 432 0
DWIDTH 6 0
BBX 7 9 1 0
BITMAP
06
18
20
40
7C
C4
84
C8
78
ENDCHAR
STARTCHAR 0037
ENCODING 55
SWIDTH 432 0
DWIDTH 6 0
BBX 6 9 2 0
BITMAP
7C
04
08
10
20
60
40
C0
80
ENDCHAR
STARTCHAR 0038
ENCODING 56
SWIDTH 432 0
DWIDTH 6 0
BBX 6 9 1 0
BITMAP
1C
24
44
64
38
48
84
88
78
ENDCHAR
STARTCHAR 0039
ENCODING 57
SWIDTH 432 0
DWIDTH 6 0
BBX 6 9 1 0
BITMAP
18
24
44
44
44
3C
08
18
E0
ENDCHAR
STARTCHAR 003A
ENCODING 58
SWIDTH 432 0
DWIDTH 6 0
BBX 4 6 2 0
BITMAP
30
20
00
00
40
C0
ENDCHAR
STARTCHAR 003B
ENCODING 59
SWIDTH 432 0
DWIDTH 6 0
BBX 4 8 2 -2
BITMAP
30
20
00
00
40
C0
40
80
ENDCHAR
STARTCHAR 003C
ENCODING 60
SWIDTH 432 0
DWIDTH 6 0
BBX 6 5 1 1
BITMAP
0C
30
C0
70
18
ENDCHAR
STARTCHAR 003D
ENCODING 61
SWIDTH 432 0
DWIDTH 6 0
BBX 6 3 1 2
BITMAP
7C
00
FC
ENDCHAR
STARTCHAR 003E
ENCODING 62
SWIDTH 432 0
DWIDTH 6 0
BBX 6 5 1 1
BITMAP
60
18
0C
30
C0
ENDCHAR
STARTCHAR 003F
ENCODING 63
SWIDTH 432 0
DWIDTH 6 0
BBX 5 9 2 0
BITMAP
30
08
08
10
20
40
00
40
C0
ENDCHAR
STARTCHAR 0040
ENCODING 64
SWIDTH 432 0
DWIDTH 6 0
BBX 7 11 1 -2
BITMAP
1C
26
42
5E
B4
A4
A4
BC
80
40
30
ENDCHAR
STARTCHAR 0041
ENCODING 65
SWIDTH 432 0
DWIDTH 6 0
BBX 6 9 0 0
BITMAP
0C
0C
14
14
24
24
7C
44
84
ENDCHAR
STARTCHAR 0042
ENCODING 66
SWIDTH 432 0
DWIDTH 6 0
BBX 6 9 1 0
BITMAP
38
64
44
44
78
CC
84
88
F0
ENDCHAR
STARTCHAR 0043
ENCODING 67
SWIDTH 432 0
DWIDTH 6 0
BBX 7 9 1 0
BITMAP
1C
32
40
40
C0
80
80
C0
78
ENDCHAR
STARTCHAR 0044
ENCODING 68
SWIDTH 432 0
DWIDTH 6 0
BBX 6 9 1 0
BITMAP
30
4C
44
44
44
84
8C
98
F0
ENDCHAR
STARTCHAR 0045
ENCODING 69
SWIDTH 432 0
DWIDTH 6 0
BBX 7 9 1 0
BITMAP
3E
20
20
40
78
40
40
C0
F8
ENDCHAR
STARTCHAR 0046
ENCODING 70
SWIDTH 432 0
DWIDTH 6 0
BBX 7 9 1 0
BITMAP
3E
20
20
40
7C
40
40
80
80
ENDCHAR
STARTCHAR 0047
ENCODING 71
SWIDTH 432 0
DWIDTH 6 0
BBX 6 9 1 0
BITMAP
1C
20
40
40
80
84
8C
C8
78
ENDCHAR
STARTCHAR 0048
ENCODING 72
SWIDTH 432 0
DWIDTH 6 0
BBX 7 9 1 0
BITMAP
22
42
46
44
7C
84
8C
88
88
ENDCHAR
STARTCHAR 0049
ENCODING 73
SWIDTH 432 0
DWIDTH 6 0
BBX 6 9 1 0
BITMAP
3C
18
10
10
10
30
20
20
F8
ENDCHAR
STARTCHAR 004A
ENCODING 74
SWIDTH 432 0
DWIDTH 6 0
BBX 7 9 1 0
BITMAP
1E
04
04
04
04
08
08
08
F0
ENDCHAR
STARTCHAR 004B
ENCODING 75
SWIDTH 432 0
DWIDTH 6 0
BBX 7 9 1 0
BITMAP
22
64
48
50
60
F0
90
88
88
ENDCHAR
STARTCHAR 004C
ENCODING 76
SWIDTH 432 0
DWIDTH 6 0
BBX 5 9 1 0
BITMAP
20
20
40
40
40
40
80
80
F8
ENDCHAR
STARTCHAR 004D
ENCODING 77
SWIDTH 432 0
DWIDTH 6 0
BBX 8 9 0 0
BITMAP
11
13
36
36
3A
4A
42
42
84
ENDCHAR
STARTCHAR 004E
ENCODING 78
SWIDTH 432 0
DWIDTH 6 0
BBX 7 9 1 0
BITMAP
22
62
62
54
54
94
94
88
88
ENDCHAR
STARTCHAR 004F
ENCODING 79
SWIDTH 432 0
DWIDTH 6 0
BBX 6 9 1 0
BITMAP
18
24
44
44
84
84
84
88
70
ENDCHAR
STARTCHAR 0050
ENCODING 80
SWIDTH 432 0
DWIDTH 6 0
BBX 7 9 1 0
BITMAP
38
24
46
44
4C
70
80
80
80
ENDCHAR
STARTCHAR 0051
ENCODING 81
SWIDTH 432 0
DWIDTH 6 0
BBX 6 11 1 -2
BITMAP
18
24
44
44
84
84
84
88
70
20
38
ENDCHAR
STARTCHAR 0052
ENCODING 82
SWIDTH 432 0
DWIDTH 6 0
BBX 6 9 1 0
BITMAP
38
64
44
44
4C
F0
98
88
88
ENDCHAR
STARTCHAR 0053
ENCODING 83
SWIDTH 432 0
DWIDTH 6 0
BBX 6 9 1 0
BITMAP
1C
20
40
60
30
08
08
08
F8
ENDCHAR
STARTCHAR 0054
ENCODING 84
SWIDTH 432 0
DWIDTH 6 0
BBX 6 9 2 0
BITMAP
FC
30
20
20
20
60
40
40
40
ENDCHAR
STARTCHAR 0055
ENCODING 85
SWIDTH 432 0
DWIDTH 6 0
BBX 7 9 1 0
BITMAP
22
42
44
44
44
84
8C
88
70
ENDCHAR
STARTCHAR 0056
ENCODING 86
SWIDTH 432 0
DWIDTH 6 0
BBX 6 9 2 0
BITMAP
84
84
88
88
90
90
A0
A0
C0
ENDCHAR
STARTCHAR 0057
ENCODING 87
SWIDTH 432 0
DWIDTH 6 0
BBX 7 9 1 0
BITMAP
42
42
42
44
94
B4
D8
D8
88
ENDCHAR
STARTCHAR 0058
ENCODING 88
SWIDTH 432 0
DWIDTH 6 0
BBX 7 9 1 0
BITMAP
62
26
24
18
10
38
68
C8
88
ENDCHAR
STARTCHAR 0059
ENCODING 89
SWIDTH 432 0
DWIDTH 6 0
BBX 7 9 2 0
BITMAP
86
84
C8
50
50
60
40
40
40
ENDCHAR
STARTCHAR 005A
ENCODING 90
SWIDTH 432 0
DWIDTH 6 0
BBX 7 9 1 0
BITMAP
3E
06
0C
18
10
20
40
80
F8
ENDCHAR
STARTCHAR 005B
ENCODING 91
SWIDTH 432 0
DWIDTH 6 0
BBX 6 12 2 -2
BITMAP
3C
20
20
60
40
40
40
40
80
80
80
E0
ENDCHAR
STARTCHAR 005C
ENCODING 92
SWIDTH 432 0
DWIDTH 6 0
BBX 2 12 3 -2
BITMAP
80
80
80
80
C0
C0
40
40
40
40
40
40
ENDCHAR
STARTCHAR 005D
ENCODING 93
SWIDTH 432 0
DWIDTH 6 0
BBX 6 12 1 -2
BITMAP
3C
08
08
08
18
10
10
10
10
20
20
E0
ENDCHAR
STARTCHAR 005E
ENCODING 94
SWIDTH 432 0
DWIDTH 6 0
BBX 5 5 2 4
BITMAP
10
30
50
C8
88
ENDCHAR
STARTCHAR 005F
ENCODING 95
SWIDTH 432 0
DWIDTH 6 0
BBX 6 1 0 -2
BITMAP
FC
ENDCHAR
STARTCHAR 0060
ENCODING 96
SWIDTH 432 0
DWIDTH 6 0
BBX 2 3 4 7
BITMAP
80
80
40
ENDCHAR
STARTCHAR 0061
ENCODING 97
SWIDTH 432 0
DWIDTH 6 0
BBX 6 7 1 0
BITMAP
08
74
44
88
88
88
F8
ENDCHAR
STARTCHAR 0062
ENCODING 98
SWIDTH 432 0
DWIDTH 6 0
BBX 6 10 1 0
BITMAP
20
20
20
78
6C
44
44
CC
88
F0
ENDCHAR
STARTCHAR 0063
ENCODING 99
SWIDTH 432 0
DWIDTH 6 0
BBX 6 7 1 0
BITMAP
18
64
40
80
80
80
78
ENDCHAR
STARTCHAR 0064
ENCODING 100
SWIDTH 432 0
DWIDTH 6 0
BBX 7 10 1 0
BITMAP
02
02
06
0C
34
44
8C
88
88
78
ENDCHAR
STARTCHAR 0065
ENCODING 101
SWIDTH 432 0
DWIDTH 6 0
BBX 6 7 1 0
BITMAP
18
6C
44
98
E0
80
78
ENDCHAR
STARTCHAR 0066
ENCODING 102
SWIDTH 432 0
DWIDTH 6 0
BBX 8 12 0 -2
BITMAP
03
04
08
08
3E
18
10
10
10
10
20
E0
ENDCHAR
STARTCHAR 0067
ENCODING 103
SWIDTH 432 0
DWIDTH 6 0
BBX 7 9 0 -2
BITMAP
06
1A
22
62
44
64
3C
0C
F8
ENDCHAR
STARTCHAR 0068
ENCODING 104
SWIDTH 432 0
DWIDTH 6 0
BBX 6 10 1 0
BITMAP
20
20
60
50
68
4C
C8
88
88
88
ENDCHAR
STARTCHAR 0069
ENCODING 105
SWIDTH 432 0
DWIDTH 6 0
BBX 4 9 2 0
BITMAP
30
20
00
E0
60
40
40
40
70
ENDCHAR
STARTCHAR 006A
ENCODING 106
SWIDTH 432 0
DWIDTH 6 0
BBX 7 11 0 -2
BITMAP
06
00
00
1C
04
04
04
08
08
08
F0
ENDCHAR
STARTCHAR 006B
ENCODING 107
SWIDTH 432 0
DWIDTH 6 0
BBX 6 9 1 1
BITMAP
20
20
60
4C
50
60
D0
98
88
ENDCHAR
STARTCHAR 006C
ENCODING 108
SWIDTH 432 0
DWIDTH 6 0
BBX 3 10 3 0
BITMAP
E0
40
40
40
40
C0
80
80
80
E0
ENDCHAR
STARTCHAR 006D
ENCODING 109
SWIDTH 432 0
DWIDTH 6 0
BBX 6 7 1 0
BITMAP
28
54
54
94
A4
88
88
ENDCHAR
STARTCHAR 006E
ENCODING 110
SWIDTH 432 0
DWIDTH 6 0
BBX 6 7 1 0
BITMAP
10
6C
44
44
C8
88
88
ENDCHAR
STARTCHAR 006F
ENCODING 111
SWIDTH 432 0
DWIDTH 6 0
BBX 6 7 1 0
BITMAP
18
6C
44
84
84
88
70
ENDCHAR
STARTCHAR 0070
ENCODING 112
SWIDTH 432 0
DWIDTH 6 0
BBX 7 9 0 -2
BITMAP
08
36
22
22
66
44
78
40
C0
ENDCHAR
STARTCHAR 0071
ENCODING 113
SWIDTH 432 0
DWIDTH 6 0
BBX 6 9 1 -2
BITMAP
08
34
44
8C
88
88
78
18
10
ENDCHAR
STARTCHAR 0072
ENCODING 114
SWIDTH 432 0
DWIDTH 6 0
BBX 6 7 1 0
BITMAP
1C
24
40
40
40
40
80
ENDCHAR
STARTCHAR 0073
ENCODING 115
SWIDTH 432 0
DWIDTH 6 0
BBX 6 7 1 0
BITMAP
18
24
40
30
08
08
F8
ENDCHAR
STARTCHAR 0074
ENCODING 116
SWIDTH 432 0
DWIDTH 6 0
BBX 5 8 2 0
BITMAP
20
20
F8
40
40
40
C0
70
ENDCHAR
STARTCHAR 0075
ENCODING 117
SWIDTH 432 0
DWIDTH 6 0
BBX 6 6 1 0
BITMAP
44
44
C8
88
88
78
ENDCHAR
STARTCHAR 0076
ENCODING 118
SWIDTH 432 0
DWIDTH 6 0
BBX 5 6 2 0
BITMAP
88
98
90
A0
A0
40
ENDCHAR
STARTCHAR 0077
ENCODING 119
SWIDTH 432 0
DWIDTH 6 0
BBX 7 6 1 0
BITMAP
C2
94
B4
B4
D8
98
ENDCHAR
STARTCHAR 0078
ENCODING 120
SWIDTH 432 0
DWIDTH 6 0
BBX 6 6 1 0
BITMAP
6C
28
30
30
58
88
ENDCHAR
STARTCHAR 0079
ENCODING 121
SWIDTH 432 0
DWIDTH 6 0
BBX 7 8 0 -2
BITMAP
22
22
24
34
18
18
10
E0
ENDCHAR
STARTCHAR 007A
ENCODING 122
SWIDTH 432 0
DWIDTH 6 0
BBX 6 6 1 0
BITMAP
7C
18
30
60
40
F8
ENDCHAR
STARTCHAR 007B
ENCODING 123
SWIDTH 432 0
DWIDTH 6 0
BBX 7 12 1 -2
BITMAP
0E
10
10
10
30
20
C0
20
60
40
40
70
ENDCHAR
STARTCHAR 007C
ENCODING 124
SWIDTH 432 0
DWIDTH 6 0
BBX 4 12 2 -2
BITMAP
10
10
30
20
20
20
20
40
40
40
40
80
ENDCHAR
STARTCHAR 007D
ENCODING 125
SWIDTH 432 0
DWIDTH 6 0
BBX 7 12 0 -2
BITMAP
18
04
04
04
08
08
0E
08
10
10
10
E0
ENDCHAR
STARTCHAR 007E
ENCODING 126
SWIDTH 432 0
DWIDTH 6 0
BBX 6 2 1 3
BITMAP
64
BC
ENDCHAR
STARTCHAR 00A0
ENCODING 160
SWIDTH 432 0
DWIDTH 6 0
BBX 0 0 0 0
BITMAP
ENDCHAR
STARTCHAR 00A1
ENCODING 161
SWIDTH 432 0
DWIDTH 6 0
BBX 3 8 2 -2
BITMAP
20
00
00
40
40
40
C0
80
ENDCHAR
STARTCHAR 00A2
ENCODING 162
SWIDTH 432 0
DWIDTH 6 0
BBX 6 10 1 -1
BITMAP
08
08
1C
60
40
C0
80
48
30
20
ENDCHAR
STARTCHAR 00A3
ENCODING 163
SWIDTH 432 0
DWIDTH 6 0
BBX 7 9 1 0
BITMAP
0E
10
20
20
78
60
40
40
F8
ENDCHAR
STARTCHAR 00A4
ENCODING 164
SWIDTH 432 0
DWIDTH 6 0
BBX 6 6 1 1
BITMAP
F4
48
44
48
7C
04
ENDCHAR
STARTCHAR 00A5
ENCODING 165
SWIDTH 432 0
DWIDTH 6 0
BBX 7 9 1 0
BITMAP
42
46
24
28
30
7C
20
F8
20
ENDCHAR
STARTCHAR 00A6
ENCODING 166
SWIDTH 432 0
DWIDTH 6 0
BBX 4 12 2 -2
BITMAP
10
10
30
20
20
00
00
00
40
40
40
80
ENDCHAR
STARTCHAR 00A7
ENCODING 167
SWIDTH 432 0
DWIDTH 6 0
BBX 6 10 1 -1
BITMAP
1C
20
20
38
4C
4C
68
10
18
F0
ENDCHAR
STARTCHAR 00A8
ENCODING 168
SWIDTH 432 0
DWIDTH 6 0
BBX 4 1 3 8
BITMAP
D0
ENDCHAR
STARTCHAR 00A9
ENCODING 169
SWIDTH 432 0
DWIDTH 6 0
BBX 6 7 1 0
BITMAP
30
48
B4
C4
A4
94
78
ENDCHAR
STARTCHAR 00AA
ENCODING 170
SWIDTH 432 0
DWIDTH 6 0
BBX 5 5 2 4
BITMAP
38
48
90
90
70
ENDCHAR
STARTCHAR 00AB
ENCODING 171
SWIDTH 432 0
DWIDTH 6 0
BBX 6 5 1 1
BITMAP
24
48
D0
50
48
ENDCHAR
STARTCHAR 00AC
ENCODING 172
SWIDTH 432 0
DWIDTH 6 0
BBX 6 4 1 1
BITMAP
FC
04
04
08
ENDCHAR
STARTCHAR 00AD
ENCODING 173
SWIDTH 432 0
DWIDTH 6 0
BBX 3 1 3 3
BITMAP
E0
ENDCHAR
STARTCHAR 00AE
ENCODING 174
SWIDTH 432 0
DWIDTH 6 0
BBX 6 7 1 0
BITMAP
30
48
B4
B4
B4
84
78
ENDCHAR
STARTCHAR 00AF
ENCODING 175
SWIDTH 432 0
DWIDTH 6 0
BBX 4 1 3 8
BITMAP
F0
ENDCHAR
STARTCHAR 00B0
ENCODING 176
SWIDTH 432 0
DWIDTH 6 0
BBX 4 4 3 6
BITMAP
60
A0
90
60
ENDCHAR
STARTCHAR 00B1
ENCODING 177
SWIDTH 432 0
DWIDTH 6 0
BBX 6 8 1 0
BITMAP
08
10
10
7C
10
20
00
F8
ENDCHAR
STARTCHAR 00B2
ENCODING 178
SWIDTH 432 0
DWIDTH 6 0
BBX 3 5 3 4
BITMAP
60
20
20
C0
E0
ENDCHAR
STARTCHAR 00B3
ENCODING 179
SWIDTH 432 0
DWIDTH 6 0
BBX 3 5 3 4
BITMAP
60
20
60
20
E0
ENDCHAR
STARTCHAR 00B4
ENCODING 180
SWIDTH 432 0
DWIDTH 6 0
BBX 3 2 4 8
BITMAP
60
80
ENDCHAR
STARTCHAR 00B5
ENCODING 181
SWIDTH 432 0
DWIDTH 6 0
BBX 7 8 0 -2
BITMAP
22
26
64
44
44
7E
C0
80
ENDCHAR
STARTCHAR 00B6
ENCODING 182
SWIDTH 432 0
DWIDTH 6 0
BBX 7 11 1 -2
BITMAP
1E
72
74
F4
F4
74
28
28
28
28
50
ENDCHAR
STARTCHAR 00B7
ENCODING 183
SWIDTH 432 0
DWIDTH 6 0
BBX 2 2 3 3
BITMAP
40
C0
ENDCHAR
STARTCHAR 00B8
ENCODING 184
SWIDTH 432 0
DWIDTH 6 0
BBX 2 2 2 -2
BITMAP
40
C0
ENDCHAR
STARTCHAR 00B9
ENCODING 185
SWIDTH 432 0
DWIDTH 6 0
BBX 3 5 3 4
BITMAP
20
E0
40
40
E0
ENDCHAR
STARTCHAR 00BA
ENCODING 186
SWIDTH 432 0
DWIDTH 6 0
BBX 4 5 3 4
BITMAP
60
90
90
90
E0
ENDCHAR
STARTCHAR 00BB
ENCODING 187
SWIDTH 432 0
DWIDTH 6 0
BBX 6 5 1 1
BITMAP
48
28
2C
48
90
ENDCHAR
STARTCHAR 00BC
ENCODING 188
SWIDTH 432 0
DWIDTH 6 0
BBX 7 9 1 0
BITMAP
22
64
2C
08
10
20
4C
58
88
ENDCHAR
STARTCHAR 00BD
ENCODING 189
SWIDTH 432 0
DWIDTH 6 0
BBX 7 9 1 0
BITMAP
22
64
28
08
10
28
44
88
9C
ENDCHAR
STARTCHAR 00BE
ENCODING 190
SWIDTH 432 0
DWIDTH 6 0
BBX 7 9 1 0
BITMAP
62
24
2C
E8
10
20
4C
58
88
ENDCHAR
STARTCHAR 00BF
ENCODING 191
SWIDTH 432 0
DWIDTH 6 0
BBX 5 8 1 -2
BITMAP
18
00
00
10
60
C0
80
F0
ENDCHAR
STARTCHAR 00C0
ENCODING 192
SWIDTH 432 0
DWIDTH 6 0
BBX 6 11 0 1
BITMAP
0C
04
0C
0C
14
14
24
24
7C
44
84
ENDCHAR
STARTCHAR 00C1
ENCODING 193
SWIDTH 432 0
DWIDTH 6 0
BBX 7 11 0 1
BITMAP
02
04
0C
0C
14
14
24
24
7C
44
84
ENDCHAR
STARTCHAR 00C2
ENCODING 194
SWIDTH 432 0
DWIDTH 6 0
BBX 7 11 0 0
BITMAP
06
0A
0C
0C
14
14
24
24
7C
44
84
ENDCHAR
STARTCHAR 00C3
ENCODING 195
SWIDTH 432 0
DWIDTH 6 0
BBX 8 11 0 0
BITMAP
0F
00
0C
0C
14
14
24
24
7C
44
84
ENDCHAR
STARTCHAR 00C4
ENCODING 196
SWIDTH 432 0
DWIDTH 6 0
BBX 8 11 0 0
BITMAP
0B
00
0C
0C
14
14
24
24
7C
44
84
ENDCHAR
STARTCHAR 00C5
ENCODING 197
SWIDTH 432 0
DWIDTH 6 0
BBX 6 10 0 0
BITMAP
0C
0C
0C
14
14
24
24
7C
44
84
ENDCHAR
STARTCHAR 00C6
ENCODING 198
SWIDTH 432 0
DWIDTH 6 0
BBX 8 9 0 0
BITMAP
07
0C
0C
14
26
28
78
48
8E
ENDCHAR
STARTCHAR 00C7
ENCODING 199
SWIDTH 432 0
DWIDTH 6 0
BBX 7 11 1 -2
BITMAP
1C
32
40
40
C0
80
80
C0
78
20
60
ENDCHAR
STARTCHAR 00C8
ENCODING 200
SWIDTH 432 0
DWIDTH 6 0
BBX 7 11 1 1
BITMAP
08
04
3E
20
20
40
78
40
40
C0
F8
ENDCHAR
STARTCHAR 00C9
ENCODING 201
SWIDTH 432 0
DWIDTH 6 0
BBX 7 11 1 1
BITMAP
04
08
3E
20
20
40
78
40
40
C0
F8
ENDCHAR
STARTCHAR 00CA
ENCODING 202
SWIDTH 432 0
DWIDTH 6 0
BBX 7 11 1 0
BITMAP
0C
10
3E
20
20
40
78
40
40
C0
F8
ENDCHAR
STARTCHAR 00CB
ENCODING 203
SWIDTH 432 0
DWIDTH 6 0
BBX 7 11 1 0
BITMAP
16
00
3E
20
20
40
78
40
40
C0
F8
ENDCHAR
STARTCHAR 00CC
ENCODING 204
SWIDTH 432 0
DWIDTH 6 0
BBX 6 11 1 1
BITMAP
18
08
3C
18
10
10
10
30
20
20
F8
ENDCHAR
STARTCHAR 00CD
ENCODING 205
SWIDTH 432 0
DWIDTH 6 0
BBX 6 11 1 1
BITMAP
0C
08
3C
18
10
10
10
30
20
20
F8
ENDCHAR
STARTCHAR 00CE
ENCODING 206
SWIDTH 432 0
DWIDTH 6 0
BBX 6 11 1 0
BITMAP
0C
14
3C
18
10
10
10
30
20
20
F8
ENDCHAR
STARTCHAR 00CF
ENCODING 207
SWIDTH 432 0
DWIDTH 6 0
BBX 7 11 1 0
BITMAP
16
00
3C
18
10
10
10
30
20
20
F8
ENDCHAR
STARTCHAR 00D0
ENCODING 208
SWIDTH 432 0
DWIDTH 6 0
BBX 6 9 1 0
BITMAP
38
2C
64
44
E4
44
4C
88
F0
ENDCHAR
STARTCHAR 00D1
ENCODING 209
SWIDTH 432 0
DWIDTH 6 0
BBX 7 11 1 0
BITMAP
1E
00
22
62
62
54
54
94
94
88
88
ENDCHAR
STARTCHAR 00D2
ENCODING 210
SWIDTH 432 0
DWIDTH 6 0
BBX 6 11 1 1
BITMAP
08
04
18
24
44
44
84
84
84
88
70
ENDCHAR
STARTCHAR 00D3
ENCODING 211
SWIDTH 432 0
DWIDTH 6 0
BBX 6 11 1 1
BITMAP
04
08
18
24
44
44
84
84
84
88
70
ENDCHAR
STARTCHAR 00D4
ENCODING 212
SWIDTH 432 0
DWIDTH 6 0
BBX 6 11 1 0
BITMAP
0C
14
18
24
44
44
84
84
84
88
70
ENDCHAR
STARTCHAR 00D5
ENCODING 213
SWIDTH 432 0
DWIDTH 6 0
BBX 7 11 1 0
BITMAP
1E
00
18
24
44
44
84
84
84
88
70
ENDCHAR
STARTCHAR 00D6
ENCODING 214
SWIDTH 432 0
DWIDTH 6 0
BBX 7 11 1 0
BITMAP
16
00
18
24
44
44
84
84
84
88
70
ENDCHAR
STARTCHAR 00D7
ENCODING 215
SWIDTH 432 0
DWIDTH 6 0
BBX 5 5 2 1
BITMAP
88
70
60
B0
10
ENDCHAR
STARTCHAR 00D8
ENCODING 216
SWIDTH 432 0
DWIDTH 6 0
BBX 7 9 1 0
BITMAP
1A
24
4C
4C
94
A4
CC
C8
F0
ENDCHAR
STARTCHAR 00D9
ENCODING 217
SWIDTH 432 0
DWIDTH 6 0
BBX 7 11 1 1
BITMAP
10
08
22
42
44
44
44
84
8C
88
70
ENDCHAR
STARTCHAR 00DA
ENCODING 218
SWIDTH 432 0
DWIDTH 6 0
BBX 7 11 1 1
BITMAP
04
08
22
42
44
44
44
84
8C
88
70
ENDCHAR
STARTCHAR 00DB
ENCODING 219
SWIDTH 432 0
DWIDTH 6 0
BBX 7 11 1 0
BITMAP
0C
14
22
42
44
44
44
84
8C
88
70
ENDCHAR
STARTCHAR 00DC
ENCODING 220
SWIDTH 432 0
DWIDTH 6 0
BBX 7 11 1 0
BITMAP
16
00
22
42
44
44
44
84
8C
88
70
ENDCHAR
STARTCHAR 00DD
ENCODING 221
SWIDTH 432 0
DWIDTH 6 0
BBX 7 11 2 1
BITMAP
08
10
86
84
C8
50
50
60
40
40
40
ENDCHAR
STARTCHAR 00DE
ENCODING 222
SWIDTH 432 0
DWIDTH 6 0
BBX 6 9 1 0
BITMAP
20
20
7C
44
44
4C
F8
80
80
ENDCHAR
STARTCHAR 00DF
ENCODING 223
SWIDTH 432 0
DWIDTH 6 0
BBX 8 12 -1 -2
BITMAP
06
0D
09
1B
14
14
16
11
31
2E
20
E0
ENDCHAR
STARTCHAR 00E0
ENCODING 224
SWIDTH 432 0
DWIDTH 6 0
BBX 6 9 1 1
BITMAP
18
08
08
74
44
88
88
88
F8
ENDCHAR
STARTCHAR 00E1
ENCODING 225
SWIDTH 432 0
DWIDTH 6 0
BBX 6 10 1 0
BITMAP
04
0C
08
08
74
44
88
88
88
F8
ENDCHAR
STARTCHAR 00E2
ENCODING 226
SWIDTH 432 0
DWIDTH 6 0
BBX 6 9 1 1
BITMAP
18
04
08
74
44
88
88
88
F8
ENDCHAR
STARTCHAR 00E3
ENCODING 227
SWIDTH 432 0
DWIDTH 6 0
BBX 6 9 1 0
BITMAP
1C
00
08
74
44
88
88
88
F8
ENDCHAR
STARTCHAR 00E4
ENCODING 228
SWIDTH 432 0
DWIDTH 6 0
BBX 7 9 1 0
BITMAP
16
00
08
74
44
88
88
88
F8
ENDCHAR
STARTCHAR 00E5
ENCODING 229
SWIDTH 432 0
DWIDTH 6 0
BBX 6 10 1 0
BITMAP
08
14
08
08
74
44
88
88
88
F8
ENDCHAR
STARTCHAR 00E6
ENCODING 230
SWIDTH 432 0
DWIDTH 6 0
BBX 7 7 1 0
BITMAP
64
3E
14
7C
B0
B0
D8
ENDCHAR
STARTCHAR 00E7
ENCODING 231
SWIDTH 432 0
DWIDTH 6 0
BBX 6 9 1 -2
BITMAP
18
64
40
80
80
80
78
20
60
ENDCHAR
STARTCHAR 00E8
ENCODING 232
SWIDTH 432 0
DWIDTH 6 0
BBX 6 9 1 1
BITMAP
18
08
18
6C
44
98
E0
80
78
ENDCHAR
STARTCHAR 00E9
ENCODING 233
SWIDTH 432 0
DWIDTH 6 0
BBX 6 9 1 1
BITMAP
0C
10
18
6C
44
98
E0
80
78
ENDCHAR
STARTCHAR 00EA
ENCODING 234
SWIDTH 432 0
DWIDTH 6 0
BBX 6 10 1 0
BITMAP
08
18
04
18
6C
44
98
E0
80
78
ENDCHAR
STARTCHAR 00EB
ENCODING 235
SWIDTH 432 0
DWIDTH 6 0
BBX 6 9 1 0
BITMAP
14
00
18
6C
44
98
E0
80
78
ENDCHAR
STARTCHAR 00EC
ENCODING 236
SWIDTH 432 0
DWIDTH 6 0
BBX 4 9 2 1
BITMAP
20
00
00
E0
60
40
40
40
70
ENDCHAR
STARTCHAR 00ED
ENCODING 237
SWIDTH 432 0
DWIDTH 6 0
BBX 4 9 2 1
BITMAP
10
20
00
E0
60
40
40
40
70
ENDCHAR
STARTCHAR 00EE
ENCODING 238
SWIDTH 432 0
DWIDTH 6 0
BBX 4 9 2 1
BITMAP
30
50
00
E0
60
40
40
40
70
ENDCHAR
STARTCHAR 00EF
ENCODING 239
SWIDTH 432 0
DWIDTH 6 0
BBX 5 9 2 0
BITMAP
58
00
00
E0
60
40
40
40
70
ENDCHAR
STARTCHAR 00F0
ENCODING 240
SWIDTH 432 0
DWIDTH 6 0
BBX 7 9 1 1
BITMAP
0E
1C
04
3C
44
84
88
88
70
ENDCHAR
STARTCHAR 00F1
ENCODING 241
SWIDTH 432 0
DWIDTH 6 0
BBX 6 9 1 0
BITMAP
3C
00
10
6C
44
44
C8
88
88
ENDCHAR
STARTCHAR 00F2
ENCODING 242
SWIDTH 432 0
DWIDTH 6 0
BBX 6 10 1 0
BITMAP
10
10
08
18
6C
44
84
84
88
70
ENDCHAR
STARTCHAR 00F3
ENCODING 243
SWIDTH 432 0
DWIDTH 6 0
BBX 6 9 1 1
BITMAP
0C
10
18
6C
44
84
84
88
70
ENDCHAR
STARTCHAR 00F4
ENCODING 244
SWIDTH 432 0
DWIDTH 6 0
BBX 6 10 1 0
BITMAP
08
18
04
18
6C
44
84
84
88
70
ENDCHAR
STARTCHAR 00F5
ENCODING 245
SWIDTH 432 0
DWIDTH 6 0
BBX 6 9 1 0
BITMAP
3C
00
18
6C
44
84
84
88
70
ENDCHAR
STARTCHAR 00F6
ENCODING 246
SWIDTH 432 0
DWIDTH 6 0
BBX 6 9 1 0
BITMAP
34
00
18
6C
44
84
84
88
70
ENDCHAR
STARTCHAR 00F7
ENCODING 247
SWIDTH 432 0
DWIDTH 6 0
BBX 6 6 1 0
BITMAP
10
10
00
FC
00
30
ENDCHAR
STARTCHAR 00F8
ENCODING 248
SWIDTH 432 0
DWIDTH 6 0
BBX 7 7 1 0
BITMAP
1A
6C
4C
94
A4
C8
F0
ENDCHAR
STARTCHAR 00F9
ENCODING 249
SWIDTH 432 0
DWIDTH 6 0
BBX 6 9 1 1
BITMAP
10
08
00
44
44
C8
88
88
78
ENDCHAR
STARTCHAR 00FA
ENCODING 250
SWIDTH 432 0
DWIDTH 6 0
BBX 6 9 1 1
BITMAP
08
10
00
44
44
C8
88
88
78
ENDCHAR
STARTCHAR 00FB
ENCODING 251
SWIDTH 432 0
DWIDTH 6 0
BBX 6 9 1 1
BITMAP
18
00
00
44
44
C8
88
88
78
ENDCHAR
STARTCHAR 00FC
ENCODING 252
SWIDTH 432 0
DWIDTH 6 0
BBX 6 9 1 0
BITMAP
3C
00
00
44
44
C8
88
88
78
ENDCHAR
STARTCHAR 00FD
ENCODING 253
SWIDTH 432 0
DWIDTH 6 0
BBX 7 11 0 -1
BITMAP
04
08
00
22
22
24
34
18
18
10
E0
ENDCHAR
STARTCHAR 00FE
ENCODING 254
SWIDTH 432 0
DWIDTH 6 0
BBX 7 12 0 -2
BITMAP
10
10
10
3C
36
22
22
66
44
78
40
C0
ENDCHAR
STARTCHAR 00FF
ENCODING 255
SWIDTH 432 0
DWIDTH 6 0
BBX 7 11 0 -2
BITMAP
1E
00
00
22
22
24
34
18
18
10
E0
ENDCHAR
STARTCHAR 0100
ENCODING 256
SWIDTH 432 0
DWIDTH 6 0
BBX 7 11 0 0
BITMAP
0E
00
0C
0C
14
14
24
24
7C
44
84
ENDCHAR
STARTCHAR 0101
ENCODING 257
SWIDTH 432 0
DWIDTH 6 0
BBX 6 9 1 0
BITMAP
1C
00
08
74
44
88
88
88
F8
ENDCHAR
STARTCHAR 0102
ENCODING 258
SWIDTH 432 0
DWIDTH 6 0
BBX 7 11 0 0
BITMAP
0A
04
0C
0C
14
14
24
24
7C
44
84
ENDCHAR
STARTCHAR 0103
ENCODING 259
SWIDTH 432 0
DWIDTH 6 0
BBX 6 9 1 0
BITMAP
14
08
08
74
44
88
88
88
F8
ENDCHAR
STARTCHAR 0104
ENCODING 260
SWIDTH 432 0
DWIDTH 6 0
BBX 6 11 0 -2
BITMAP
0C
0C
14
14
24
24
7C
44
84
04
0C
ENDCHAR
STARTCHAR 0105
ENCODING 261
SWIDTH 432 0
DWIDTH 6 0
BBX 6 9 1 -2
BITMAP
08
74
44
88
88
88
F8
10
10
ENDCHAR
STARTCHAR 0106
ENCODING 262
SWIDTH 432 0
DWIDTH 6 0
BBX 7 11 1 1
BITMAP
04
08
1C
32
40
40
C0
80
80
C0
78
ENDCHAR
STARTCHAR 0107
ENCODING 263
SWIDTH 432 0
DWIDTH 6 0
BBX 6 10 1 0
BITMAP
04
0C
08
18
64
40
80
80
80
78
ENDCHAR
STARTCHAR 0108
ENCODING 264
SWIDTH 432 0
DWIDTH 6 0
BBX 7 11 1 0
BITMAP
0C
02
1C
32
40
40
C0
80
80
C0
78
ENDCHAR
STARTCHAR 0109
ENCODING 265
SWIDTH 432 0
DWIDTH 6 0
BBX 6 9 1 1
BITMAP
18
04
18
64
40
80
80
80
78
ENDCHAR
STARTCHAR 010A
ENCODING 266
SWIDTH 432 0
DWIDTH 6 0
BBX 7 11 1 0
BITMAP
0C
00
1C
32
40
40
C0
80
80
C0
78
ENDCHAR
STARTCHAR 010B
ENCODING 267
SWIDTH 432 0
DWIDTH 6 0
BBX 6 9 1 0
BITMAP
08
00
18
64
40
80
80
80
78
ENDCHAR
STARTCHAR 010C
ENCODING 268
SWIDTH 432 0
DWIDTH 6 0
BBX 7 11 1 1
BITMAP
0C
00
1C
32
40
40
C0
80
80
C0
78
ENDCHAR
STARTCHAR 010D
ENCODING 269
SWIDTH 432 0
DWIDTH 6 0
BBX 6 10 1 0
BITMAP
10
1C
08
18
64
40
80
80
80
78
ENDCHAR
STARTCHAR 010E
ENCODING 270
SWIDTH 432 0
DWIDTH 6 0
BBX 6 11 1 1
BITMAP
18
00
30
4C
44
44
44
84
8C
98
F0
ENDCHAR
STARTCHAR 010F
ENCODING 271
SWIDTH 432 0
DWIDTH 6 0
BBX 8 10 1 0
BITMAP
05
05
0E
18
68
C8
98
90
90
F0
ENDCHAR
STARTCHAR 0110
ENCODING 272
SWIDTH 432 0
DWIDTH 6 0
BBX 6 9 1 0
BITMAP
38
2C
64
44
E4
44
4C
88
F0
ENDCHAR
STARTCHAR 0111
ENCODING 273
SWIDTH 432 0
DWIDTH 6 0
BBX 7 10 1 0
BITMAP
02
06
1C
1C
64
4C
88
88
88
78
ENDCHAR
STARTCHAR 0112
ENCODING 274
SWIDTH 432 0
DWIDTH 6 0
BBX 7 11 1 0
BITMAP
1E
00
3E
20
20
40
78
40
40
C0
F8
ENDCHAR
STARTCHAR 0113
ENCODING 275
SWIDTH 432 0
DWIDTH 6 0
BBX 6 9 1 0
BITMAP
1C
00
18
6C
44
98
E0
80
78
ENDCHAR
STARTCHAR 0114
ENCODING 276
SWIDTH 432 0
DWIDTH 6 0
BBX 7 11 1 0
BITMAP
12
0C
3E
20
20
40
78
40
40
C0
F8
ENDCHAR
STARTCHAR 0115
ENCODING 277
SWIDTH 432 0
DWIDTH 6 0
BBX 6 9 1 0
BITMAP
14
08
18
6C
44
98
E0
80
78
ENDCHAR
STARTCHAR 0116
ENCODING 278
SWIDTH 432 0
DWIDTH 6 0
BBX 7 11 1 0
BITMAP
0C
00
3E
20
20
40
78
40
40
C0
F8
ENDCHAR
STARTCHAR 0117
ENCODING 279
SWIDTH 432 0
DWIDTH 6 0
BBX 6 9 1 0
BITMAP
08
00
18
6C
44
98
E0
80
78
ENDCHAR
STARTCHAR 0118
ENCODING 280
SWIDTH 432 0
DWIDTH 6 0
BBX 7 11 1 -2
BITMAP
3E
20
20
40
78
40
40
C0
F8
10
10
ENDCHAR
STARTCHAR 0119
ENCODING 281
SWIDTH 432 0
DWIDTH 6 0
BBX 6 9 1 -2
BITMAP
18
6C
44
98
E0
80
78
10
30
ENDCHAR
STARTCHAR 011A
ENCODING 282
SWIDTH 432 0
DWIDTH 6 0
BBX 7 11 1 1
BITMAP
0C
08
3E
20
20
40
78
40
40
C0
F8
ENDCHAR
STARTCHAR 011B
ENCODING 283
SWIDTH 432 0
DWIDTH 6 0
BBX 6 9 1 1
BITMAP
1C
00
18
6C
44
98
E0
80
78
ENDCHAR
STARTCHAR 011C
ENCODING 284
SWIDTH 432 0
DWIDTH 6 0
BBX 6 11 1 0
BITMAP
0C
10
1C
20
40
40
80
84
8C
C8
78
ENDCHAR
STARTCHAR 011D
ENCODING 285
SWIDTH 432 0
DWIDTH 6 0
BBX 7 11 0 -1
BITMAP
06
0A
06
1A
22
62
44
64
3C
0C
F8
ENDCHAR
STARTCHAR 011E
ENCODING 286
SWIDTH 432 0
DWIDTH 6 0
BBX 7 11 1 0
BITMAP
12
0C
1C
20
40
40
80
84
8C
C8
78
ENDCHAR
STARTCHAR 011F
ENCODING 287
SWIDTH 432 0
DWIDTH 6 0
BBX 7 11 0 -2
BITMAP
0A
04
06
1A
22
62
44
64
3C
0C
F8
ENDCHAR
STARTCHAR 0120
ENCODING 288
SWIDTH 432 0
DWIDTH 6 0
BBX 6 11 1 0
BITMAP
0C
00
1C
20
40
40
80
84
8C
C8
78
ENDCHAR
STARTCHAR 0121
ENCODING 289
SWIDTH 432 0
DWIDTH 6 0
BBX 7 11 0 -2
BITMAP
04
00
06
1A
22
62
44
64
3C
0C
F8
ENDCHAR
STARTCHAR 0122
ENCODING 290
SWIDTH 432 0
DWIDTH 6 0
BBX 6 11 1 -2
BITMAP
1C
20
40
40
80
84
8C
C8
78
00
60
ENDCHAR
STARTCHAR 0123
ENCODING 291
SWIDTH 432 0
DWIDTH 6 0
BBX 7 12 0 -2
BITMAP
02
04
00
06
1A
22
62
44
64
3C
0C
F8
ENDCHAR
STARTCHAR 0124
ENCODING 292
SWIDTH 432 0
DWIDTH 6 0
BBX 7 11 1 0
BITMAP
0C
14
22
42
46
44
7C
84
8C
88
88
ENDCHAR
STARTCHAR 0125
ENCODING 293
SWIDTH 432 0
DWIDTH 6 0
BBX 6 12 1 0
BITMAP
10
30
00
20
60
50
68
4C
C8
88
88
88
ENDCHAR
STARTCHAR 0126
ENCODING 294
SWIDTH 432 0
DWIDTH 6 0
BBX 7 9 1 0
BITMAP
26
24
7E
44
7C
48
C8
88
88
ENDCHAR
STARTCHAR 0127
ENCODING 295
SWIDTH 432 0
DWIDTH 6 0
BBX 6 10 1 0
BITMAP
10
20
38
38
6C
44
44
48
C8
88
ENDCHAR
STARTCHAR 0128
ENCODING 296
SWIDTH 432 0
DWIDTH 6 0
BBX 7 11 1 0
BITMAP
1E
00
3C
18
10
10
10
30
20
20
F8
ENDCHAR
STARTCHAR 0129
ENCODING 297
SWIDTH 432 0
DWIDTH 6 0
BBX 5 9 2 0
BITMAP
78
00
00
E0
60
40
40
40
70
ENDCHAR
STARTCHAR 012A
ENCODING 298
SWIDTH 432 0
DWIDTH 6 0
BBX 7 11 1 0
BITMAP
1E
00
3C
18
10
10
10
30
20
20
F8
ENDCHAR
STARTCHAR 012B
ENCODING 299
SWIDTH 432 0
DWIDTH 6 0
BBX 5 9 2 0
BITMAP
78
00
00
E0
60
40
40
40
70
ENDCHAR
STARTCHAR 012C
ENCODING 300
SWIDTH 432 0
DWIDTH 6 0
BBX 6 11 1 0
BITMAP
14
08
3C
18
10
10
10
30
20
20
F8
ENDCHAR
STARTCHAR 012D
ENCODING 301
SWIDTH 432 0
DWIDTH 6 0
BBX 5 9 2 0
BITMAP
58
20
00
E0
60
40
40
40
70
ENDCHAR
STARTCHAR 012E
ENCODING 302
SWIDTH 432 0
DWIDTH 6 0
BBX 6 11 1 -2
BITMAP
3C
18
10
10
10
30
20
20
F8
40
C0
ENDCHAR
STARTCHAR 012F
ENCODING 303
SWIDTH 432 0
DWIDTH 6 0
BBX 4 11 2 -2
BITMAP
30
20
00
E0
60
40
40
40
70
20
60
ENDCHAR
STARTCHAR 0130
ENCODING 304
SWIDTH 432 0
DWIDTH 6 0
BBX 6 11 1 0
BITMAP
08
00
3C
18
10
10
10
30
20
20
F8
ENDCHAR
STARTCHAR 0131
ENCODING 305
SWIDTH 432 0
DWIDTH 6 0
BBX 4 6 2 0
BITMAP
E0
60
40
40
40
70
ENDCHAR
STARTCHAR 0132
ENCODING 306
SWIDTH 432 0
DWIDTH 6 0
BBX 8 9 0 0
BITMAP
21
21
21
23
42
42
42
46
FC
ENDCHAR
STARTCHAR 0133
ENCODING 307
SWIDTH 432 0
DWIDTH 6 0
BBX 7 11 1 -2
BITMAP
36
00
00
2C
68
48
48
48
D0
10
70
ENDCHAR
STARTCHAR 0134
ENCODING 308
SWIDTH 432 0
DWIDTH 6 0
BBX 7 11 1 0
BITMAP
0C
02
1E
04
04
04
04
08
08
08
F0
ENDCHAR
STARTCHAR 0135
ENCODING 309
SWIDTH 432 0
DWIDTH 6 0
BBX 7 11 0 -1
BITMAP
0C
02
00
1C
04
04
04
08
08
08
F0
ENDCHAR
STARTCHAR 0136
ENCODING 310
SWIDTH 432 0
DWIDTH 6 0
BBX 7 11 1 -2
BITMAP
22
64
48
50
60
F0
90
88
88
00
60
ENDCHAR
STARTCHAR 0137
ENCODING 311
SWIDTH 432 0
DWIDTH 6 0
BBX 6 11 1 -1
BITMAP
20
20
60
4C
50
60
D0
98
88
00
60
ENDCHAR
STARTCHAR 0138
ENCODING 312
SWIDTH 432 0
DWIDTH 6 0
BBX 6 6 1 0
BITMAP
4C
50
60
D0
98
88
ENDCHAR
STARTCHAR 0139
ENCODING 313
SWIDTH 432 0
DWIDTH 6 0
BBX 5 11 1 1
BITMAP
18
20
20
20
40
40
40
40
80
80
F8
ENDCHAR
STARTCHAR 013A
ENCODING 314
SWIDTH 432 0
DWIDTH 6 0
BBX 4 11 2 1
BITMAP
30
00
E0
20
20
20
60
40
40
40
70
ENDCHAR
STARTCHAR 013B
ENCODING 315
SWIDTH 432 0
DWIDTH 6 0
BBX 5 11 1 -2
BITMAP
20
20
40
40
40
40
80
80
F8
00
60
ENDCHAR
STARTCHAR 013C
ENCODING 316
SWIDTH 432 0
DWIDTH 6 0
BBX 3 12 3 -2
BITMAP
E0
40
40
40
40
C0
80
80
80
E0
00
80
ENDCHAR
STARTCHAR 013D
ENCODING 317
SWIDTH 432 0
DWIDTH 6 0
BBX 5 9 1 0
BITMAP
28
28
50
40
40
40
80
80
F8
ENDCHAR
STARTCHAR 013E
ENCODING 318
SWIDTH 432 0
DWIDTH 6 0
BBX 5 10 3 0
BITMAP
E8
50
50
40
40
C0
80
80
80
E0
ENDCHAR
STARTCHAR 013F
ENCODING 319
SWIDTH 432 0
DWIDTH 6 0
BBX 5 9 1 0
BITMAP
20
20
40
40
48
40
80
80
F8
ENDCHAR
STARTCHAR 0140
ENCODING 320
SWIDTH 432 0
DWIDTH 6 0
BBX 5 10 3 0
BITMAP
E0
40
40
40
40
C8
80
80
80
E0
ENDCHAR
STARTCHAR 0141
ENCODING 321
SWIDTH 432 0
DWIDTH 6 0
BBX 5 9 1 0
BITMAP
20
20
60
50
60
C0
40
80
F8
ENDCHAR
STARTCHAR 0142
ENCODING 322
SWIDTH 432 0
DWIDTH 6 0
BBX 4 10 2 0
BITMAP
70
20
20
20
30
E0
40
40
40
70
ENDCHAR
STARTCHAR 0143
ENCODING 323
SWIDTH 432 0
DWIDTH 6 0
BBX 7 11 1 1
BITMAP
04
08
22
62
62
54
54
94
94
88
88
ENDCHAR
STARTCHAR 0144
ENCODING 324
SWIDTH 432 0
DWIDTH 6 0
BBX 6 9 1 1
BITMAP
0C
10
10
6C
44
44
C8
88
88
ENDCHAR
STARTCHAR 0145
ENCODING 325
SWIDTH 432 0
DWIDTH 6 0
BBX 7 11 1 -2
BITMAP
22
62
62
54
54
94
94
88
88
00
60
ENDCHAR
STARTCHAR 0146
ENCODING 326
SWIDTH 432 0
DWIDTH 6 0
BBX 6 9 1 -2
BITMAP
10
6C
44
44
C8
88
88
00
60
ENDCHAR
STARTCHAR 0147
ENCODING 327
SWIDTH 432 0
DWIDTH 6 0
BBX 7 11 1 1
BITMAP
0C
08
22
62
62
54
54
94
94
88
88
ENDCHAR
STARTCHAR 0148
ENCODING 328
SWIDTH 432 0
DWIDTH 6 0
BBX 6 9 1 1
BITMAP
18
00
10
6C
44
44
C8
88
88
ENDCHAR
STARTCHAR 0149
ENCODING 329
SWIDTH 432 0
DWIDTH 6 0
BBX 6 10 1 0
BITMAP
20
40
40
10
6C
44
44
C8
88
88
ENDCHAR
STARTCHAR 014A
ENCODING 330
SWIDTH 432 0
DWIDTH 6 0
BBX 7 11 1 -2
BITMAP
22
62
66
54
54
94
94
88
88
08
30
ENDCHAR
STARTCHAR 014B
ENCODING 331
SWIDTH 432 0
DWIDTH 6 0
BBX 6 9 1 -2
BITMAP
10
6C
44
44
C8
88
88
08
30
ENDCHAR
STARTCHAR 014C
ENCODING 332
SWIDTH 432 0
DWIDTH 6 0
BBX 7 11 1 0
BITMAP
1E
00
18
24
44
44
84
84
84
88
70
ENDCHAR
STARTCHAR 014D
ENCODING 333
SWIDTH 432 0
DWIDTH 6 0
BBX 6 9 1 0
BITMAP
1C
00
18
6C
44
84
84
88
70
ENDCHAR
STARTCHAR 014E
ENCODING 334
SWIDTH 432 0
DWIDTH 6 0
BBX 6 11 1 0
BITMAP
14
08
18
24
44
44
84
84
84
88
70
ENDCHAR
STARTCHAR 014F
ENCODING 335
SWIDTH 432 0
DWIDTH 6 0
BBX 6 9 1 0
BITMAP
14
08
18
6C
44
84
84
88
70
ENDCHAR
STARTCHAR 0150
ENCODING 336
SWIDTH 432 0
DWIDTH 6 0
BBX 7 11 1 1
BITMAP
0A
14
18
24
44
44
84
84
84
88
70
ENDCHAR
STARTCHAR 0151
ENCODING 337
SWIDTH 432 0
DWIDTH 6 0
BBX 6 9 1 1
BITMAP
14
20
18
6C
44
84
84
88
70
ENDCHAR
STARTCHAR 0152
ENCODING 338
SWIDTH 432 0
DWIDTH 6 0
BBX 7 9 1 0
BITMAP
1E
68
48
88
9C
90
90
90
FC
ENDCHAR
STARTCHAR 0153
ENCODING 339
SWIDTH 432 0
DWIDTH 6 0
BBX 7 7 1 0
BITMAP
24
5E
92
9C
90
B0
FC
ENDCHAR
STARTCHAR 0154
ENCODING 340
SWIDTH 432 0
DWIDTH 6 0
BBX 6 11 1 1
BITMAP
0C
08
38
64
44
44
4C
F0
98
88
88
ENDCHAR
STARTCHAR 0155
ENCODING 341
SWIDTH 432 0
DWIDTH 6 0
BBX 6 10 1 0
BITMAP
04
0C
08
1C
24
40
40
40
40
80
ENDCHAR
STARTCHAR 0156
ENCODING 342
SWIDTH 432 0
DWIDTH 6 0
BBX 6 11 1 -2
BITMAP
38
64
44
44
4C
F0
98
88
88
00
60
ENDCHAR
STARTCHAR 0157
ENCODING 343
SWIDTH 432 0
DWIDTH 6 0
BBX 7 9 0 -2
BITMAP
0E
12
20
20
20
20
40
00
C0
ENDCHAR
STARTCHAR 0158
ENCODING 344
SWIDTH 432 0
DWIDTH 6 0
BBX 6 11 1 1
BITMAP
18
00
38
64
44
44
4C
F0
98
88
88
ENDCHAR
STARTCHAR 0159
ENCODING 345
SWIDTH 432 0
DWIDTH 6 0
BBX 6 9 1 1
BITMAP
0C
08
1C
24
40
40
40
40
80
ENDCHAR
STARTCHAR 015A
ENCODING 346
SWIDTH 432 0
DWIDTH 6 0
BBX 6 11 1 1
BITMAP
0C
08
1C
20
40
60
30
08
08
08
F8
ENDCHAR
STARTCHAR 015B
ENCODING 347
SWIDTH 432 0
DWIDTH 6 0
BBX 6 9 1 1
BITMAP
0C
10
18
24
40
30
08
08
F8
ENDCHAR
STARTCHAR 015C
ENCODING 348
SWIDTH 432 0
DWIDTH 6 0
BBX 6 11 1 0
BITMAP
0C
14
1C
20
40
60
30
08
08
08
F8
ENDCHAR
STARTCHAR 015D
ENCODING 349
SWIDTH 432 0
DWIDTH 6 0
BBX 6 9 1 1
BITMAP
18
04
18
24
40
30
08
08
F8
ENDCHAR
STARTCHAR 015E
ENCODING 350
SWIDTH 432 0
DWIDTH 6 0
BBX 6 11 1 -2
BITMAP
1C
20
40
60
30
08
08
08
F8
40
60
ENDCHAR
STARTCHAR 015F
ENCODING 351
SWIDTH 432 0
DWIDTH 6 0
BBX 6 9 1 -2
BITMAP
18
24
40
30
08
08
F8
20
60
ENDCHAR
STARTCHAR 0160
ENCODING 352
SWIDTH 432 0
DWIDTH 6 0
BBX 6 11 1 1
BITMAP
0C
08
1C
20
40
60
30
08
08
08
F8
ENDCHAR
STARTCHAR 0161
ENCODING 353
SWIDTH 432 0
DWIDTH 6 0
BBX 6 10 1 0
BITMAP
10
1C
08
18
24
40
30
08
08
F8
ENDCHAR
STARTCHAR 0162
ENCODING 354
SWIDTH 432 0
DWIDTH 6 0
BBX 7 11 1 -2
BITMAP
7E
18
10
10
10
30
20
20
20
40
E0
ENDCHAR
STARTCHAR 0163
ENCODING 355
SWIDTH 432 0
DWIDTH 6 0
BBX 5 10 2 -2
BITMAP
20
40
F8
40
40
C0
80
70
40
40
ENDCHAR
STARTCHAR 0164
ENCODING 356
SWIDTH 432 0
DWIDTH 6 0
BBX 6 11 2 1
BITMAP
18
10
FC
30
20
20
20
60
40
40
40
ENDCHAR
STARTCHAR 0165
ENCODING 357
SWIDTH 432 0
DWIDTH 6 0
BBX 5 10 2 0
BITMAP
08
08
28
20
F8
40
40
40
C0
70
ENDCHAR
STARTCHAR 0166
ENCODING 358
SWIDTH 432 0
DWIDTH 6 0
BBX 6 9 2 0
BITMAP
FC
30
20
20
F0
60
40
40
40
ENDCHAR
STARTCHAR 0167
ENCODING 359
SWIDTH 432 0
DWIDTH 6 0
BBX 6 8 1 0
BITMAP
10
10
7C
20
F8
20
60
38
ENDCHAR
STARTCHAR 0168
ENCODING 360
SWIDTH 432 0
DWIDTH 6 0
BBX 7 11 1 0
BITMAP
1E
00
22
42
44
44
44
84
8C
88
70
ENDCHAR
STARTCHAR 0169
ENCODING 361
SWIDTH 432 0
DWIDTH 6 0
BBX 6 9 1 0
BITMAP
3C
00
00
44
44
C8
88
88
78
ENDCHAR
STARTCHAR 016A
ENCODING 362
SWIDTH 432 0
DWIDTH 6 0
BBX 7 11 1 0
BITMAP
1C
00
22
42
44
44
44
84
8C
88
70
ENDCHAR
STARTCHAR 016B
ENCODING 363
SWIDTH 432 0
DWIDTH 6 0
BBX 6 9 1 0
BITMAP
3C
00
00
44
44
C8
88
88
78
ENDCHAR
STARTCHAR 016C
ENCODING 364
SWIDTH 432 0
DWIDTH 6 0
BBX 7 11 1 0
BITMAP
14
08
22
42
44
44
44
84
8C
88
70
ENDCHAR
STARTCHAR 016D
ENCODING 365
SWIDTH 432 0
DWIDTH 6 0
BBX 6 9 1 0
BITMAP
14
08
00
44
44
C8
88
88
78
ENDCHAR
STARTCHAR 016E
ENCODING 366
SWIDTH 432 0
DWIDTH 6 0
BBX 7 12 1 0
BITMAP
08
14
0C
22
42
44
44
44
84
8C
88
70
ENDCHAR
STARTCHAR 016F
ENCODING 367
SWIDTH 432 0
DWIDTH 6 0
BBX 6 10 1 0
BITMAP
18
28
18
00
44
44
C8
88
88
78
ENDCHAR
STARTCHAR 0170
ENCODING 368
SWIDTH 432 0
DWIDTH 6 0
BBX 7 11 1 1
BITMAP
1E
14
22
42
44
44
44
84
8C
88
70
ENDCHAR
STARTCHAR 0171
ENCODING 369
SWIDTH 432 0
DWIDTH 6 0
BBX 6 9 1 1
BITMAP
14
28
00
44
44
C8
88
88
78
ENDCHAR
STARTCHAR 0172
ENCODING 370
SWIDTH 432 0
DWIDTH 6 0
BBX 7 11 1 -2
BITMAP
22
42
44
44
44
84
8C
88
70
20
70
ENDCHAR
STARTCHAR 0173
ENCODING 371
SWIDTH 432 0
DWIDTH 6 0
BBX 6 8 1 -2
BITMAP
44
44
C8
88
88
78
10
10
ENDCHAR
STARTCHAR 0174
ENCODING 372
SWIDTH 432 0
DWIDTH 6 0
BBX 7 11 1 0
BITMAP
0C
14
42
42
42
44
94
B4
D8
D8
88
ENDCHAR
STARTCHAR 0175
ENCODING 373
SWIDTH 432 0
DWIDTH 6 0
BBX 7 9 1 1
BITMAP
18
04
00
C2
94
B4
B4
D8
98
ENDCHAR
STARTCHAR 0176
ENCODING 374
SWIDTH 432 0
DWIDTH 6 0
BBX 7 11 2 0
BITMAP
18
28
86
84
C8
50
50
60
40
40
40
ENDCHAR
STARTCHAR 0177
ENCODING 375
SWIDTH 432 0
DWIDTH 6 0
BBX 7 11 0 -1
BITMAP
0C
10
00
22
22
24
34
18
18
10
E0
ENDCHAR
STARTCHAR 0178
ENCODING 376
SWIDTH 432 0
DWIDTH 6 0
BBX 7 11 2 0
BITMAP
28
00
86
84
C8
50
50
60
40
40
40
ENDCHAR
STARTCHAR 0179
ENCODING 377
SWIDTH 432 0
DWIDTH 6 0
BBX 7 11 1 1
BITMAP
04
08
3E
06
0C
18
10
20
40
80
F8
ENDCHAR
STARTCHAR 017A
ENCODING 378
SWIDTH 432 0
DWIDTH 6 0
BBX 6 9 1 1
BITMAP
0C
10
00
7C
18
30
60
40
F8
ENDCHAR
STARTCHAR 017B
ENCODING 379
SWIDTH 432 0
DWIDTH 6 0
BBX 7 11 1 0
BITMAP
08
00
3E
06
0C
18
10
20
40
80
F8
ENDCHAR
STARTCHAR 017C
ENCODING 380
SWIDTH 432 0
DWIDTH 6 0
BBX 6 9 1 0
BITMAP
08
00
00
7C
18
30
60
40
F8
ENDCHAR
STARTCHAR 017D
ENCODING 381
SWIDTH 432 0
DWIDTH 6 0
BBX 7 11 1 1
BITMAP
0C
08
3E
06
0C
18
10
20
40
80
F8
ENDCHAR
STARTCHAR 017E
ENCODING 382
SWIDTH 432 0
DWIDTH 6 0
BBX 6 9 1 1
BITMAP
18
00
00
7C
18
30
60
40
F8
ENDCHAR
STARTCHAR 017F
ENCODING 383
SWIDTH 432 0
DWIDTH 6 0
BBX 8 12 0 -2
BITMAP
03
04
08
08
08
18
10
10
10
10
20
E0
ENDCHAR
STARTCHAR 0180
ENCODING 384
SWIDTH 432 0
DWIDTH 6 0
BBX 6 9 1 1
BITMAP
20
78
78
6C
44
44
44
88
F0
ENDCHAR
STARTCHAR 0181
ENCODING 385
SWIDTH 432 0
DWIDTH 6 0
BBX 6 9 1 0
BITMAP
38
54
A4
24
38
24
64
4C
78
ENDCHAR
STARTCHAR 0182
ENCODING 386
SWIDTH 432 0
DWIDTH 6 0
BBX 6 9 1 0
BITMAP
3C
60
40
40
78
44
84
88
F0
ENDCHAR
STARTCHAR 0183
ENCODING 387
SWIDTH 432 0
DWIDTH 6 0
BBX 7 10 1 0
BITMAP
3E
20
20
78
6C
44
44
CC
88
F0
ENDCHAR
STARTCHAR 0184
ENCODING 388
SWIDTH 432 0
DWIDTH 6 0
BBX 6 9 1 1
BITMAP
60
20
78
6C
44
44
44
88
F0
ENDCHAR
STARTCHAR 0185
ENCODING 389
SWIDTH 432 0
DWIDTH 6 0
BBX 6 8 1 1
BITMAP
60
20
40
7C
44
44
8C
F8
ENDCHAR
STARTCHAR 0186
ENCODING 390
SWIDTH 432 0
DWIDTH 6 0
BBX 6 9 1 0
BITMAP
38
0C
04
04
04
04
0C
08
F0
ENDCHAR
STARTCHAR 0187
ENCODING 391
SWIDTH 432 0
DWIDTH 6 0
BBX 8 10 1 0
BITMAP
03
1E
30
40
40
C0
80
80
C0
78
ENDCHAR
STARTCHAR 0188
ENCODING 392
SWIDTH 432 0
DWIDTH 6 0
BBX 7 8 1 0
BITMAP
06
1C
60
40
80
80
80
70
ENDCHAR
STARTCHAR 0189
ENCODING 393
SWIDTH 432 0
DWIDTH 6 0
BBX 6 9 1 0
BITMAP
38
2C
64
44
E4
44
4C
88
F0
ENDCHAR
STARTCHAR 018A
ENCODING 394
SWIDTH 432 0
DWIDTH 6 0
BBX 7 9 1 0
BITMAP
38
54
B4
26
24
24
64
48
70
ENDCHAR
STARTCHAR 018B
ENCODING 395
SWIDTH 432 0
DWIDTH 6 0
BBX 7 9 1 0
BITMAP
3E
02
04
04
7C
C4
88
88
78
ENDCHAR
STARTCHAR 018C
ENCODING 396
SWIDTH 432 0
DWIDTH 6 0
BBX 7 10 1 0
BITMAP
1E
02
06
0C
34
44
8C
88
88
78
ENDCHAR
STARTCHAR 018D
ENCODING 397
SWIDTH 432 0
DWIDTH 6 0
BBX 6 9 1 -2
BITMAP
18
6C
44
C4
CC
58
30
10
F0
ENDCHAR
STARTCHAR 018E
ENCODING 398
SWIDTH 432 0
DWIDTH 6 0
BBX 7 9 1 0
BITMAP
3E
04
04
04
7C
08
08
08
F8
ENDCHAR
STARTCHAR 018F
ENCODING 399
SWIDTH 432 0
DWIDTH 6 0
BBX 6 9 1 0
BITMAP
38
04
04
04
FC
84
84
88
70
ENDCHAR
STARTCHAR 0190
ENCODING 400
SWIDTH 432 0
DWIDTH 6 0
BBX 7 9 1 0
BITMAP
1C
22
60
20
38
40
80
80
78
ENDCHAR
STARTCHAR 0191
ENCODING 401
SWIDTH 432 0
DWIDTH 6 0
BBX 9 11 -1 -2
BITMAP
0F80
0800
0800
1000
1F00
1000
1000
2000
2000
2000
E000
ENDCHAR
STARTCHAR 0192
ENCODING 402
SWIDTH 432 0
DWIDTH 6 0
BBX 8 12 0 -2
BITMAP
03
04
08
08
3E
18
10
10
10
10
20
E0
ENDCHAR
STARTCHAR 0193
ENCODING 403
SWIDTH 432 0
DWIDTH 6 0
BBX 8 10 1 0
BITMAP
03
1C
20
40
40
80
84
8C
C8
78
ENDCHAR
STARTCHAR 0194
ENCODING 404
SWIDTH 432 0
DWIDTH 6 0
BBX 6 11 2 -2
BITMAP
84
84
88
58
50
60
60
60
A0
A0
E0
ENDCHAR
STARTCHAR 0195
ENCODING 405
SWIDTH 432 0
DWIDTH 6 0
BBX 7 10 0 0
BITMAP
10
20
20
30
2A
6A
4A
52
56
DC
ENDCHAR
STARTCHAR 0196
ENCODING 406
SWIDTH 432 0
DWIDTH 6 0
BBX 4 9 3 0
BITMAP
F0
40
40
40
C0
80
80
80
E0
ENDCHAR
STARTCHAR 0197
ENCODING 407
SWIDTH 432 0
DWIDTH 6 0
BBX 7 9 1 0
BITMAP
3E
18
10
10
78
30
20
20
F8
ENDCHAR
STARTCHAR 0198
ENCODING 408
SWIDTH 432 0
DWIDTH 6 0
BBX 7 9 1 0
BITMAP
22
6C
48
50
60
F0
90
88
88
ENDCHAR
STARTCHAR 0199
ENCODING 409
SWIDTH 432 0
DWIDTH 6 0
BBX 6 10 1 0
BITMAP
18
20
20
60
4C
50
60
D0
98
88
ENDCHAR
STARTCHAR 019A
ENCODING 410
SWIDTH 432 0
DWIDTH 6 0
BBX 4 10 2 0
BITMAP
70
20
20
20
20
F0
40
40
40
70
ENDCHAR
STARTCHAR 019B
ENCODING 411
SWIDTH 432 0
DWIDTH 6 0
BBX 6 10 1 0
BITMAP
20
14
38
18
18
28
48
48
88
88
ENDCHAR
STARTCHAR 019C
ENCODING 412
SWIDTH 432 0
DWIDTH 6 0
BBX 7 9 1 0
BITMAP
42
42
42
44
94
94
A4
A8
F8
ENDCHAR
STARTCHAR 019D
ENCODING 413
SWIDTH 432 0
DWIDTH 6 0
BBX 9 11 -1 -2
BITMAP
0880
1880
1980
1500
1500
2500
2500
2200
2200
4000
C000
ENDCHAR
STARTCHAR 019E
ENCODING 414
SWIDTH 432 0
DWIDTH 6 0
BBX 6 9 1 -2
BITMAP
10
6C
44
44
C8
88
88
08
18
ENDCHAR
STARTCHAR 019F
ENCODING 415
SWIDTH 432 0
DWIDTH 6 0
BBX 6 9 1 0
BITMAP
18
24
44
44
FC
84
84
88
70
ENDCHAR
STARTCHAR 01A0
ENCODING 416
SWIDTH 432 0
DWIDTH 6 0
BBX 8 10 1 0
BITMAP
03
1A
24
44
44
84
84
8C
88
70
ENDCHAR
STARTCHAR 01A1
ENCODING 417
SWIDTH 432 0
DWIDTH 6 0
BBX 7 8 1 0
BITMAP
02
12
6C
44
84
88
88
70
ENDCHAR
STARTCHAR 01A2
ENCODING 418
SWIDTH 432 0
DWIDTH 6 0
BBX 7 9 1 0
BITMAP
3C
52
5A
94
94
94
94
A8
E8
ENDCHAR
STARTCHAR 01A3
ENCODING 419
SWIDTH 432 0
DWIDTH 6 0
BBX 6 9 1 -2
BITMAP
28
54
94
94
94
A8
E8
08
08
ENDCHAR
STARTCHAR 01A4
ENCODING 420
SWIDTH 432 0
DWIDTH 6 0
BBX 7 9 1 0
BITMAP
38
54
B2
26
24
38
60
40
40
ENDCHAR
STARTCHAR 01A5
ENCODING 421
SWIDTH 432 0
DWIDTH 6 0
BBX 7 12 0 -2
BITMAP
0C
10
10
38
26
22
22
66
44
78
40
C0
ENDCHAR
STARTCHAR 01A6
ENCODING 422
SWIDTH 432 0
DWIDTH 6 0
BBX 6 11 1 -1
BITMAP
20
38
64
44
44
4C
F0
98
88
88
0C
ENDCHAR
STARTCHAR 01A7
ENCODING 423
SWIDTH 432 0
DWIDTH 6 0
BBX 6 9 1 0
BITMAP
3C
04
04
04
38
40
80
80
78
ENDCHAR
STARTCHAR 01A8
ENCODING 424
SWIDTH 432 0
DWIDTH 6 0
BBX 6 7 1 0
BITMAP
30
4C
0C
38
C0
80
F8
ENDCHAR
STARTCHAR 01A9
ENCODING 425
SWIDTH 432 0
DWIDTH 6 0
BBX 8 9 0 0
BITMAP
3F
30
10
18
08
10
20
40
FC
ENDCHAR
STARTCHAR 01AA
ENCODING 426
SWIDTH 432 0
DWIDTH 6 0
BBX 4 12 2 -2
BITMAP
20
50
90
70
30
20
20
20
20
40
40
70
ENDCHAR
STARTCHAR 01AB
ENCODING 427
SWIDTH 432 0
DWIDTH 6 0
BBX 6 10 1 -2
BITMAP
10
20
FC
20
20
60
40
38
08
38
ENDCHAR
STARTCHAR 01AC
ENCODING 428
SWIDTH 432 0
DWIDTH 6 0
BBX 6 9 2 0
BITMAP
7C
90
B0
20
20
20
60
40
40
ENDCHAR
STARTCHAR 01AD
ENCODING 429
SWIDTH 432 0
DWIDTH 6 0
BBX 6 10 2 0
BITMAP
0C
30
20
40
F8
40
40
C0
80
70
ENDCHAR
STARTCHAR 01AE
ENCODING 430
SWIDTH 432 0
DWIDTH 6 0
BBX 6 11 2 -2
BITMAP
FC
30
20
20
20
60
40
40
40
40
60
ENDCHAR
STARTCHAR 01AF
ENCODING 431
SWIDTH 432 0
DWIDTH 6 0
BBX 8 10 1 0
BITMAP
01
47
44
44
44
88
88
88
98
F0
ENDCHAR
STARTCHAR 01B0
ENCODING 432
SWIDTH 432 0
DWIDTH 6 0
BBX 7 8 1 0
BITMAP
02
02
4C
48
88
88
98
F8
ENDCHAR
STARTCHAR 01B1
ENCODING 433
SWIDTH 432 0
DWIDTH 6 0
BBX 7 9 1 0
BITMAP
76
24
44
44
84
84
84
88
70
ENDCHAR
STARTCHAR 01B2
ENCODING 434
SWIDTH 432 0
DWIDTH 6 0
BBX 6 9 1 0
BITMAP
68
44
44
44
C4
84
8C
88
F0
ENDCHAR
STARTCHAR 01B3
ENCODING 435
SWIDTH 432 0
DWIDTH 6 0
BBX 6 9 2 0
BITMAP
84
88
90
90
60
40
40
40
C0
ENDCHAR
STARTCHAR 01B4
ENCODING 436
SWIDTH 432 0
DWIDTH 6 0
BBX 8 9 0 -2
BITMAP
03
26
24
24
28
28
10
30
E0
ENDCHAR
STARTCHAR 01B5
ENCODING 437
SWIDTH 432 0
DWIDTH 6 0
BBX 7 9 1 0
BITMAP
3E
06
0C
18
7C
20
40
80
F8
ENDCHAR
STARTCHAR 01B6
ENCODING 438
SWIDTH 432 0
DWIDTH 6 0
BBX 6 6 1 0
BITMAP
7C
18
78
60
40
F8
ENDCHAR
STARTCHAR 01B7
ENCODING 439
SWIDTH 432 0
DWIDTH 6 0
BBX 7 9 1 0
BITMAP
3E
04
08
10
38
0C
04
08
F0
ENDCHAR
STARTCHAR 01B8
ENCODING 440
SWIDTH 432 0
DWIDTH 6 0
BBX 7 9 1 0
BITMAP
3E
20
10
10
38
40
80
C0
78
ENDCHAR
STARTCHAR 01B9
ENCODING 441
SWIDTH 432 0
DWIDTH 6 0
BBX 6 8 1 -2
BITMAP
3C
20
10
30
40
80
80
F8
ENDCHAR
STARTCHAR 01BA
ENCODING 442
SWIDTH 432 0
DWIDTH 6 0
BBX 7 8 0 -2
BITMAP
3E
0C
10
0C
04
0C
70
80
ENDCHAR
STARTCHAR 01BB
ENCODING 443
SWIDTH 432 0
DWIDTH 6 0
BBX 6 9 1 0
BITMAP
18
24
04
04
08
34
60
C0
F8
ENDCHAR
STARTCHAR 01BC
ENCODING 444
SWIDTH 432 0
DWIDTH 6 0
BBX 7 9 1 0
BITMAP
3E
20
20
20
78
0C
0C
08
F0
ENDCHAR
STARTCHAR 01BD
ENCODING 445
SWIDTH 432 0
DWIDTH 6 0
BBX 6 6 1 0
BITMAP
3C
20
78
08
08
F8
ENDCHAR
STARTCHAR 01BE
ENCODING 446
SWIDTH 432 0
DWIDTH 6 0
BBX 6 8 1 0
BITMAP
10
20
7C
20
38
08
08
F8
ENDCHAR
STARTCHAR 01BF
ENCODING 447
SWIDTH 432 0
DWIDTH 6 0
BBX 7 9 0 -2
BITMAP
08
36
22
22
66
4C
78
40
C0
ENDCHAR
STARTCHAR 01C0
ENCODING 448
SWIDTH 432 0
DWIDTH 6 0
BBX 4 12 2 -2
BITMAP
10
10
30
20
20
20
20
40
40
40
40
80
ENDCHAR
STARTCHAR 01C1
ENCODING 449
SWIDTH 432 0
DWIDTH 6 0
BBX 6 12 1 -2
BITMAP
14
34
24
2C
28
68
48
58
50
50
90
90
ENDCHAR
STARTCHAR 01C2
ENCODING 450
SWIDTH 432 0
DWIDTH 6 0
BBX 6 12 1 -2
BITMAP
08
08
18
10
10
FC
10
FC
20
20
20
40
ENDCHAR
STARTCHAR 01C3
ENCODING 451
SWIDTH 432 0
DWIDTH 6 0
BBX 4 9 2 0
BITMAP
30
20
20
20
20
40
00
40
C0
ENDCHAR
STARTCHAR 01C4
ENCODING 452
SWIDTH 432 0
DWIDTH 6 0
BBX 9 11 0 0
BITMAP
0080
0100
3380
2900
2900
2A00
4A00
5C00
5400
5800
EE00
ENDCHAR
STARTCHAR 01C5
ENCODING 453
SWIDTH 432 0
DWIDTH 6 0
BBX 9 9 0 0
BITMAP
3280
2900
2800
2B00
4A00
5200
5400
5400
EE00
ENDCHAR
STARTCHAR 01C6
ENCODING 454
SWIDTH 432 0
DWIDTH 6 0
BBX 9 10 0 0
BITMAP
0400
0A80
0900
1800
6B00
5200
5200
9400
9400
7E00
ENDCHAR
STARTCHAR 01C7
ENCODING 455
SWIDTH 432 0
DWIDTH 6 0
BBX 8 9 0 0
BITMAP
21
21
21
63
42
42
42
46
EC
ENDCHAR
STARTCHAR 01C8
ENCODING 456
SWIDTH 432 0
DWIDTH 6 0
BBX 8 11 0 -2
BITMAP
23
20
20
22
62
42
44
44
F4
04
18
ENDCHAR
STARTCHAR 01C9
ENCODING 457
SWIDTH 432 0
DWIDTH 6 0
BBX 6 12 1 -2
BITMAP
20
24
60
40
48
48
C8
90
90
50
10
60
ENDCHAR
STARTCHAR 01CA
ENCODING 458
SWIDTH 432 0
DWIDTH 6 0
BBX 8 9 0 0
BITMAP
25
29
29
69
6A
72
72
92
9C
ENDCHAR
STARTCHAR 01CB
ENCODING 459
SWIDTH 432 0
DWIDTH 6 0
BBX 8 11 0 -2
BITMAP
25
28
28
6A
6A
72
52
56
94
04
1C
ENDCHAR
STARTCHAR 01CC
ENCODING 460
SWIDTH 432 0
DWIDTH 6 0
BBX 8 11 0 -2
BITMAP
01
00
10
2A
4A
4A
52
56
94
04
1C
ENDCHAR
STARTCHAR 01CD
ENCODING 461
SWIDTH 432 0
DWIDTH 6 0
BBX 7 12 0 0
BITMAP
08
0A
04
0C
0C
14
14
24
24
7C
44
84
ENDCHAR
STARTCHAR 01CE
ENCODING 462
SWIDTH 432 0
DWIDTH 6 0
BBX 6 10 1 0
BITMAP
10
1C
08
08
74
44
88
88
88
F8
ENDCHAR
STARTCHAR 01CF
ENCODING 463
SWIDTH 432 0
DWIDTH 6 0
BBX 6 11 1 1
BITMAP
1C
08
3C
18
10
10
10
30
20
20
F8
ENDCHAR
STARTCHAR 01D0
ENCODING 464
SWIDTH 432 0
DWIDTH 6 0
BBX 4 9 2 1
BITMAP
30
20
00
E0
60
40
40
40
70
ENDCHAR
STARTCHAR 01D1
ENCODING 465
SWIDTH 432 0
DWIDTH 6 0
BBX 6 11 1 1
BITMAP
0C
08
18
24
44
44
84
84
84
88
70
ENDCHAR
STARTCHAR 01D2
ENCODING 466
SWIDTH 432 0
DWIDTH 6 0
BBX 6 9 1 1
BITMAP
18
00
18
6C
44
84
84
88
70
ENDCHAR
STARTCHAR 01D3
ENCODING 467
SWIDTH 432 0
DWIDTH 6 0
BBX 7 11 1 1
BITMAP
1C
08
22
42
44
44
44
84
8C
88
70
ENDCHAR
STARTCHAR 01D4
ENCODING 468
SWIDTH 432 0
DWIDTH 6 0
BBX 6 10 1 0
BITMAP
04
18
00
00
44
44
C8
88
88
78
ENDCHAR
STARTCHAR 01D5
ENCODING 469
SWIDTH 432 0
DWIDTH 6 0
BBX 7 12 1 0
BITMAP
1C
00
14
00
42
44
44
44
84
8C
88
70
ENDCHAR
STARTCHAR 01D6
ENCODING 470
SWIDTH 432 0
DWIDTH 6 0
BBX 6 10 1 0
BITMAP
1C
24
24
00
44
44
C8
88
88
78
ENDCHAR
STARTCHAR 01D7
ENCODING 471
SWIDTH 432 0
DWIDTH 6 0
BBX 7 11 1 1
BITMAP
08
22
22
42
44
44
44
84
8C
88
70
ENDCHAR
STARTCHAR 01D8
ENCODING 472
SWIDTH 432 0
DWIDTH 6 0
BBX 6 10 1 1
BITMAP
08
24
24
00
44
44
C8
88
88
78
ENDCHAR
STARTCHAR 01D9
ENCODING 473
SWIDTH 432 0
DWIDTH 6 0
BBX 7 11 1 1
BITMAP
08
22
22
42
44
44
44
84
8C
88
70
ENDCHAR
STARTCHAR 01DA
ENCODING 474
SWIDTH 432 0
DWIDTH 6 0
BBX 6 10 1 0
BITMAP
18
24
24
00
44
44
C8
88
88
78
ENDCHAR
STARTCHAR 01DB
ENCODING 475
SWIDTH 432 0
DWIDTH 6 0
BBX 7 11 1 1
BITMAP
08
22
22
42
44
44
44
84
8C
88
70
ENDCHAR
STARTCHAR 01DC
ENCODING 476
SWIDTH 432 0
DWIDTH 6 0
BBX 6 10 1 1
BITMAP
10
24
24
00
44
44
C8
88
88
78
ENDCHAR
STARTCHAR 01DD
ENCODING 477
SWIDTH 432 0
DWIDTH 6 0
BBX 6 7 1 0
BITMAP
30
4C
04
3C
C4
88
F0
ENDCHAR
STARTCHAR 01DE
ENCODING 478
SWIDTH 432 0
DWIDTH 6 0
BBX 7 12 0 0
BITMAP
0E
00
1A
00
0C
14
14
24
24
7C
44
84
ENDCHAR
STARTCHAR 01DF
ENCODING 479
SWIDTH 432 0
DWIDTH 6 0
BBX 6 10 1 0
BITMAP
1C
04
24
08
74
44
88
88
88
F8
ENDCHAR
STARTCHAR 01E0
ENCODING 480
SWIDTH 432 0
DWIDTH 6 0
BBX 7 12 0 0
BITMAP
0E
00
04
00
0C
14
14
24
24
7C
44
84
ENDCHAR
STARTCHAR 01E1
ENCODING 481
SWIDTH 432 0
DWIDTH 6 0
BBX 6 10 1 0
BITMAP
1C
08
08
08
74
44
88
88
88
F8
ENDCHAR
STARTCHAR 01E2
ENCODING 482
SWIDTH 432 0
DWIDTH 6 0
BBX 9 11 0 0
BITMAP
0780
0000
0700
0C00
0C00
1400
2600
2800
7800
4800
8E00
ENDCHAR
STARTCHAR 01E3
ENCODING 483
SWIDTH 432 0
DWIDTH 6 0
BBX 7 9 1 0
BITMAP
1C
00
64
3E
14
7C
B0
B0
D8
ENDCHAR
STARTCHAR 01E4
ENCODING 484
SWIDTH 432 0
DWIDTH 6 0
BBX 6 9 1 0
BITMAP
1C
20
40
40
84
88
9C
C8
78
ENDCHAR
STARTCHAR 01E5
ENCODING 485
SWIDTH 432 0
DWIDTH 6 0
BBX 7 9 0 -2
BITMAP
04
1A
22
6E
44
6C
34
08
F8
ENDCHAR
STARTCHAR 01E6
ENCODING 486
SWIDTH 432 0
DWIDTH 6 0
BBX 6 11 1 1
BITMAP
0C
00
1C
20
40
40
80
84
8C
C8
78
ENDCHAR
STARTCHAR 01E7
ENCODING 487
SWIDTH 432 0
DWIDTH 6 0
BBX 7 11 0 -1
BITMAP
06
04
06
1A
22
62
44
64
3C
0C
F8
ENDCHAR
STARTCHAR 01E8
ENCODING 488
SWIDTH 432 0
DWIDTH 6 0
BBX 7 11 1 1
BITMAP
14
08
22
64
48
50
60
F0
90
88
88
ENDCHAR
STARTCHAR 01E9
ENCODING 489
SWIDTH 432 0
DWIDTH 6 0
BBX 6 11 1 1
BITMAP
18
00
20
20
60
4C
50
60
D0
98
88
ENDCHAR
STARTCHAR 01EA
ENCODING 490
SWIDTH 432 0
DWIDTH 6 0
BBX 6 11 1 -2
BITMAP
18
24
44
44
84
84
84
88
70
20
60
ENDCHAR
STARTCHAR 01EB
ENCODING 491
SWIDTH 432 0
DWIDTH 6 0
BBX 6 9 1 -2
BITMAP
18
6C
44
84
84
88
70
20
60
ENDCHAR
STARTCHAR 01EC
ENCODING 492
SWIDTH 432 0
DWIDTH 6 0
BBX 6 13 1 -2
BITMAP
1C
00
18
24
44
44
84
84
84
88
70
20
60
ENDCHAR
STARTCHAR 01ED
ENCODING 493
SWIDTH 432 0
DWIDTH 6 0
BBX 6 11 1 -2
BITMAP
1C
00
18
6C
44
84
84
88
70
20
60
ENDCHAR
STARTCHAR 01EE
ENCODING 494
SWIDTH 432 0
DWIDTH 6 0
BBX 7 11 1 1
BITMAP
1C
08
3E
04
08
10
38
0C
04
08
F0
ENDCHAR
STARTCHAR 01EF
ENCODING 495
SWIDTH 432 0
DWIDTH 6 0
BBX 6 11 1 -1
BITMAP
18
00
00
7C
08
10
30
08
08
18
F0
ENDCHAR
STARTCHAR 01F0
ENCODING 496
SWIDTH 432 0
DWIDTH 6 0
BBX 7 11 0 -1
BITMAP
06
04
00
1C
04
04
04
08
08
08
F0
ENDCHAR
STARTCHAR 01F1
ENCODING 497
SWIDTH 432 0
DWIDTH 6 0
BBX 9 9 0 0
BITMAP
3380
2900
2900
2A00
4A00
5C00
5400
5800
EE00
ENDCHAR
STARTCHAR 01F2
ENCODING 498
SWIDTH 432 0
DWIDTH 6 0
BBX 8 9 0 0
BITMAP
30
28
28
2B
4A
52
54
54
EE
ENDCHAR
STARTCHAR 01F3
ENCODING 499
SWIDTH 432 0
DWIDTH 6 0
BBX 8 10 0 0
BITMAP
04
08
08
18
6B
52
52
94
94
7E
ENDCHAR
STARTCHAR 01F4
ENCODING 500
SWIDTH 432 0
DWIDTH 6 0
BBX 6 11 1 1
BITMAP
0C
08
1C
20
40
40
80
84
8C
C8
78
ENDCHAR
STARTCHAR 01F5
ENCODING 501
SWIDTH 432 0
DWIDTH 6 0
BBX 7 12 0 -2
BITMAP
02
06
00
06
1A
22
62
44
64
3C
0C
F8
ENDCHAR
STARTCHAR 01F6
ENCODING 502
SWIDTH 432 0
DWIDTH 6 0
BBX 8 9 0 0
BITMAP
24
24
28
2B
7A
4A
52
56
9C
ENDCHAR
STARTCHAR 01F7
ENCODING 503
SWIDTH 432 0
DWIDTH 6 0
BBX 8 11 0 -2
BITMAP
0C
12
33
23
22
26
64
58
60
40
C0
ENDCHAR
STARTCHAR 01F8
ENCODING 504
SWIDTH 432 0
DWIDTH 6 0
BBX 7 11 1 1
BITMAP
18
08
22
62
62
54
54
94
94
88
88
ENDCHAR
STARTCHAR 01F9
ENCODING 505
SWIDTH 432 0
DWIDTH 6 0
BBX 6 10 1 0
BITMAP
10
10
08
10
6C
44
44
C8
88
88
ENDCHAR
STARTCHAR 01FA
ENCODING 506
SWIDTH 432 0
DWIDTH 6 0
BBX 7 12 0 0
BITMAP
02
04
0C
0C
0C
14
14
24
24
7C
46
86
ENDCHAR
STARTCHAR 01FB
ENCODING 507
SWIDTH 432 0
DWIDTH 6 0
BBX 6 11 1 0
BITMAP
0C
00
1C
08
08
74
44
88
88
88
F8
ENDCHAR
STARTCHAR 01FC
ENCODING 508
SWIDTH 432 0
DWIDTH 6 0
BBX 8 12 0 0
BITMAP
01
03
02
07
0C
0C
14
26
28
78
48
8E
ENDCHAR
STARTCHAR 01FD
ENCODING 509
SWIDTH 432 0
DWIDTH 6 0
BBX 7 9 1 1
BITMAP
0C
10
64
3E
14
7C
B0
B0
D8
ENDCHAR
STARTCHAR 01FE
ENCODING 510
SWIDTH 432 0
DWIDTH 6 0
BBX 7 11 1 1
BITMAP
08
10
1A
24
4C
4C
94
A4
CC
C8
F0
ENDCHAR
STARTCHAR 01FF
ENCODING 511
SWIDTH 432 0
DWIDTH 6 0
BBX 7 9 1 1
BITMAP
08
10
1A
6C
4C
94
A4
C8
F0
ENDCHAR
STARTCHAR 0200
ENCODING 512
SWIDTH 432 0
DWIDTH 6 0
BBX 7 11 0 1
BITMAP
1E
0A
0C
0C
14
14
24
24
7C
44
84
ENDCHAR
STARTCHAR 0201
ENCODING 513
SWIDTH 432 0
DWIDTH 6 0
BBX 6 9 1 1
BITMAP
28
14
08
74
44
88
88
88
F8
ENDCHAR
STARTCHAR 0202
ENCODING 514
SWIDTH 432 0
DWIDTH 6 0
BBX 7 11 0 0
BITMAP
0E
00
0C
0C
14
14
24
24
7C
44
84
ENDCHAR
STARTCHAR 0203
ENCODING 515
SWIDTH 432 0
DWIDTH 6 0
BBX 6 9 1 0
BITMAP
1C
00
08
74
44
88
88
88
F8
ENDCHAR
STARTCHAR 0204
ENCODING 516
SWIDTH 432 0
DWIDTH 6 0
BBX 7 11 1 1
BITMAP
14
14
3E
20
20
40
78
40
40
C0
F8
ENDCHAR
STARTCHAR 0205
ENCODING 517
SWIDTH 432 0
DWIDTH 6 0
BBX 6 9 1 1
BITMAP
28
14
18
6C
44
98
E0
80
78
ENDCHAR
STARTCHAR 0206
ENCODING 518
SWIDTH 432 0
DWIDTH 6 0
BBX 7 11 1 0
BITMAP
1C
00
3E
20
20
40
78
40
40
C0
F8
ENDCHAR
STARTCHAR 0207
ENCODING 519
SWIDTH 432 0
DWIDTH 6 0
BBX 6 9 1 0
BITMAP
1C
00
18
6C
44
98
E0
80
78
ENDCHAR
STARTCHAR 0208
ENCODING 520
SWIDTH 432 0
DWIDTH 6 0
BBX 6 11 1 1
BITMAP
3C
14
3C
18
10
10
10
30
20
20
F8
ENDCHAR
STARTCHAR 0209
ENCODING 521
SWIDTH 432 0
DWIDTH 6 0
BBX 4 9 2 1
BITMAP
50
40
00
E0
60
40
40
40
70
ENDCHAR
STARTCHAR 020A
ENCODING 522
SWIDTH 432 0
DWIDTH 6 0
BBX 6 11 1 0
BITMAP
1C
00
3C
18
10
10
10
30
20
20
F8
ENDCHAR
STARTCHAR 020B
ENCODING 523
SWIDTH 432 0
DWIDTH 6 0
BBX 4 9 2 0
BITMAP
70
00
00
E0
60
40
40
40
70
ENDCHAR
STARTCHAR 020C
ENCODING 524
SWIDTH 432 0
DWIDTH 6 0
BBX 6 11 1 1
BITMAP
34
14
18
24
44
44
84
84
84
88
70
ENDCHAR
STARTCHAR 020D
ENCODING 525
SWIDTH 432 0
DWIDTH 6 0
BBX 6 10 1 0
BITMAP
20
28
14
18
6C
44
84
84
88
70
ENDCHAR
STARTCHAR 020E
ENCODING 526
SWIDTH 432 0
DWIDTH 6 0
BBX 6 11 1 0
BITMAP
1C
00
18
24
44
44
84
84
84
88
70
ENDCHAR
STARTCHAR 020F
ENCODING 527
SWIDTH 432 0
DWIDTH 6 0
BBX 6 9 1 0
BITMAP
1C
00
18
6C
44
84
84
88
70
ENDCHAR
STARTCHAR 0210
ENCODING 528
SWIDTH 432 0
DWIDTH 6 0
BBX 6 11 1 1
BITMAP
28
14
38
64
44
44
4C
F0
98
88
88
ENDCHAR
STARTCHAR 0211
ENCODING 529
SWIDTH 432 0
DWIDTH 6 0
BBX 6 9 1 1
BITMAP
28
14
1C
24
40
40
40
40
80
ENDCHAR
STARTCHAR 0212
ENCODING 530
SWIDTH 432 0
DWIDTH 6 0
BBX 6 11 1 0
BITMAP
1C
00
38
64
44
44
4C
F0
98
88
88
ENDCHAR
STARTCHAR 0213
ENCODING 531
SWIDTH 432 0
DWIDTH 6 0
BBX 6 9 1 0
BITMAP
1C
00
1C
24
40
40
40
40
80
ENDCHAR
STARTCHAR 0214
ENCODING 532
SWIDTH 432 0
DWIDTH 6 0
BBX 7 11 1 1
BITMAP
3C
14
22
42
44
44
44
84
8C
88
70
ENDCHAR
STARTCHAR 0215
ENCODING 533
SWIDTH 432 0
DWIDTH 6 0
BBX 6 10 1 0
BITMAP
20
28
14
00
44
44
C8
88
88
78
ENDCHAR
STARTCHAR 0216
ENCODING 534
SWIDTH 432 0
DWIDTH 6 0
BBX 7 11 1 0
BITMAP
1C
00
22
42
44
44
44
84
8C
88
70
ENDCHAR
STARTCHAR 0217
ENCODING 535
SWIDTH 432 0
DWIDTH 6 0
BBX 6 9 1 0
BITMAP
1C
00
00
44
44
C8
88
88
78
ENDCHAR
STARTCHAR 0218
ENCODING 536
SWIDTH 432 0
DWIDTH 6 0
BBX 6 11 1 -2
BITMAP
1C
20
40
60
30
08
08
08
F8
00
40
ENDCHAR
STARTCHAR 0219
ENCODING 537
SWIDTH 432 0
DWIDTH 6 0
BBX 6 9 1 -2
BITMAP
18
24
40
30
08
08
F8
00
60
ENDCHAR
STARTCHAR 021A
ENCODING 538
SWIDTH 432 0
DWIDTH 6 0
BBX 6 11 2 -2
BITMAP
FC
30
20
20
20
60
40
40
40
00
80
ENDCHAR
STARTCHAR 021B
ENCODING 539
SWIDTH 432 0
DWIDTH 6 0
BBX 5 10 2 -2
BITMAP
20
20
F8
40
40
40
C0
70
00
40
ENDCHAR
STARTCHAR 021C
ENCODING 540
SWIDTH 432 0
DWIDTH 6 0
BBX 7 11 0 -2
BITMAP
1C
22
02
02
04
3C
04
04
04
0C
F8
ENDCHAR
STARTCHAR 021D
ENCODING 541
SWIDTH 432 0
DWIDTH 6 0
BBX 7 9 0 -2
BITMAP
18
26
02
04
38
04
04
0C
F0
ENDCHAR
STARTCHAR 021E
ENCODING 542
SWIDTH 432 0
DWIDTH 6 0
BBX 7 11 1 1
BITMAP
1C
08
22
42
46
44
7C
84
8C
88
88
ENDCHAR
STARTCHAR 021F
ENCODING 543
SWIDTH 432 0
DWIDTH 6 0
BBX 6 11 1 1
BITMAP
30
00
20
60
50
68
4C
C8
88
88
88
ENDCHAR
STARTCHAR 0220
ENCODING 544
SWIDTH 432 0
DWIDTH 6 0
BBX 7 11 1 -2
BITMAP
3C
44
46
44
44
84
8C
88
88
08
08
ENDCHAR
STARTCHAR 0221
ENCODING 545
SWIDTH 432 0
DWIDTH 6 0
BBX 6 11 1 -1
BITMAP
08
08
38
58
90
90
90
B0
FC
24
78
ENDCHAR
STARTCHAR 0222
ENCODING 546
SWIDTH 432 0
DWIDTH 6 0
BBX 6 9 1 0
BITMAP
24
24
64
6C
78
C4
84
8C
F8
ENDCHAR
STARTCHAR 0223
ENCODING 547
SWIDTH 432 0
DWIDTH 6 0
BBX 7 10 1 0
BITMAP
22
22
24
24
38
4C
84
84
88
70
ENDCHAR
STARTCHAR 0224
ENCODING 548
SWIDTH 432 0
DWIDTH 6 0
BBX 7 11 1 -2
BITMAP
3E
06
0C
18
10
20
40
80
F8
08
38
ENDCHAR
STARTCHAR 0225
ENCODING 549
SWIDTH 432 0
DWIDTH 6 0
BBX 6 8 1 -2
BITMAP
7C
18
30
60
40
F8
10
30
ENDCHAR
STARTCHAR 0226
ENCODING 550
SWIDTH 432 0
DWIDTH 6 0
BBX 6 11 0 0
BITMAP
04
00
0C
0C
14
14
24
24
7C
44
84
ENDCHAR
STARTCHAR 0227
ENCODING 551
SWIDTH 432 0
DWIDTH 6 0
BBX 6 9 1 0
BITMAP
08
00
08
74
44
88
88
88
F8
ENDCHAR
STARTCHAR 0228
ENCODING 552
SWIDTH 432 0
DWIDTH 6 0
BBX 7 11 1 -2
BITMAP
3E
20
40
40
78
40
80
80
F8
20
60
ENDCHAR
STARTCHAR 0229
ENCODING 553
SWIDTH 432 0
DWIDTH 6 0
BBX 6 9 1 -2
BITMAP
18
6C
44
98
E0
80
78
20
60
ENDCHAR
STARTCHAR 022A
ENCODING 554
SWIDTH 432 0
DWIDTH 6 0
BBX 7 12 1 0
BITMAP
1C
00
14
00
3C
44
46
C4
84
84
88
70
ENDCHAR
STARTCHAR 022B
ENCODING 555
SWIDTH 432 0
DWIDTH 6 0
BBX 6 10 1 0
BITMAP
1C
14
24
18
6C
44
84
84
88
70
ENDCHAR
STARTCHAR 022C
ENCODING 556
SWIDTH 432 0
DWIDTH 6 0
BBX 7 12 1 0
BITMAP
1C
00
1C
00
3C
44
46
C4
84
84
88
70
ENDCHAR
STARTCHAR 022D
ENCODING 557
SWIDTH 432 0
DWIDTH 6 0
BBX 6 10 1 0
BITMAP
1C
10
0C
18
6C
44
84
84
88
70
ENDCHAR
STARTCHAR 022E
ENCODING 558
SWIDTH 432 0
DWIDTH 6 0
BBX 6 11 1 0
BITMAP
0C
00
18
24
44
44
84
84
84
88
70
ENDCHAR
STARTCHAR 022F
ENCODING 559
SWIDTH 432 0
DWIDTH 6 0
BBX 6 9 1 0
BITMAP
08
00
18
6C
44
84
84
88
70
ENDCHAR
STARTCHAR 0230
ENCODING 560
SWIDTH 432 0
DWIDTH 6 0
BBX 7 12 1 0
BITMAP
1E
00
08
00
3C
44
46
C4
84
84
88
70
ENDCHAR
STARTCHAR 0231
ENCODING 561
SWIDTH 432 0
DWIDTH 6 0
BBX 6 10 1 0
BITMAP
1C
08
08
18
6C
44
84
84
88
70
ENDCHAR
STARTCHAR 0232
ENCODING 562
SWIDTH 432 0
DWIDTH 6 0
BBX 7 11 2 0
BITMAP
3C
00
86
84
C8
50
50
60
40
40
40
ENDCHAR
STARTCHAR 0233
ENCODING 563
SWIDTH 432 0
DWIDTH 6 0
BBX 7 11 0 -2
BITMAP
1E
00
00
22
22
24
34
18
18
10
E0
ENDCHAR
STARTCHAR 0234
ENCODING 564
SWIDTH 432 0
DWIDTH 6 0
BBX 5 12 1 -2
BITMAP
38
10
10
10
10
30
20
20
20
78
48
F8
ENDCHAR
STARTCHAR 0235
ENCODING 565
SWIDTH 432 0
DWIDTH 6 0
BBX 7 9 0 -2
BITMAP
10
28
48
48
48
58
DE
12
3C
ENDCHAR
STARTCHAR 0236
ENCODING 566
SWIDTH 432 0
DWIDTH 6 0
BBX 6 10 1 -2
BITMAP
10
10
7C
20
20
20
60
78
48
F0
ENDCHAR
STARTCHAR 0237
ENCODING 567
SWIDTH 432 0
DWIDTH 6 0
BBX 6 8 0 -2
BITMAP
1C
04
04
04
08
08
08
F0
ENDCHAR
STARTCHAR 0238
ENCODING 568
SWIDTH 432 0
DWIDTH 6 0
BBX 6 10 1 0
BITMAP
08
08
08
34
5C
94
94
A4
AC
F8
ENDCHAR
STARTCHAR 0239
ENCODING 569
SWIDTH 432 0
DWIDTH 6 0
BBX 6 9 1 -2
BITMAP
28
54
94
94
A4
AC
F8
20
40
ENDCHAR
STARTCHAR 023A
ENCODING 570
SWIDTH 432 0
DWIDTH 6 0
BBX 7 10 0 0
BITMAP
06
0E
14
14
2C
2C
7E
56
A6
20
ENDCHAR
STARTCHAR 023B
ENCODING 571
SWIDTH 432 0
DWIDTH 6 0
BBX 7 10 1 0
BITMAP
0E
36
68
48
D0
90
A0
E0
78
40
ENDCHAR
STARTCHAR 023C
ENCODING 572
SWIDTH 432 0
DWIDTH 6 0
BBX 6 9 1 -1
BITMAP
04
1C
6C
48
90
A0
A0
78
40
ENDCHAR
STARTCHAR 023D
ENCODING 573
SWIDTH 432 0
DWIDTH 6 0
BBX 5 9 1 0
BITMAP
20
20
20
20
F0
40
40
40
F8
ENDCHAR
STARTCHAR 023E
ENCODING 574
SWIDTH 432 0
DWIDTH 6 0
BBX 8 9 1 0
BITMAP
7F
1A
14
18
10
30
60
60
A0
ENDCHAR
STARTCHAR 023F
ENCODING 575
SWIDTH 432 0
DWIDTH 6 0
BBX 6 9 1 -2
BITMAP
18
24
40
30
08
08
F8
40
30
ENDCHAR
STARTCHAR 0240
ENCODING 576
SWIDTH 432 0
DWIDTH 6 0
BBX 6 8 1 -2
BITMAP
7C
18
30
60
40
C0
60
38
ENDCHAR
STARTCHAR 0241
ENCODING 577
SWIDTH 432 0
DWIDTH 6 0
BBX 5 9 2 0
BITMAP
70
08
08
18
30
40
C0
80
80
ENDCHAR
STARTCHAR 0242
ENCODING 578
SWIDTH 432 0
DWIDTH 6 0
BBX 5 7 2 0
BITMAP
70
18
08
30
40
C0
80
ENDCHAR
STARTCHAR 0243
ENCODING 579
SWIDTH 432 0
DWIDTH 6 0
BBX 6 9 1 0
BITMAP
38
24
24
44
78
44
E4
8C
F8
ENDCHAR
STARTCHAR 0244
ENCODING 580
SWIDTH 432 0
DWIDTH 6 0
BBX 7 9 1 0
BITMAP
22
26
44
44
FE
4C
C8
C8
70
ENDCHAR
STARTCHAR 0245
ENCODING 581
SWIDTH 432 0
DWIDTH 6 0
BBX 6 9 0 0
BITMAP
0C
0C
14
14
24
24
44
44
84
ENDCHAR
STARTCHAR 0246
ENCODING 582
SWIDTH 432 0
DWIDTH 6 0
BBX 7 10 1 -1
BITMAP
3E
22
44
48
7C
50
A0
A0
F8
C0
ENDCHAR
STARTCHAR 0247
ENCODING 583
SWIDTH 432 0
DWIDTH 6 0
BBX 6 9 1 -1
BITMAP
08
18
74
54
9C
E0
A0
78
40
ENDCHAR
STARTCHAR 0248
ENCODING 584
SWIDTH 432 0
DWIDTH 6 0
BBX 6 9 1 0
BITMAP
3C
04
04
04
1C
08
08
18
F0
ENDCHAR
STARTCHAR 0249
ENCODING 585
SWIDTH 432 0
DWIDTH 6 0
BBX 7 11 0 -2
BITMAP
06
04
00
3C
04
3E
08
08
08
08
F0
ENDCHAR
STARTCHAR 024A
ENCODING 586
SWIDTH 432 0
DWIDTH 6 0
BBX 6 11 1 -2
BITMAP
18
24
44
44
84
84
8C
88
78
08
0C
ENDCHAR
STARTCHAR 024B
ENCODING 587
SWIDTH 432 0
DWIDTH 6 0
BBX 6 9 1 -2
BITMAP
08
34
44
8C
88
88
78
18
18
ENDCHAR
STARTCHAR 024C
ENCODING 588
SWIDTH 432 0
DWIDTH 6 0
BBX 6 9 1 0
BITMAP
38
24
64
44
4C
F0
D8
88
88
ENDCHAR
STARTCHAR 024D
ENCODING 589
SWIDTH 432 0
DWIDTH 6 0
BBX 6 7 1 0
BITMAP
1C
24
40
40
F0
40
80
ENDCHAR
STARTCHAR 024E
ENCODING 590
SWIDTH 432 0
DWIDTH 6 0
BBX 8 9 1 0
BITMAP
43
42
FE
28
28
30
20
20
20
ENDCHAR
STARTCHAR 024F
ENCODING 591
SWIDTH 432 0
DWIDTH 6 0
BBX 7 8 0 -2
BITMAP
22
22
7E
34
18
18
10
E0
ENDCHAR
STARTCHAR 0292
ENCODING 658
SWIDTH 432 0
DWIDTH 6 0
BBX 6 8 1 -2
BITMAP
7C
08
10
30
08
08
18
F0
ENDCHAR
STARTCHAR 02BC
ENCODING 700
SWIDTH 432 0
DWIDTH 6 0
BBX 2 3 4 7
BITMAP
40
80
80
ENDCHAR
STARTCHAR 02C6
ENCODING 710
SWIDTH 432 0
DWIDTH 6 0
BBX 2 1 4 8
BITMAP
C0
ENDCHAR
STARTCHAR 02C7
ENCODING 711
SWIDTH 432 0
DWIDTH 6 0
BBX 2 1 4 8
BITMAP
C0
ENDCHAR
STARTCHAR 02C9
ENCODING 713
SWIDTH 432 0
DWIDTH 6 0
BBX 4 1 3 8
BITMAP
F0
ENDCHAR
STARTCHAR 02D8
ENCODING 728
SWIDTH 432 0
DWIDTH 6 0
BBX 3 1 4 8
BITMAP
E0
ENDCHAR
STARTCHAR 02D9
ENCODING 729
SWIDTH 432 0
DWIDTH 6 0
BBX 2 1 4 8
BITMAP
C0
ENDCHAR
STARTCHAR 02DA
ENCODING 730
SWIDTH 432 0
DWIDTH 6 0
BBX 2 3 4 7
BITMAP
C0
C0
C0
ENDCHAR
STARTCHAR 02DB
ENCODING 731
SWIDTH 432 0
DWIDTH 6 0
BBX 1 2 2 -2
BITMAP
80
80
ENDCHAR
STARTCHAR 02DC
ENCODING 732
SWIDTH 432 0
DWIDTH 6 0
BBX 4 1 3 8
BITMAP
F0
ENDCHAR
STARTCHAR 02DD
ENCODING 733
SWIDTH 432 0
DWIDTH 6 0
BBX 4 3 3 7
BITMAP
40
50
A0
ENDCHAR
STARTCHAR 0311
ENCODING 785
SWIDTH 432 0
DWIDTH 6 0
BBX 3 1 4 8
BITMAP
E0
ENDCHAR
STARTCHAR 0384
ENCODING 900
SWIDTH 432 0
DWIDTH 6 0
BBX 2 3 4 7
BITMAP
40
40
80
ENDCHAR
STARTCHAR 0385
ENCODING 901
SWIDTH 432 0
DWIDTH 6 0
BBX 5 3 3 7
BITMAP
20
B8
40
ENDCHAR
STARTCHAR 0386
ENCODING 902
SWIDTH 432 0
DWIDTH 6 0
BBX 7 9 0 0
BITMAP
04
2C
34
14
24
24
7E
46
86
ENDCHAR
STARTCHAR 0388
ENCODING 904
SWIDTH 432 0
DWIDTH 6 0
BBX 7 9 0 0
BITMAP
5E
70
A0
20
3C
60
40
40
7C
ENDCHAR
STARTCHAR 0389
ENCODING 905
SWIDTH 432 0
DWIDTH 6 0
BBX 8 9 0 0
BITMAP
51
A1
A3
22
3E
42
46
44
44
ENDCHAR
STARTCHAR 038A
ENCODING 906
SWIDTH 432 0
DWIDTH 6 0
BBX 7 9 0 0
BITMAP
5E
4C
88
08
08
18
10
10
7C
ENDCHAR
STARTCHAR 038C
ENCODING 908
SWIDTH 432 0
DWIDTH 6 0
BBX 7 9 0 0
BITMAP
4C
52
A2
22
42
42
46
44
38
ENDCHAR
STARTCHAR 038E
ENCODING 910
SWIDTH 432 0
DWIDTH 6 0
BBX 9 9 -1 0
BITMAP
5080
5080
9100
0A00
0E00
0C00
0800
0800
0800
ENDCHAR
STARTCHAR 038F
ENCODING 911
SWIDTH 432 0
DWIDTH 6 0
BBX 8 9 0 0
BITMAP
4C
52
A3
62
42
42
44
44
EC
ENDCHAR
STARTCHAR 0390
ENCODING 912
SWIDTH 432 0
DWIDTH 6 0
BBX 5 9 2 1
BITMAP
E8
20
00
E0
60
40
40
40
70
ENDCHAR
STARTCHAR 0391
ENCODING 913
SWIDTH 432 0
DWIDTH 6 0
BBX 6 9 0 0
BITMAP
0C
0C
14
14
24
24
7C
44
84
ENDCHAR
STARTCHAR 0392
ENCODING 914
SWIDTH 432 0
DWIDTH 6 0
BBX 6 9 1 0
BITMAP
38
64
44
44
78
CC
84
88
F0
ENDCHAR
STARTCHAR 0393
ENCODING 915
SWIDTH 432 0
DWIDTH 6 0
BBX 8 9 0 0
BITMAP
0F
18
10
10
10
30
20
20
F8
ENDCHAR
STARTCHAR 0394
ENCODING 916
SWIDTH 432 0
DWIDTH 6 0
BBX 6 9 0 0
BITMAP
0C
0C
14
14
24
24
44
44
FC
ENDCHAR
STARTCHAR 0395
ENCODING 917
SWIDTH 432 0
DWIDTH 6 0
BBX 7 9 1 0
BITMAP
3E
20
20
40
78
40
40
C0
F8
ENDCHAR
STARTCHAR 0396
ENCODING 918
SWIDTH 432 0
DWIDTH 6 0
BBX 7 9 1 0
BITMAP
3E
06
0C
18
10
20
40
80
F8
ENDCHAR
STARTCHAR 0397
ENCODING 919
SWIDTH 432 0
DWIDTH 6 0
BBX 7 9 1 0
BITMAP
22
42
46
44
7C
84
8C
88
88
ENDCHAR
STARTCHAR 0398
ENCODING 920
SWIDTH 432 0
DWIDTH 6 0
BBX 6 9 1 0
BITMAP
18
24
44
44
B4
84
84
88
70
ENDCHAR
STARTCHAR 0399
ENCODING 921
SWIDTH 432 0
DWIDTH 6 0
BBX 6 9 1 0
BITMAP
3C
18
10
10
10
30
20
20
F8
ENDCHAR
STARTCHAR 039A
ENCODING 922
SWIDTH 432 0
DWIDTH 6 0
BBX 7 9 1 0
BITMAP
22
64
48
50
60
F0
90
88
88
ENDCHAR
STARTCHAR 039B
ENCODING 923
SWIDTH 432 0
DWIDTH 6 0
BBX 6 9 0 0
BITMAP
0C
0C
14
14
24
24
44
44
84
ENDCHAR
STARTCHAR 039C
ENCODING 924
SWIDTH 432 0
DWIDTH 6 0
BBX 8 9 0 0
BITMAP
11
13
36
36
3A
4A
42
42
84
ENDCHAR
STARTCHAR 039D
ENCODING 925
SWIDTH 432 0
DWIDTH 6 0
BBX 7 9 1 0
BITMAP
22
62
62
54
54
94
94
88
88
ENDCHAR
STARTCHAR 039E
ENCODING 926
SWIDTH 432 0
DWIDTH 6 0
BBX 8 9 0 0
BITMAP
1F
00
00
00
3E
00
00
00
FC
ENDCHAR
STARTCHAR 039F
ENCODING 927
SWIDTH 432 0
DWIDTH 6 0
BBX 6 9 1 0
BITMAP
18
24
44
44
84
84
84
88
70
ENDCHAR
STARTCHAR 03A0
ENCODING 928
SWIDTH 432 0
DWIDTH 6 0
BBX 7 9 1 0
BITMAP
3E
42
46
44
44
84
8C
88
88
ENDCHAR
STARTCHAR 03A1
ENCODING 929
SWIDTH 432 0
DWIDTH 6 0
BBX 7 9 1 0
BITMAP
38
24
46
44
4C
70
80
80
80
ENDCHAR
STARTCHAR 03A3
ENCODING 931
SWIDTH 432 0
DWIDTH 6 0
BBX 8 9 0 0
BITMAP
3F
30
10
18
08
10
20
40
FC
ENDCHAR
STARTCHAR 03A4
ENCODING 932
SWIDTH 432 0
DWIDTH 6 0
BBX 6 9 2 0
BITMAP
FC
30
20
20
20
60
40
40
40
ENDCHAR
STARTCHAR 03A5
ENCODING 933
SWIDTH 432 0
DWIDTH 6 0
BBX 7 9 2 0
BITMAP
86
84
C8
50
50
60
40
40
40
ENDCHAR
STARTCHAR 03A6
ENCODING 934
SWIDTH 432 0
DWIDTH 6 0
BBX 6 9 1 0
BITMAP
08
3C
54
54
94
94
E8
70
20
ENDCHAR
STARTCHAR 03A7
ENCODING 935
SWIDTH 432 0
DWIDTH 6 0
BBX 7 9 1 0
BITMAP
62
26
24
18
10
38
68
C8
88
ENDCHAR
STARTCHAR 03A8
ENCODING 936
SWIDTH 432 0
DWIDTH 6 0
BBX 7 9 1 0
BITMAP
42
42
52
54
D4
FC
78
20
20
ENDCHAR
STARTCHAR 03A9
ENCODING 937
SWIDTH 432 0
DWIDTH 6 0
BBX 8 9 0 0
BITMAP
0C
12
23
62
42
42
44
44
EC
ENDCHAR
STARTCHAR 03AA
ENCODING 938
SWIDTH 432 0
DWIDTH 6 0
BBX 6 11 1 0
BITMAP
14
00
3C
18
10
10
10
30
20
20
F8
ENDCHAR
STARTCHAR 03AB
ENCODING 939
SWIDTH 432 0
DWIDTH 6 0
BBX 7 11 2 0
BITMAP
28
00
86
84
C8
50
50
60
40
40
40
ENDCHAR
STARTCHAR 03AC
ENCODING 940
SWIDTH 432 0
DWIDTH 6 0
BBX 6 10 1 0
BITMAP
04
0C
08
08
34
44
88
88
88
7C
ENDCHAR
STARTCHAR 03AD
ENCODING 941
SWIDTH 432 0
DWIDTH 6 0
BBX 6 10 1 0
BITMAP
04
0C
08
18
64
40
30
C0
80
78
ENDCHAR
STARTCHAR 03AE
ENCODING 942
SWIDTH 432 0
DWIDTH 6 0
BBX 6 12 1 -2
BITMAP
04
0C
08
10
6C
44
44
C8
88
88
08
18
ENDCHAR
STARTCHAR 03AF
ENCODING 943
SWIDTH 432 0
DWIDTH 6 0
BBX 4 10 2 0
BITMAP
10
10
20
00
E0
60
40
40
40
70
ENDCHAR
STARTCHAR 03B0
ENCODING 944
SWIDTH 432 0
DWIDTH 6 0
BBX 7 10 1 0
BITMAP
08
2E
10
00
44
44
C8
88
88
70
ENDCHAR
STARTCHAR 03B1
ENCODING 945
SWIDTH 432 0
DWIDTH 6 0
BBX 6 7 1 0
BITMAP
08
34
44
88
88
88
7C
ENDCHAR
STARTCHAR 03B2
ENCODING 946
SWIDTH 432 0
DWIDTH 6 0
BBX 7 12 0 -2
BITMAP
04
1A
12
32
2C
24
22
62
44
78
40
C0
ENDCHAR
STARTCHAR 03B3
ENCODING 947
SWIDTH 432 0
DWIDTH 6 0
BBX 5 8 2 -2
BITMAP
88
88
90
B0
A0
C0
80
80
ENDCHAR
STARTCHAR 03B4
ENCODING 948
SWIDTH 432 0
DWIDTH 6 0
BBX 6 10 1 0
BITMAP
0C
30
20
10
38
44
C4
84
C8
78
ENDCHAR
STARTCHAR 03B5
ENCODING 949
SWIDTH 432 0
DWIDTH 6 0
BBX 6 7 1 0
BITMAP
18
64
40
30
C0
80
78
ENDCHAR
STARTCHAR 03B6
ENCODING 950
SWIDTH 432 0
DWIDTH 6 0
BBX 7 12 1 -2
BITMAP
3E
06
08
10
20
40
40
80
C0
70
08
18
ENDCHAR
STARTCHAR 03B7
ENCODING 951
SWIDTH 432 0
DWIDTH 6 0
BBX 6 9 1 -2
BITMAP
10
6C
44
44
C8
88
88
08
18
ENDCHAR
STARTCHAR 03B8
ENCODING 952
SWIDTH 432 0
DWIDTH 6 0
BBX 6 10 1 0
BITMAP
08
34
24
44
44
7C
C4
88
C8
70
ENDCHAR
STARTCHAR 03B9
ENCODING 953
SWIDTH 432 0
DWIDTH 6 0
BBX 4 6 2 0
BITMAP
E0
60
40
40
40
70
ENDCHAR
STARTCHAR 03BA
ENCODING 954
SWIDTH 432 0
DWIDTH 6 0
BBX 6 6 1 0
BITMAP
4C
50
60
D0
98
88
ENDCHAR
STARTCHAR 03BB
ENCODING 955
SWIDTH 432 0
DWIDTH 6 0
BBX 5 10 1 0
BITMAP
20
10
10
18
18
28
48
48
88
88
ENDCHAR
STARTCHAR 03BC
ENCODING 956
SWIDTH 432 0
DWIDTH 6 0
BBX 7 8 0 -2
BITMAP
22
26
64
44
44
7E
C0
80
ENDCHAR
STARTCHAR 03BD
ENCODING 957
SWIDTH 432 0
DWIDTH 6 0
BBX 5 6 2 0
BITMAP
88
98
90
A0
A0
40
ENDCHAR
STARTCHAR 03BE
ENCODING 958
SWIDTH 432 0
DWIDTH 6 0
BBX 6 12 1 -2
BITMAP
0C
30
20
20
3C
60
40
80
C0
70
08
18
ENDCHAR
STARTCHAR 03BF
ENCODING 959
SWIDTH 432 0
DWIDTH 6 0
BBX 6 7 1 0
BITMAP
18
6C
44
84
84
88
70
ENDCHAR
STARTCHAR 03C0
ENCODING 960
SWIDTH 432 0
DWIDTH 6 0
BBX 6 6 1 0
BITMAP
7C
44
4C
88
88
88
ENDCHAR
STARTCHAR 03C1
ENCODING 961
SWIDTH 432 0
DWIDTH 6 0
BBX 7 9 0 -2
BITMAP
08
36
22
22
62
44
78
40
C0
ENDCHAR
STARTCHAR 03C2
ENCODING 962
SWIDTH 432 0
DWIDTH 6 0
BBX 6 9 1 -2
BITMAP
1C
34
40
C0
80
C0
70
08
10
ENDCHAR
STARTCHAR 03C3
ENCODING 963
SWIDTH 432 0
DWIDTH 6 0
BBX 7 6 1 0
BITMAP
7E
44
84
8C
88
70
ENDCHAR
STARTCHAR 03C4
ENCODING 964
SWIDTH 432 0
DWIDTH 6 0
BBX 6 6 1 0
BITMAP
FC
20
20
60
40
38
ENDCHAR
STARTCHAR 03C5
ENCODING 965
SWIDTH 432 0
DWIDTH 6 0
BBX 6 6 1 0
BITMAP
44
44
C8
88
88
70
ENDCHAR
STARTCHAR 03C6
ENCODING 966
SWIDTH 432 0
DWIDTH 6 0
BBX 6 9 1 -2
BITMAP
10
7C
D4
94
A4
AC
78
20
40
ENDCHAR
STARTCHAR 03C7
ENCODING 967
SWIDTH 432 0
DWIDTH 6 0
BBX 6 6 1 0
BITMAP
6C
28
30
30
58
88
ENDCHAR
STARTCHAR 03C8
ENCODING 968
SWIDTH 432 0
DWIDTH 6 0
BBX 6 8 1 -2
BITMAP
44
94
94
A4
A8
F8
20
40
ENDCHAR
STARTCHAR 03C9
ENCODING 969
SWIDTH 432 0
DWIDTH 6 0
BBX 6 6 1 1
BITMAP
44
84
A4
A4
AC
D8
ENDCHAR
STARTCHAR 03CA
ENCODING 970
SWIDTH 432 0
DWIDTH 6 0
BBX 5 9 2 0
BITMAP
58
00
00
E0
60
40
40
40
70
ENDCHAR
STARTCHAR 03CB
ENCODING 971
SWIDTH 432 0
DWIDTH 6 0
BBX 6 9 1 0
BITMAP
3C
00
00
44
44
C8
88
88
70
ENDCHAR
STARTCHAR 03CC
ENCODING 972
SWIDTH 432 0
DWIDTH 6 0
BBX 6 10 1 0
BITMAP
04
0C
08
18
6C
44
84
84
88
70
ENDCHAR
STARTCHAR 03CD
ENCODING 973
SWIDTH 432 0
DWIDTH 6 0
BBX 6 9 1 1
BITMAP
08
10
00
44
44
C8
88
88
70
ENDCHAR
STARTCHAR 03CE
ENCODING 974
SWIDTH 432 0
DWIDTH 6 0
BBX 6 9 1 1
BITMAP
08
10
00
44
84
A4
A4
AC
D8
ENDCHAR
STARTCHAR 0400
ENCODING 1024
SWIDTH 432 0
DWIDTH 6 0
BBX 7 11 1 1
BITMAP
18
08
3E
20
20
40
78
40
40
C0
F8
ENDCHAR
STARTCHAR 0401
ENCODING 1025
SWIDTH 432 0
DWIDTH 6 0
BBX 7 11 1 0
BITMAP
16
00
3E
20
20
40
78
40
40
C0
F8
ENDCHAR
STARTCHAR 0402
ENCODING 1026
SWIDTH 432 0
DWIDTH 6 0
BBX 6 9 1 0
BITMAP
7C
20
20
20
7C
44
44
48
B8
ENDCHAR
STARTCHAR 0403
ENCODING 1027
SWIDTH 432 0
DWIDTH 6 0
BBX 8 11 0 1
BITMAP
03
04
0F
18
10
10
10
30
20
20
F8
ENDCHAR
STARTCHAR 0404
ENCODING 1028
SWIDTH 432 0
DWIDTH 6 0
BBX 7 9 1 0
BITMAP
1C
32
40
40
F8
80
80
C0
78
ENDCHAR
STARTCHAR 0405
ENCODING 1029
SWIDTH 432 0
DWIDTH 6 0
BBX 6 9 1 0
BITMAP
1C
20
40
60
30
08
08
08
F8
ENDCHAR
STARTCHAR 0406
ENCODING 1030
SWIDTH 432 0
DWIDTH 6 0
BBX 6 9 1 0
BITMAP
3C
18
10
10
10
30
20
20
F8
ENDCHAR
STARTCHAR 0407
ENCODING 1031
SWIDTH 432 0
DWIDTH 6 0
BBX 7 11 1 0
BITMAP
16
00
3C
18
10
10
10
30
20
20
F8
ENDCHAR
STARTCHAR 0408
ENCODING 1032
SWIDTH 432 0
DWIDTH 6 0
BBX 7 9 1 0
BITMAP
1E
04
04
04
04
08
08
08
F0
ENDCHAR
STARTCHAR 0409
ENCODING 1033
SWIDTH 432 0
DWIDTH 6 0
BBX 7 9 0 0
BITMAP
1C
14
14
18
2E
2A
2A
52
DC
ENDCHAR
STARTCHAR 040A
ENCODING 1034
SWIDTH 432 0
DWIDTH 6 0
BBX 7 9 0 0
BITMAP
24
24
24
28
7E
4A
4A
52
9C
ENDCHAR
STARTCHAR 040B
ENCODING 1035
SWIDTH 432 0
DWIDTH 6 0
BBX 6 9 1 0
BITMAP
7C
20
20
20
7C
44
4C
48
88
ENDCHAR
STARTCHAR 040C
ENCODING 1036
SWIDTH 432 0
DWIDTH 6 0
BBX 7 11 1 1
BITMAP
04
08
22
64
48
50
60
F0
90
88
88
ENDCHAR
STARTCHAR 040D
ENCODING 1037
SWIDTH 432 0
DWIDTH 6 0
BBX 7 11 1 1
BITMAP
18
08
22
46
4A
5C
54
A4
C4
C8
88
ENDCHAR
STARTCHAR 040E
ENCODING 1038
SWIDTH 432 0
DWIDTH 6 0
BBX 8 11 1 0
BITMAP
14
08
41
42
26
24
28
28
10
20
E0
ENDCHAR
STARTCHAR 040F
ENCODING 1039
SWIDTH 432 0
DWIDTH 6 0
BBX 7 11 1 -2
BITMAP
22
42
46
44
44
84
8C
88
F8
20
40
ENDCHAR
STARTCHAR 0410
ENCODING 1040
SWIDTH 432 0
DWIDTH 6 0
BBX 6 9 0 0
BITMAP
0C
0C
14
14
24
24
7C
44
84
ENDCHAR
STARTCHAR 0411
ENCODING 1041
SWIDTH 432 0
DWIDTH 6 0
BBX 6 9 1 0
BITMAP
3C
60
40
40
78
C4
84
88
F0
ENDCHAR
STARTCHAR 0412
ENCODING 1042
SWIDTH 432 0
DWIDTH 6 0
BBX 6 9 1 0
BITMAP
38
64
44
44
78
CC
84
88
F0
ENDCHAR
STARTCHAR 0413
ENCODING 1043
SWIDTH 432 0
DWIDTH 6 0
BBX 8 9 0 0
BITMAP
0F
18
10
10
10
30
20
20
F8
ENDCHAR
STARTCHAR 0414
ENCODING 1044
SWIDTH 432 0
DWIDTH 6 0
BBX 8 11 0 -2
BITMAP
0F
0B
1A
12
12
36
24
64
FC
84
84
ENDCHAR
STARTCHAR 0415
ENCODING 1045
SWIDTH 432 0
DWIDTH 6 0
BBX 7 9 1 0
BITMAP
3E
20
20
40
78
40
40
C0
F8
ENDCHAR
STARTCHAR 0416
ENCODING 1046
SWIDTH 432 0
DWIDTH 6 0
BBX 9 9 0 0
BITMAP
2580
2500
1A00
1C00
1C00
2C00
5400
5600
9200
ENDCHAR
STARTCHAR 0417
ENCODING 1047
SWIDTH 432 0
DWIDTH 6 0
BBX 7 9 0 0
BITMAP
1C
22
02
06
1C
06
02
04
F8
ENDCHAR
STARTCHAR 0418
ENCODING 1048
SWIDTH 432 0
DWIDTH 6 0
BBX 7 9 1 0
BITMAP
22
46
4A
5C
54
A4
C4
C8
88
ENDCHAR
STARTCHAR 0419
ENCODING 1049
SWIDTH 432 0
DWIDTH 6 0
BBX 7 11 1 0
BITMAP
16
08
22
46
4A
5C
54
A4
C4
C8
88
ENDCHAR
STARTCHAR 041A
ENCODING 1050
SWIDTH 432 0
DWIDTH 6 0
BBX 7 9 1 0
BITMAP
22
64
48
50
60
F0
90
88
88
ENDCHAR
STARTCHAR 041B
ENCODING 1051
SWIDTH 432 0
DWIDTH 6 0
BBX 8 9 0 0
BITMAP
0F
09
1B
12
12
12
26
64
C4
ENDCHAR
STARTCHAR 041C
ENCODING 1052
SWIDTH 432 0
DWIDTH 6 0
BBX 8 9 0 0
BITMAP
11
13
36
36
3A
4A
42
42
84
ENDCHAR
STARTCHAR 041D
ENCODING 1053
SWIDTH 432 0
DWIDTH 6 0
BBX 7 9 1 0
BITMAP
22
42
46
44
7C
84
8C
88
88
ENDCHAR
STARTCHAR 041E
ENCODING 1054
SWIDTH 432 0
DWIDTH 6 0
BBX 6 9 1 0
BITMAP
18
24
44
44
84
84
84
88
70
ENDCHAR
STARTCHAR 041F
ENCODING 1055
SWIDTH 432 0
DWIDTH 6 0
BBX 7 9 1 0
BITMAP
3E
42
46
44
44
84
8C
88
88
ENDCHAR
STARTCHAR 0420
ENCODING 1056
SWIDTH 432 0
DWIDTH 6 0
BBX 7 9 1 0
BITMAP
38
24
46
44
4C
70
80
80
80
ENDCHAR
STARTCHAR 0421
ENCODING 1057
SWIDTH 432 0
DWIDTH 6 0
BBX 7 9 1 0
BITMAP
1C
32
40
40
C0
80
80
C0
78
ENDCHAR
STARTCHAR 0422
ENCODING 1058
SWIDTH 432 0
DWIDTH 6 0
BBX 6 9 2 0
BITMAP
FC
30
20
20
20
60
40
40
40
ENDCHAR
STARTCHAR 0423
ENCODING 1059
SWIDTH 432 0
DWIDTH 6 0
BBX 8 9 1 0
BITMAP
41
42
26
24
28
28
10
20
E0
ENDCHAR
STARTCHAR 0424
ENCODING 1060
SWIDTH 432 0
DWIDTH 6 0
BBX 6 9 1 0
BITMAP
08
3C
54
54
94
94
E8
70
20
ENDCHAR
STARTCHAR 0425
ENCODING 1061
SWIDTH 432 0
DWIDTH 6 0
BBX 7 9 1 0
BITMAP
62
26
24
18
10
38
68
C8
88
ENDCHAR
STARTCHAR 0426
ENCODING 1062
SWIDTH 432 0
DWIDTH 6 0
BBX 7 11 1 -2
BITMAP
22
46
44
44
44
8C
88
88
F8
08
08
ENDCHAR
STARTCHAR 0427
ENCODING 1063
SWIDTH 432 0
DWIDTH 6 0
BBX 6 9 2 0
BITMAP
44
84
8C
88
88
F8
18
10
10
ENDCHAR
STARTCHAR 0428
ENCODING 1064
SWIDTH 432 0
DWIDTH 6 0
BBX 7 9 1 0
BITMAP
22
42
44
44
54
94
AC
A8
F8
ENDCHAR
STARTCHAR 0429
ENCODING 1065
SWIDTH 432 0
DWIDTH 6 0
BBX 7 11 1 -2
BITMAP
22
42
44
44
54
A4
A8
A8
F8
08
08
ENDCHAR
STARTCHAR 042A
ENCODING 1066
SWIDTH 432 0
DWIDTH 6 0
BBX 6 9 1 0
BITMAP
70
20
20
30
6C
44
44
48
F0
ENDCHAR
STARTCHAR 042B
ENCODING 1067
SWIDTH 432 0
DWIDTH 6 0
BBX 8 9 0 0
BITMAP
21
21
21
22
7A
4A
4A
5E
F4
ENDCHAR
STARTCHAR 042C
ENCODING 1068
SWIDTH 432 0
DWIDTH 6 0
BBX 6 9 1 0
BITMAP
20
60
40
40
7C
C4
84
8C
F8
ENDCHAR
STARTCHAR 042D
ENCODING 1069
SWIDTH 432 0
DWIDTH 6 0
BBX 6 9 1 0
BITMAP
38
04
04
04
3C
04
04
08
F0
ENDCHAR
STARTCHAR 042E
ENCODING 1070
SWIDTH 432 0
DWIDTH 6 0
BBX 8 9 0 0
BITMAP
26
2D
29
29
73
52
52
56
DC
ENDCHAR
STARTCHAR 042F
ENCODING 1071
SWIDTH 432 0
DWIDTH 6 0
BBX 7 9 1 0
BITMAP
0E
32
46
44
64
3C
4C
C8
88
ENDCHAR
STARTCHAR 0430
ENCODING 1072
SWIDTH 432 0
DWIDTH 6 0
BBX 6 7 1 0
BITMAP
08
74
44
88
88
88
F8
ENDCHAR
STARTCHAR 0431
ENCODING 1073
SWIDTH 432 0
DWIDTH 6 0
BBX 7 10 1 0
BITMAP
02
1E
20
40
7C
44
C4
84
C8
70
ENDCHAR
STARTCHAR 0432
ENCODING 1074
SWIDTH 432 0
DWIDTH 6 0
BBX 6 7 1 0
BITMAP
18
6C
4C
78
88
88
F8
ENDCHAR
STARTCHAR 0433
ENCODING 1075
SWIDTH 432 0
DWIDTH 6 0
BBX 6 7 1 0
BITMAP
30
4C
0C
38
C0
80
F8
ENDCHAR
STARTCHAR 0434
ENCODING 1076
SWIDTH 432 0
DWIDTH 6 0
BBX 6 10 1 0
BITMAP
30
08
04
04
7C
44
C4
8C
88
70
ENDCHAR
STARTCHAR 0435
ENCODING 1077
SWIDTH 432 0
DWIDTH 6 0
BBX 6 7 1 0
BITMAP
18
6C
44
98
E0
80
78
ENDCHAR
STARTCHAR 0436
ENCODING 1078
SWIDTH 432 0
DWIDTH 6 0
BBX 8 7 0 0
BITMAP
41
2A
2C
3C
34
54
D6
ENDCHAR
STARTCHAR 0437
ENCODING 1079
SWIDTH 432 0
DWIDTH 6 0
BBX 6 7 1 0
BITMAP
38
0C
04
38
08
08
F8
ENDCHAR
STARTCHAR 0438
ENCODING 1080
SWIDTH 432 0
DWIDTH 6 0
BBX 6 6 1 0
BITMAP
44
44
C8
88
88
78
ENDCHAR
STARTCHAR 0439
ENCODING 1081
SWIDTH 432 0
DWIDTH 6 0
BBX 6 9 1 0
BITMAP
24
18
00
44
44
C8
88
88
78
ENDCHAR
STARTCHAR 043A
ENCODING 1082
SWIDTH 432 0
DWIDTH 6 0
BBX 6 6 1 0
BITMAP
4C
50
60
D0
98
88
ENDCHAR
STARTCHAR 043B
ENCODING 1083
SWIDTH 432 0
DWIDTH 6 0
BBX 7 6 0 0
BITMAP
1E
12
16
24
64
C4
ENDCHAR
STARTCHAR 043C
ENCODING 1084
SWIDTH 432 0
DWIDTH 6 0
BBX 7 6 0 0
BITMAP
22
36
56
5A
52
C6
ENDCHAR
STARTCHAR 043D
ENCODING 1085
SWIDTH 432 0
DWIDTH 6 0
BBX 6 6 1 0
BITMAP
44
44
7C
88
88
88
ENDCHAR
STARTCHAR 043E
ENCODING 1086
SWIDTH 432 0
DWIDTH 6 0
BBX 6 7 1 0
BITMAP
18
6C
44
84
84
88
70
ENDCHAR
STARTCHAR 043F
ENCODING 1087
SWIDTH 432 0
DWIDTH 6 0
BBX 6 7 1 0
BITMAP
10
6C
44
44
C8
88
88
ENDCHAR
STARTCHAR 0440
ENCODING 1088
SWIDTH 432 0
DWIDTH 6 0
BBX 7 9 0 -2
BITMAP
08
36
22
22
66
44
78
40
C0
ENDCHAR
STARTCHAR 0441
ENCODING 1089
SWIDTH 432 0
DWIDTH 6 0
BBX 6 7 1 0
BITMAP
18
64
40
80
80
80
78
ENDCHAR
STARTCHAR 0442
ENCODING 1090
SWIDTH 432 0
DWIDTH 6 0
BBX 6 7 1 0
BITMAP
28
54
54
94
A4
88
88
ENDCHAR
STARTCHAR 0443
ENCODING 1091
SWIDTH 432 0
DWIDTH 6 0
BBX 7 8 0 -2
BITMAP
22
22
24
34
18
18
10
E0
ENDCHAR
STARTCHAR 0444
ENCODING 1092
SWIDTH 432 0
DWIDTH 6 0
BBX 6 12 1 -2
BITMAP
08
08
08
10
7C
D4
94
A4
AC
78
20
40
ENDCHAR
STARTCHAR 0445
ENCODING 1093
SWIDTH 432 0
DWIDTH 6 0
BBX 6 6 1 0
BITMAP
6C
28
30
30
58
88
ENDCHAR
STARTCHAR 0446
ENCODING 1094
SWIDTH 432 0
DWIDTH 6 0
BBX 6 8 1 -2
BITMAP
4C
48
C8
88
88
F8
08
08
ENDCHAR
STARTCHAR 0447
ENCODING 1095
SWIDTH 432 0
DWIDTH 6 0
BBX 6 6 1 0
BITMAP
44
44
CC
78
08
08
ENDCHAR
STARTCHAR 0448
ENCODING 1096
SWIDTH 432 0
DWIDTH 6 0
BBX 6 6 1 0
BITMAP
44
94
A4
A8
A8
F8
ENDCHAR
STARTCHAR 0449
ENCODING 1097
SWIDTH 432 0
DWIDTH 6 0
BBX 6 8 1 -2
BITMAP
44
94
A4
A8
A8
F4
04
0C
ENDCHAR
STARTCHAR 044A
ENCODING 1098
SWIDTH 432 0
DWIDTH 6 0
BBX 5 6 2 0
BITMAP
C0
40
F0
88
98
F0
ENDCHAR
STARTCHAR 044B
ENCODING 1099
SWIDTH 432 0
DWIDTH 6 0
BBX 7 6 0 0
BITMAP
22
62
7A
4A
4C
F4
ENDCHAR
STARTCHAR 044C
ENCODING 1100
SWIDTH 432 0
DWIDTH 6 0
BBX 6 6 1 0
BITMAP
40
40
78
44
8C
F8
ENDCHAR
STARTCHAR 044D
ENCODING 1101
SWIDTH 432 0
DWIDTH 6 0
BBX 6 7 1 0
BITMAP
30
4C
04
3C
04
08
F0
ENDCHAR
STARTCHAR 044E
ENCODING 1102
SWIDTH 432 0
DWIDTH 6 0
BBX 6 7 1 0
BITMAP
08
54
54
E4
A4
A4
B8
ENDCHAR
STARTCHAR 044F
ENCODING 1103
SWIDTH 432 0
DWIDTH 6 0
BBX 6 7 1 0
BITMAP
18
64
44
4C
38
48
88
ENDCHAR
STARTCHAR 0450
ENCODING 1104
SWIDTH 432 0
DWIDTH 6 0
BBX 6 9 1 1
BITMAP
18
08
18
6C
44
98
E0
80
78
ENDCHAR
STARTCHAR 0451
ENCODING 1105
SWIDTH 432 0
DWIDTH 6 0
BBX 6 9 1 0
BITMAP
14
00
18
6C
44
98
E0
80
78
ENDCHAR
STARTCHAR 0452
ENCODING 1106
SWIDTH 432 0
DWIDTH 6 0
BBX 6 12 1 -2
BITMAP
10
20
38
38
6C
44
44
48
C8
88
08
30
ENDCHAR
STARTCHAR 0453
ENCODING 1107
SWIDTH 432 0
DWIDTH 6 0
BBX 6 9 1 1
BITMAP
08
10
30
4C
0C
38
C0
80
F8
ENDCHAR
STARTCHAR 0454
ENCODING 1108
SWIDTH 432 0
DWIDTH 6 0
BBX 6 7 1 0
BITMAP
1C
64
40
F8
80
80
78
ENDCHAR
STARTCHAR 0455
ENCODING 1109
SWIDTH 432 0
DWIDTH 6 0
BBX 6 7 1 0
BITMAP
18
24
40
30
08
08
F8
ENDCHAR
STARTCHAR 0456
ENCODING 1110
SWIDTH 432 0
DWIDTH 6 0
BBX 4 9 2 0
BITMAP
30
20
00
E0
60
40
40
40
70
ENDCHAR
STARTCHAR 0457
ENCODING 1111
SWIDTH 432 0
DWIDTH 6 0
BBX 5 9 2 0
BITMAP
58
00
00
E0
60
40
40
40
70
ENDCHAR
STARTCHAR 0458
ENCODING 1112
SWIDTH 432 0
DWIDTH 6 0
BBX 7 11 0 -2
BITMAP
06
00
00
1C
04
04
04
08
08
08
F0
ENDCHAR
STARTCHAR 0459
ENCODING 1113
SWIDTH 432 0
DWIDTH 6 0
BBX 7 6 0 0
BITMAP
18
28
2E
2A
52
DC
ENDCHAR
STARTCHAR 045A
ENCODING 1114
SWIDTH 432 0
DWIDTH 6 0
BBX 6 6 1 0
BITMAP
50
50
FC
94
A4
B8
ENDCHAR
STARTCHAR 045B
ENCODING 1115
SWIDTH 432 0
DWIDTH 6 0
BBX 6 10 1 0
BITMAP
10
20
38
38
6C
44
44
48
C8
88
ENDCHAR
STARTCHAR 045C
ENCODING 1116
SWIDTH 432 0
DWIDTH 6 0
BBX 6 9 1 1
BITMAP
0C
10
00
4C
50
60
D0
98
88
ENDCHAR
STARTCHAR 045D
ENCODING 1117
SWIDTH 432 0
DWIDTH 6 0
BBX 6 9 1 1
BITMAP
10
08
00
44
44
C8
88
88
78
ENDCHAR
STARTCHAR 045E
ENCODING 1118
SWIDTH 432 0
DWIDTH 6 0
BBX 7 11 0 -2
BITMAP
12
0C
00
22
22
24
34
18
18
10
E0
ENDCHAR
STARTCHAR 045F
ENCODING 1119
SWIDTH 432 0
DWIDTH 6 0
BBX 6 8 1 -2
BITMAP
44
44
C8
88
88
78
00
60
ENDCHAR
STARTCHAR 0462
ENCODING 1122
SWIDTH 432 0
DWIDTH 6 0
BBX 6 9 1 0
BITMAP
30
78
20
20
7C
44
44
48
F0
ENDCHAR
STARTCHAR 0463
ENCODING 1123
SWIDTH 432 0
DWIDTH 6 0
BBX 7 7 0 0
BITMAP
10
68
48
4E
52
D2
9C
ENDCHAR
STARTCHAR 0472
ENCODING 1138
SWIDTH 432 0
DWIDTH 6 0
BBX 6 9 1 0
BITMAP
18
24
44
44
F4
8C
84
88
70
ENDCHAR
STARTCHAR 0473
ENCODING 1139
SWIDTH 432 0
DWIDTH 6 0
BBX 6 7 1 0
BITMAP
18
6C
44
F4
8C
88
70
ENDCHAR
STARTCHAR 0474
ENCODING 1140
SWIDTH 432 0
DWIDTH 6 0
BBX 6 9 2 0
BITMAP
84
88
98
90
90
A0
A0
C0
C0
ENDCHAR
STARTCHAR 0475
ENCODING 1141
SWIDTH 432 0
DWIDTH 6 0
BBX 6 7 2 0
BITMAP
0C
98
90
A0
A0
C0
C0
ENDCHAR
STARTCHAR 048A
ENCODING 1162
SWIDTH 432 0
DWIDTH 6 0
BBX 7 13 1 -2
BITMAP
14
08
26
44
4C
54
54
A8
C8
C8
88
08
10
ENDCHAR
STARTCHAR 048B
ENCODING 1163
SWIDTH 432 0
DWIDTH 6 0
BBX 6 11 1 -2
BITMAP
24
18
00
44
48
C8
88
88
78
08
10
ENDCHAR
STARTCHAR 048C
ENCODING 1164
SWIDTH 432 0
DWIDTH 6 0
BBX 6 9 1 0
BITMAP
20
78
20
60
58
4C
4C
C8
F0
ENDCHAR
STARTCHAR 048D
ENCODING 1165
SWIDTH 432 0
DWIDTH 6 0
BBX 6 7 1 0
BITMAP
60
F0
40
78
CC
88
F8
ENDCHAR
STARTCHAR 048E
ENCODING 1166
SWIDTH 432 0
DWIDTH 6 0
BBX 7 9 1 0
BITMAP
38
24
46
54
5C
78
88
80
80
ENDCHAR
STARTCHAR 048F
ENCODING 1167
SWIDTH 432 0
DWIDTH 6 0
BBX 7 9 0 -2
BITMAP
18
26
22
22
66
4C
78
48
C0
ENDCHAR
STARTCHAR 0490
ENCODING 1168
SWIDTH 432 0
DWIDTH 6 0
BBX 8 10 0 0
BITMAP
01
0F
10
10
10
10
20
20
20
F8
ENDCHAR
STARTCHAR 0491
ENCODING 1169
SWIDTH 432 0
DWIDTH 6 0
BBX 6 8 1 0
BITMAP
04
04
3C
60
40
40
40
C0
ENDCHAR
STARTCHAR 0492
ENCODING 1170
SWIDTH 432 0
DWIDTH 6 0
BBX 8 9 0 0
BITMAP
0F
18
10
10
3C
30
20
20
F8
ENDCHAR
STARTCHAR 0493
ENCODING 1171
SWIDTH 432 0
DWIDTH 6 0
BBX 6 7 1 0
BITMAP
38
4C
04
78
48
80
78
ENDCHAR
STARTCHAR 0494
ENCODING 1172
SWIDTH 432 0
DWIDTH 6 0
BBX 6 11 1 -2
BITMAP
3C
60
40
40
78
CC
8C
8C
88
18
70
ENDCHAR
STARTCHAR 0495
ENCODING 1173
SWIDTH 432 0
DWIDTH 6 0
BBX 5 8 1 -2
BITMAP
78
40
78
C8
88
88
08
70
ENDCHAR
STARTCHAR 0496
ENCODING 1174
SWIDTH 432 0
DWIDTH 6 0
BBX 9 11 0 -2
BITMAP
2580
2500
1A00
1C00
1C00
2C00
5400
5400
9600
0200
0400
ENDCHAR
STARTCHAR 0497
ENCODING 1175
SWIDTH 432 0
DWIDTH 6 0
BBX 8 9 0 -2
BITMAP
41
2A
2C
3C
34
54
D6
02
02
ENDCHAR
STARTCHAR 0498
ENCODING 1176
SWIDTH 432 0
DWIDTH 6 0
BBX 7 11 0 -2
BITMAP
1C
22
02
06
1C
06
02
04
F8
20
30
ENDCHAR
STARTCHAR 0499
ENCODING 1177
SWIDTH 432 0
DWIDTH 6 0
BBX 6 9 1 -2
BITMAP
38
0C
04
38
08
08
F8
20
60
ENDCHAR
STARTCHAR 049A
ENCODING 1178
SWIDTH 432 0
DWIDTH 6 0
BBX 7 11 1 -2
BITMAP
22
64
48
50
60
F0
90
98
88
08
08
ENDCHAR
STARTCHAR 049B
ENCODING 1179
SWIDTH 432 0
DWIDTH 6 0
BBX 6 8 1 -2
BITMAP
4C
50
60
F0
90
88
08
08
ENDCHAR
STARTCHAR 049C
ENCODING 1180
SWIDTH 432 0
DWIDTH 6 0
BBX 8 9 0 0
BITMAP
21
22
26
34
78
58
54
44
C4
ENDCHAR
STARTCHAR 049D
ENCODING 1181
SWIDTH 432 0
DWIDTH 6 0
BBX 6 6 1 0
BITMAP
4C
E8
F0
B0
88
88
ENDCHAR
STARTCHAR 049E
ENCODING 1182
SWIDTH 432 0
DWIDTH 6 0
BBX 7 9 1 0
BITMAP
22
64
68
50
60
50
D8
88
8C
ENDCHAR
STARTCHAR 049F
ENCODING 1183
SWIDTH 432 0
DWIDTH 6 0
BBX 6 7 1 0
BITMAP
60
EC
58
60
F0
98
88
ENDCHAR
STARTCHAR 04A0
ENCODING 1184
SWIDTH 432 0
DWIDTH 6 0
BBX 7 9 1 0
BITMAP
72
24
2C
38
70
50
58
48
C8
ENDCHAR
STARTCHAR 04A1
ENCODING 1185
SWIDTH 432 0
DWIDTH 6 0
BBX 6 6 1 0
BITMAP
6C
78
60
50
58
C8
ENDCHAR
STARTCHAR 04A2
ENCODING 1186
SWIDTH 432 0
DWIDTH 6 0
BBX 7 11 1 -2
BITMAP
22
42
44
44
7C
84
88
88
8C
08
08
ENDCHAR
STARTCHAR 04A3
ENCODING 1187
SWIDTH 432 0
DWIDTH 6 0
BBX 6 8 1 -2
BITMAP
44
44
78
88
88
88
08
08
ENDCHAR
STARTCHAR 04A4
ENCODING 1188
SWIDTH 432 0
DWIDTH 6 0
BBX 8 9 1 0
BITMAP
27
44
44
44
7C
88
88
88
98
ENDCHAR
STARTCHAR 04A5
ENCODING 1189
SWIDTH 432 0
DWIDTH 6 0
BBX 6 6 1 0
BITMAP
4C
48
F8
88
98
90
ENDCHAR
STARTCHAR 04A6
ENCODING 1190
SWIDTH 432 0
DWIDTH 6 0
BBX 6 11 1 -2
BITMAP
78
50
50
50
DC
A4
A4
A4
AC
08
10
ENDCHAR
STARTCHAR 04A7
ENCODING 1191
SWIDTH 432 0
DWIDTH 6 0
BBX 7 9 0 -2
BITMAP
10
28
48
4E
5A
52
92
04
0C
ENDCHAR
STARTCHAR 04A8
ENCODING 1192
SWIDTH 432 0
DWIDTH 6 0
BBX 6 11 1 -2
BITMAP
1C
20
40
DC
A4
A4
A4
A8
70
20
18
ENDCHAR
STARTCHAR 04A9
ENCODING 1193
SWIDTH 432 0
DWIDTH 6 0
BBX 6 9 1 -2
BITMAP
18
60
D8
B4
A4
A8
78
30
18
ENDCHAR
STARTCHAR 04AA
ENCODING 1194
SWIDTH 432 0
DWIDTH 6 0
BBX 7 11 1 -2
BITMAP
1C
32
40
40
C0
80
80
C0
78
20
60
ENDCHAR
STARTCHAR 04AB
ENCODING 1195
SWIDTH 432 0
DWIDTH 6 0
BBX 6 9 1 -2
BITMAP
18
64
40
80
80
80
78
20
60
ENDCHAR
STARTCHAR 04AC
ENCODING 1196
SWIDTH 432 0
DWIDTH 6 0
BBX 6 11 2 -2
BITMAP
FC
30
20
20
20
60
40
40
40
40
40
ENDCHAR
STARTCHAR 04AD
ENCODING 1197
SWIDTH 432 0
DWIDTH 6 0
BBX 6 9 1 -2
BITMAP
28
54
54
94
A4
88
8C
08
08
ENDCHAR
STARTCHAR 04AE
ENCODING 1198
SWIDTH 432 0
DWIDTH 6 0
BBX 7 9 2 0
BITMAP
86
84
C8
50
50
60
40
40
40
ENDCHAR
STARTCHAR 04AF
ENCODING 1199
SWIDTH 432 0
DWIDTH 6 0
BBX 5 8 2 -2
BITMAP
88
98
90
A0
A0
40
C0
80
ENDCHAR
STARTCHAR 04B0
ENCODING 1200
SWIDTH 432 0
DWIDTH 6 0
BBX 7 9 2 0
BITMAP
86
84
48
50
70
F0
40
40
40
ENDCHAR
STARTCHAR 04B1
ENCODING 1201
SWIDTH 432 0
DWIDTH 6 0
BBX 6 8 1 -2
BITMAP
44
4C
48
50
50
F8
60
40
ENDCHAR
STARTCHAR 04B2
ENCODING 1202
SWIDTH 432 0
DWIDTH 6 0
BBX 7 11 1 -2
BITMAP
62
24
2C
38
10
30
58
C8
88
08
08
ENDCHAR
STARTCHAR 04B3
ENCODING 1203
SWIDTH 432 0
DWIDTH 6 0
BBX 6 8 1 -2
BITMAP
6C
38
30
30
50
88
08
08
ENDCHAR
STARTCHAR 04B4
ENCODING 1204
SWIDTH 432 0
DWIDTH 6 0
BBX 7 11 1 -2
BITMAP
7A
26
24
64
44
4C
48
48
F8
08
08
ENDCHAR
STARTCHAR 04B5
ENCODING 1205
SWIDTH 432 0
DWIDTH 6 0
BBX 6 8 1 -2
BITMAP
F4
44
48
48
C8
7C
08
08
ENDCHAR
STARTCHAR 04B6
ENCODING 1206
SWIDTH 432 0
DWIDTH 6 0
BBX 6 11 2 -2
BITMAP
44
8C
88
88
88
F8
10
10
10
10
10
ENDCHAR
STARTCHAR 04B7
ENCODING 1207
SWIDTH 432 0
DWIDTH 6 0
BBX 5 8 2 -2
BITMAP
88
88
90
F0
10
10
10
10
ENDCHAR
STARTCHAR 04B8
ENCODING 1208
SWIDTH 432 0
DWIDTH 6 0
BBX 6 9 2 0
BITMAP
44
84
8C
A8
A8
F8
58
50
10
ENDCHAR
STARTCHAR 04B9
ENCODING 1209
SWIDTH 432 0
DWIDTH 6 0
BBX 6 6 1 0
BITMAP
44
44
EC
78
28
08
ENDCHAR
STARTCHAR 04BA
ENCODING 1210
SWIDTH 432 0
DWIDTH 6 0
BBX 6 9 1 0
BITMAP
20
60
40
78
4C
C4
84
88
88
ENDCHAR
STARTCHAR 04BB
ENCODING 1211
SWIDTH 432 0
DWIDTH 6 0
BBX 6 10 1 0
BITMAP
20
20
60
50
68
4C
C8
88
88
88
ENDCHAR
STARTCHAR 04BC
ENCODING 1212
SWIDTH 432 0
DWIDTH 6 0
BBX 7 9 1 0
BITMAP
0C
12
B2
A2
7E
20
20
20
38
ENDCHAR
STARTCHAR 04BD
ENCODING 1213
SWIDTH 432 0
DWIDTH 6 0
BBX 6 7 1 0
BITMAP
08
34
A4
EC
50
40
38
ENDCHAR
STARTCHAR 04BE
ENCODING 1214
SWIDTH 432 0
DWIDTH 6 0
BBX 7 11 1 -2
BITMAP
0C
12
B2
A2
7E
20
20
20
38
10
10
ENDCHAR
STARTCHAR 04BF
ENCODING 1215
SWIDTH 432 0
DWIDTH 6 0
BBX 6 9 1 -2
BITMAP
08
34
A4
EC
50
40
38
10
30
ENDCHAR
STARTCHAR 04C0
ENCODING 1216
SWIDTH 432 0
DWIDTH 6 0
BBX 6 9 1 0
BITMAP
3C
18
10
10
10
30
20
20
F8
ENDCHAR
STARTCHAR 04C1
ENCODING 1217
SWIDTH 432 0
DWIDTH 6 0
BBX 9 11 0 0
BITMAP
0B00
0400
2580
2500
1A00
1C00
1C00
2C00
5400
5600
9200
ENDCHAR
STARTCHAR 04C2
ENCODING 1218
SWIDTH 432 0
DWIDTH 6 0
BBX 8 9 0 0
BITMAP
0A
04
41
2A
2C
3C
34
54
D6
ENDCHAR
STARTCHAR 04C3
ENCODING 1219
SWIDTH 432 0
DWIDTH 6 0
BBX 7 11 1 -2
BITMAP
22
64
48
50
70
C8
8C
8C
88
08
70
ENDCHAR
STARTCHAR 04C4
ENCODING 1220
SWIDTH 432 0
DWIDTH 6 0
BBX 6 8 1 -2
BITMAP
4C
50
70
C8
88
88
08
30
ENDCHAR
STARTCHAR 04C5
ENCODING 1221
SWIDTH 432 0
DWIDTH 6 0
BBX 8 11 0 -2
BITMAP
0F
0A
1A
12
12
14
24
64
C4
04
08
ENDCHAR
STARTCHAR 04C6
ENCODING 1222
SWIDTH 432 0
DWIDTH 6 0
BBX 7 8 0 -2
BITMAP
1E
16
14
24
64
CC
04
08
ENDCHAR
STARTCHAR 04C7
ENCODING 1223
SWIDTH 432 0
DWIDTH 6 0
BBX 7 11 1 -2
BITMAP
22
42
46
44
7C
84
8C
88
88
08
30
ENDCHAR
STARTCHAR 04C8
ENCODING 1224
SWIDTH 432 0
DWIDTH 6 0
BBX 6 8 1 -2
BITMAP
44
44
7C
88
88
88
18
30
ENDCHAR
STARTCHAR 04C9
ENCODING 1225
SWIDTH 432 0
DWIDTH 6 0
BBX 7 11 1 -2
BITMAP
22
46
44
44
7C
8C
88
88
88
08
10
ENDCHAR
STARTCHAR 04CA
ENCODING 1226
SWIDTH 432 0
DWIDTH 6 0
BBX 6 8 1 -2
BITMAP
44
4C
78
88
88
98
08
10
ENDCHAR
STARTCHAR 04CB
ENCODING 1227
SWIDTH 432 0
DWIDTH 6 0
BBX 6 11 2 -2
BITMAP
44
84
8C
88
88
F8
18
10
30
20
20
ENDCHAR
STARTCHAR 04CC
ENCODING 1228
SWIDTH 432 0
DWIDTH 6 0
BBX 6 8 1 -2
BITMAP
44
44
CC
78
08
18
10
10
ENDCHAR
STARTCHAR 04CD
ENCODING 1229
SWIDTH 432 0
DWIDTH 6 0
BBX 7 11 0 -2
BITMAP
12
32
36
3A
5A
52
44
44
86
04
0C
ENDCHAR
STARTCHAR 04CE
ENCODING 1230
SWIDTH 432 0
DWIDTH 6 0
BBX 7 8 0 -2
BITMAP
26
66
6A
5C
54
86
04
08
ENDCHAR
STARTCHAR 04CF
ENCODING 1231
SWIDTH 432 0
DWIDTH 6 0
BBX 6 9 1 0
BITMAP
3C
18
10
10
10
30
20
20
F8
ENDCHAR
STARTCHAR 04D0
ENCODING 1232
SWIDTH 432 0
DWIDTH 6 0
BBX 7 11 0 0
BITMAP
0A
04
0C
0C
14
14
24
24
7C
44
84
ENDCHAR
STARTCHAR 04D1
ENCODING 1233
SWIDTH 432 0
DWIDTH 6 0
BBX 6 9 1 0
BITMAP
14
08
08
74
44
88
88
88
F8
ENDCHAR
STARTCHAR 04D2
ENCODING 1234
SWIDTH 432 0
DWIDTH 6 0
BBX 7 11 0 0
BITMAP
0A
00
0C
0C
14
14
24
24
7C
44
84
ENDCHAR
STARTCHAR 04D3
ENCODING 1235
SWIDTH 432 0
DWIDTH 6 0
BBX 6 9 1 0
BITMAP
14
00
08
74
44
88
88
88
F8
ENDCHAR
STARTCHAR 04D4
ENCODING 1236
SWIDTH 432 0
DWIDTH 6 0
BBX 8 9 0 0
BITMAP
07
0C
0C
14
26
28
78
48
8E
ENDCHAR
STARTCHAR 04D5
ENCODING 1237
SWIDTH 432 0
DWIDTH 6 0
BBX 7 7 1 0
BITMAP
64
3E
14
7C
B0
B0
D8
ENDCHAR
STARTCHAR 04D6
ENCODING 1238
SWIDTH 432 0
DWIDTH 6 0
BBX 7 11 1 0
BITMAP
16
08
3E
20
20
40
78
40
40
C0
F8
ENDCHAR
STARTCHAR 04D7
ENCODING 1239
SWIDTH 432 0
DWIDTH 6 0
BBX 6 9 1 0
BITMAP
14
00
18
6C
44
98
E0
80
78
ENDCHAR
STARTCHAR 04D8
ENCODING 1240
SWIDTH 432 0
DWIDTH 6 0
BBX 6 9 1 0
BITMAP
38
04
04
04
FC
84
84
88
70
ENDCHAR
STARTCHAR 04D9
ENCODING 1241
SWIDTH 432 0
DWIDTH 6 0
BBX 6 7 1 0
BITMAP
30
4C
04
3C
C4
88
70
ENDCHAR
STARTCHAR 04DA
ENCODING 1242
SWIDTH 432 0
DWIDTH 6 0
BBX 6 11 1 0
BITMAP
14
00
38
04
04
04
FC
84
84
88
70
ENDCHAR
STARTCHAR 04DB
ENCODING 1243
SWIDTH 432 0
DWIDTH 6 0
BBX 6 9 1 0
BITMAP
34
00
30
4C
04
3C
C4
88
70
ENDCHAR
STARTCHAR 04DC
ENCODING 1244
SWIDTH 432 0
DWIDTH 6 0
BBX 9 11 0 0
BITMAP
0B00
0000
2580
2500
1A00
1C00
1C00
2C00
5400
5600
9200
ENDCHAR
STARTCHAR 04DD
ENCODING 1245
SWIDTH 432 0
DWIDTH 6 0
BBX 8 9 0 0
BITMAP
1A
00
41
2A
2C
3C
34
54
D6
ENDCHAR
STARTCHAR 04DE
ENCODING 1246
SWIDTH 432 0
DWIDTH 6 0
BBX 7 11 0 0
BITMAP
1A
00
1C
22
02
06
1C
06
02
04
F8
ENDCHAR
STARTCHAR 04DF
ENCODING 1247
SWIDTH 432 0
DWIDTH 6 0
BBX 6 9 1 0
BITMAP
34
00
38
0C
04
38
08
08
F8
ENDCHAR
STARTCHAR 04E0
ENCODING 1248
SWIDTH 432 0
DWIDTH 6 0
BBX 7 9 1 0
BITMAP
3E
04
08
10
38
0C
04
08
F0
ENDCHAR
STARTCHAR 04E1
ENCODING 1249
SWIDTH 432 0
DWIDTH 6 0
BBX 6 8 1 -2
BITMAP
7C
08
10
30
08
08
18
F0
ENDCHAR
STARTCHAR 04E2
ENCODING 1250
SWIDTH 432 0
DWIDTH 6 0
BBX 7 11 1 0
BITMAP
1C
00
22
46
4A
5C
54
A4
C4
C8
88
ENDCHAR
STARTCHAR 04E3
ENCODING 1251
SWIDTH 432 0
DWIDTH 6 0
BBX 6 9 1 0
BITMAP
3C
00
00
44
44
C8
88
88
78
ENDCHAR
STARTCHAR 04E4
ENCODING 1252
SWIDTH 432 0
DWIDTH 6 0
BBX 7 11 1 0
BITMAP
14
00
22
46
4A
5C
54
A4
C4
C8
88
ENDCHAR
STARTCHAR 04E5
ENCODING 1253
SWIDTH 432 0
DWIDTH 6 0
BBX 6 9 1 0
BITMAP
3C
00
00
44
44
C8
88
88
78
ENDCHAR
STARTCHAR 04E6
ENCODING 1254
SWIDTH 432 0
DWIDTH 6 0
BBX 6 11 1 0
BITMAP
14
00
18
24
44
44
84
84
84
88
70
ENDCHAR
STARTCHAR 04E7
ENCODING 1255
SWIDTH 432 0
DWIDTH 6 0
BBX 6 9 1 0
BITMAP
34
00
18
6C
44
84
84
88
70
ENDCHAR
STARTCHAR 04E8
ENCODING 1256
SWIDTH 432 0
DWIDTH 6 0
BBX 6 9 1 0
BITMAP
18
24
44
44
FC
84
84
88
70
ENDCHAR
STARTCHAR 04E9
ENCODING 1257
SWIDTH 432 0
DWIDTH 6 0
BBX 6 7 1 0
BITMAP
18
6C
44
FC
8C
88
70
ENDCHAR
STARTCHAR 04EA
ENCODING 1258
SWIDTH 432 0
DWIDTH 6 0
BBX 7 11 1 0
BITMAP
16
00
18
24
44
44
FC
84
84
88
70
ENDCHAR
STARTCHAR 04EB
ENCODING 1259
SWIDTH 432 0
DWIDTH 6 0
BBX 6 9 1 0
BITMAP
34
00
18
6C
44
FC
8C
88
70
ENDCHAR
STARTCHAR 04EC
ENCODING 1260
SWIDTH 432 0
DWIDTH 6 0
BBX 6 11 1 0
BITMAP
14
00
38
04
04
04
3C
04
04
08
F0
ENDCHAR
STARTCHAR 04ED
ENCODING 1261
SWIDTH 432 0
DWIDTH 6 0
BBX 6 9 1 0
BITMAP
34
00
30
4C
04
3C
04
08
F0
ENDCHAR
STARTCHAR 04EE
ENCODING 1262
SWIDTH 432 0
DWIDTH 6 0
BBX 8 11 1 0
BITMAP
1C
00
41
42
26
24
28
28
10
20
E0
ENDCHAR
STARTCHAR 04EF
ENCODING 1263
SWIDTH 432 0
DWIDTH 6 0
BBX 7 11 0 -2
BITMAP
1E
00
00
22
22
24
34
18
18
10
E0
ENDCHAR
STARTCHAR 04F0
ENCODING 1264
SWIDTH 432 0
DWIDTH 6 0
BBX 8 11 1 0
BITMAP
16
00
41
42
26
24
28
28
10
20
E0
ENDCHAR
STARTCHAR 04F1
ENCODING 1265
SWIDTH 432 0
DWIDTH 6 0
BBX 7 11 0 -2
BITMAP
16
00
00
22
22
24
34
18
18
10
E0
ENDCHAR
STARTCHAR 04F2
ENCODING 1266
SWIDTH 432 0
DWIDTH 6 0
BBX 8 11 1 1
BITMAP
0A
14
41
42
26
24
28
28
10
20
E0
ENDCHAR
STARTCHAR 04F3
ENCODING 1267
SWIDTH 432 0
DWIDTH 6 0
BBX 7 11 0 -1
BITMAP
0A
00
00
22
22
24
34
18
18
10
E0
ENDCHAR
STARTCHAR 04F4
ENCODING 1268
SWIDTH 432 0
DWIDTH 6 0
BBX 6 11 2 0
BITMAP
68
00
44
84
8C
88
88
F8
18
10
10
ENDCHAR
STARTCHAR 04F5
ENCODING 1269
SWIDTH 432 0
DWIDTH 6 0
BBX 6 9 1 0
BITMAP
34
00
00
44
44
CC
78
08
08
ENDCHAR
STARTCHAR 04F6
ENCODING 1270
SWIDTH 432 0
DWIDTH 6 0
BBX 8 11 0 -2
BITMAP
0F
18
10
10
10
30
20
20
F8
10
10
ENDCHAR
STARTCHAR 04F7
ENCODING 1271
SWIDTH 432 0
DWIDTH 6 0
BBX 6 9 1 -2
BITMAP
30
4C
0C
38
C0
80
F8
08
10
ENDCHAR
STARTCHAR 04F8
ENCODING 1272
SWIDTH 432 0
DWIDTH 6 0
BBX 8 11 0 0
BITMAP
1A
00
21
21
21
22
7A
4A
4A
5E
F4
ENDCHAR
STARTCHAR 04F9
ENCODING 1273
SWIDTH 432 0
DWIDTH 6 0
BBX 7 9 0 0
BITMAP
1A
00
00
22
62
7A
4A
4C
F4
ENDCHAR
STARTCHAR 1E80
ENCODING 7808
SWIDTH 432 0
DWIDTH 6 0
BBX 7 11 1 1
BITMAP
18
08
42
42
42
44
94
B4
D8
D8
88
ENDCHAR
STARTCHAR 1E81
ENCODING 7809
SWIDTH 432 0
DWIDTH 6 0
BBX 7 10 1 0
BITMAP
10
10
08
00
C2
94
B4
B4
D8
98
ENDCHAR
STARTCHAR 1E82
ENCODING 7810
SWIDTH 432 0
DWIDTH 6 0
BBX 7 11 1 1
BITMAP
04
08
42
42
42
44
94
B4
D8
D8
88
ENDCHAR
STARTCHAR 1E83
ENCODING 7811
SWIDTH 432 0
DWIDTH 6 0
BBX 7 9 1 1
BITMAP
08
10
00
C2
94
B4
B4
D8
98
ENDCHAR
STARTCHAR 1E84
ENCODING 7812
SWIDTH 432 0
DWIDTH 6 0
BBX 7 11 1 0
BITMAP
16
00
42
42
42
44
94
B4
D8
D8
88
ENDCHAR
STARTCHAR 1E85
ENCODING 7813
SWIDTH 432 0
DWIDTH 6 0
BBX 7 9 1 0
BITMAP
34
00
00
C2
94
B4
B4
D8
98
ENDCHAR
STARTCHAR 1EF2
ENCODING 7922
SWIDTH 432 0
DWIDTH 6 0
BBX 7 11 2 1
BITMAP
30
10
86
84
C8
50
50
60
40
40
40
ENDCHAR
STARTCHAR 1EF3
ENCODING 7923
SWIDTH 432 0
DWIDTH 6 0
BBX 7 11 0 -1
BITMAP
08
04
00
22
22
24
34
18
18
10
E0
ENDCHAR
STARTCHAR 1F00
ENCODING 7936
SWIDTH 432 0
DWIDTH 6 0
BBX 6 10 1 0
BITMAP
08
08
10
08
34
44
88
88
88
7C
ENDCHAR
STARTCHAR 1F01
ENCODING 7937
SWIDTH 432 0
DWIDTH 6 0
BBX 6 10 1 0
BITMAP
08
08
08
08
34
44
88
88
88
7C
ENDCHAR
STARTCHAR 1F02
ENCODING 7938
SWIDTH 432 0
DWIDTH 6 0
BBX 6 10 1 0
BITMAP
14
14
24
08
34
44
88
88
88
7C
ENDCHAR
STARTCHAR 1F03
ENCODING 7939
SWIDTH 432 0
DWIDTH 6 0
BBX 6 9 1 1
BITMAP
28
14
08
34
44
88
88
88
7C
ENDCHAR
STARTCHAR 1F04
ENCODING 7940
SWIDTH 432 0
DWIDTH 6 0
BBX 6 10 1 0
BITMAP
10
14
10
08
34
44
88
88
88
7C
ENDCHAR
STARTCHAR 1F05
ENCODING 7941
SWIDTH 432 0
DWIDTH 6 0
BBX 6 10 1 0
BITMAP
10
24
18
08
34
44
88
88
88
7C
ENDCHAR
STARTCHAR 1F06
ENCODING 7942
SWIDTH 432 0
DWIDTH 6 0
BBX 6 11 1 0
BITMAP
0C
10
08
10
08
34
44
88
88
88
7C
ENDCHAR
STARTCHAR 1F07
ENCODING 7943
SWIDTH 432 0
DWIDTH 6 0
BBX 6 11 1 0
BITMAP
0C
10
08
08
08
34
44
88
88
88
7C
ENDCHAR
STARTCHAR 1F08
ENCODING 7944
SWIDTH 432 0
DWIDTH 6 0
BBX 7 9 0 0
BITMAP
24
2C
14
14
24
24
7C
46
86
ENDCHAR
STARTCHAR 1F09
ENCODING 7945
SWIDTH 432 0
DWIDTH 6 0
BBX 7 9 0 0
BITMAP
24
4C
34
14
24
24
7C
46
86
ENDCHAR
STARTCHAR 1F0A
ENCODING 7946
SWIDTH 432 0
DWIDTH 6 0
BBX 8 9 -1 0
BITMAP
62
56
9A
0A
12
12
3E
23
43
ENDCHAR
STARTCHAR 1F0B
ENCODING 7947
SWIDTH 432 0
DWIDTH 6 0
BBX 8 9 -1 0
BITMAP
62
96
5A
0A
12
12
3E
23
43
ENDCHAR
STARTCHAR 1F0C
ENCODING 7948
SWIDTH 432 0
DWIDTH 6 0
BBX 7 9 0 0
BITMAP
84
AC
14
14
24
24
7C
46
86
ENDCHAR
STARTCHAR 1F0D
ENCODING 7949
SWIDTH 432 0
DWIDTH 6 0
BBX 7 9 0 0
BITMAP
84
AC
94
14
24
24
7C
46
86
ENDCHAR
STARTCHAR 1F0E
ENCODING 7950
SWIDTH 432 0
DWIDTH 6 0
BBX 7 10 0 0
BITMAP
20
54
6C
54
14
24
24
7C
46
86
ENDCHAR
STARTCHAR 1F0F
ENCODING 7951
SWIDTH 432 0
DWIDTH 6 0
BBX 7 10 0 0
BITMAP
20
54
6C
54
14
24
24
7C
46
86
ENDCHAR
STARTCHAR 1F10
ENCODING 7952
SWIDTH 432 0
DWIDTH 6 0
BBX 6 10 1 0
BITMAP
08
08
00
18
64
40
30
C0
80
78
ENDCHAR
STARTCHAR 1F11
ENCODING 7953
SWIDTH 432 0
DWIDTH 6 0
BBX 6 10 1 0
BITMAP
08
08
08
18
64
40
30
C0
80
78
ENDCHAR
STARTCHAR 1F12
ENCODING 7954
SWIDTH 432 0
DWIDTH 6 0
BBX 6 10 1 0
BITMAP
14
14
20
18
64
40
30
C0
80
78
ENDCHAR
STARTCHAR 1F13
ENCODING 7955
SWIDTH 432 0
DWIDTH 6 0
BBX 6 10 1 0
BITMAP
10
2C
14
18
64
40
30
C0
80
78
ENDCHAR
STARTCHAR 1F14
ENCODING 7956
SWIDTH 432 0
DWIDTH 6 0
BBX 6 10 1 0
BITMAP
08
0C
14
18
64
40
30
C0
80
78
ENDCHAR
STARTCHAR 1F15
ENCODING 7957
SWIDTH 432 0
DWIDTH 6 0
BBX 6 10 1 0
BITMAP
10
14
18
18
64
40
30
C0
80
78
ENDCHAR
STARTCHAR 1F18
ENCODING 7960
SWIDTH 432 0
DWIDTH 6 0
BBX 8 9 0 0
BITMAP
5F
50
A0
20
3C
20
60
40
7C
ENDCHAR
STARTCHAR 1F19
ENCODING 7961
SWIDTH 432 0
DWIDTH 6 0
BBX 8 9 0 0
BITMAP
5F
90
60
20
3C
20
60
40
7C
ENDCHAR
STARTCHAR 1F1A
ENCODING 7962
SWIDTH 432 0
DWIDTH 6 0
BBX 10 9 -2 0
BITMAP
67C0
5400
9800
0800
0F00
0800
1800
1000
1F00
ENDCHAR
STARTCHAR 1F1B
ENCODING 7963
SWIDTH 432 0
DWIDTH 6 0
BBX 10 9 -2 0
BITMAP
67C0
9400
5800
0800
0F00
0800
1800
1000
1F00
ENDCHAR
STARTCHAR 1F1C
ENCODING 7964
SWIDTH 432 0
DWIDTH 6 0
BBX 10 9 -2 0
BITMAP
57C0
7400
A800
0800
0F00
0800
1800
1000
1F00
ENDCHAR
STARTCHAR 1F1D
ENCODING 7965
SWIDTH 432 0
DWIDTH 6 0
BBX 10 9 -2 0
BITMAP
D7C0
B400
2800
0800
0F00
0800
1800
1000
1F00
ENDCHAR
STARTCHAR 1F20
ENCODING 7968
SWIDTH 432 0
DWIDTH 6 0
BBX 6 12 1 -2
BITMAP
08
08
10
10
6C
44
44
C8
88
88
08
18
ENDCHAR
STARTCHAR 1F21
ENCODING 7969
SWIDTH 432 0
DWIDTH 6 0
BBX 6 12 1 -2
BITMAP
08
08
08
10
6C
44
44
C8
88
88
08
18
ENDCHAR
STARTCHAR 1F22
ENCODING 7970
SWIDTH 432 0
DWIDTH 6 0
BBX 6 12 1 -2
BITMAP
14
14
24
10
6C
44
44
C8
88
88
08
18
ENDCHAR
STARTCHAR 1F23
ENCODING 7971
SWIDTH 432 0
DWIDTH 6 0
BBX 6 12 1 -2
BITMAP
28
28
14
10
6C
44
44
C8
88
88
08
18
ENDCHAR
STARTCHAR 1F24
ENCODING 7972
SWIDTH 432 0
DWIDTH 6 0
BBX 6 12 1 -2
BITMAP
10
14
00
10
6C
44
44
C8
88
88
08
18
ENDCHAR
STARTCHAR 1F25
ENCODING 7973
SWIDTH 432 0
DWIDTH 6 0
BBX 6 12 1 -2
BITMAP
10
24
18
10
6C
44
44
C8
88
88
08
18
ENDCHAR
STARTCHAR 1F26
ENCODING 7974
SWIDTH 432 0
DWIDTH 6 0
BBX 6 13 1 -2
BITMAP
0C
10
08
10
10
6C
44
44
C8
88
88
08
18
ENDCHAR
STARTCHAR 1F27
ENCODING 7975
SWIDTH 432 0
DWIDTH 6 0
BBX 6 13 1 -2
BITMAP
0C
10
08
08
10
6C
44
44
C8
88
88
08
18
ENDCHAR
STARTCHAR 1F28
ENCODING 7976
SWIDTH 432 0
DWIDTH 6 0
BBX 8 9 0 0
BITMAP
51
61
A3
22
3E
42
46
44
44
ENDCHAR
STARTCHAR 1F29
ENCODING 7977
SWIDTH 432 0
DWIDTH 6 0
BBX 8 9 0 0
BITMAP
D1
A1
23
22
3E
42
46
44
44
ENDCHAR
STARTCHAR 1F2A
ENCODING 7978
SWIDTH 432 0
DWIDTH 6 0
BBX 10 9 -2 0
BITMAP
A440
A840
08C0
0880
0F80
1080
1180
1100
1100
ENDCHAR
STARTCHAR 1F2B
ENCODING 7979
SWIDTH 432 0
DWIDTH 6 0
BBX 10 9 -2 0
BITMAP
A440
A840
08C0
0880
0F80
1080
1180
1100
1100
ENDCHAR
STARTCHAR 1F2C
ENCODING 7980
SWIDTH 432 0
DWIDTH 6 0
BBX 10 9 -2 0
BITMAP
5440
6840
88C0
0880
0F80
1080
1180
1100
1100
ENDCHAR
STARTCHAR 1F2D
ENCODING 7981
SWIDTH 432 0
DWIDTH 6 0
BBX 10 9 -2 0
BITMAP
9440
A840
08C0
0880
0F80
1080
1180
1100
1100
ENDCHAR
STARTCHAR 1F2E
ENCODING 7982
SWIDTH 432 0
DWIDTH 6 0
BBX 9 10 -1 0
BITMAP
4000
A880
5080
9180
1100
1F00
2100
2300
2200
2200
ENDCHAR
STARTCHAR 1F2F
ENCODING 7983
SWIDTH 432 0
DWIDTH 6 0
BBX 9 10 -1 0
BITMAP
4000
A880
5080
5180
1100
1F00
2100
2300
2200
2200
ENDCHAR
STARTCHAR 1F30
ENCODING 7984
SWIDTH 432 0
DWIDTH 6 0
BBX 4 10 2 0
BITMAP
20
20
00
00
E0
60
40
40
40
70
ENDCHAR
STARTCHAR 1F31
ENCODING 7985
SWIDTH 432 0
DWIDTH 6 0
BBX 4 10 2 0
BITMAP
20
20
20
00
E0
60
40
40
40
70
ENDCHAR
STARTCHAR 1F32
ENCODING 7986
SWIDTH 432 0
DWIDTH 6 0
BBX 4 10 2 0
BITMAP
50
50
90
00
E0
60
40
40
40
70
ENDCHAR
STARTCHAR 1F33
ENCODING 7987
SWIDTH 432 0
DWIDTH 6 0
BBX 4 10 2 0
BITMAP
40
A0
50
00
E0
60
40
40
40
70
ENDCHAR
STARTCHAR 1F34
ENCODING 7988
SWIDTH 432 0
DWIDTH 6 0
BBX 4 10 2 0
BITMAP
20
70
50
00
E0
60
40
40
40
70
ENDCHAR
STARTCHAR 1F35
ENCODING 7989
SWIDTH 432 0
DWIDTH 6 0
BBX 4 10 2 0
BITMAP
40
50
60
00
E0
60
40
40
40
70
ENDCHAR
STARTCHAR 1F36
ENCODING 7990
SWIDTH 432 0
DWIDTH 6 0
BBX 4 11 2 0
BITMAP
30
40
20
40
00
E0
60
40
40
40
70
ENDCHAR
STARTCHAR 1F37
ENCODING 7991
SWIDTH 432 0
DWIDTH 6 0
BBX 4 11 2 0
BITMAP
30
40
20
20
00
E0
60
40
40
40
70
ENDCHAR
STARTCHAR 1F38
ENCODING 7992
SWIDTH 432 0
DWIDTH 6 0
BBX 7 9 0 0
BITMAP
5E
4C
88
08
08
18
10
10
7C
ENDCHAR
STARTCHAR 1F39
ENCODING 7993
SWIDTH 432 0
DWIDTH 6 0
BBX 6 9 1 0
BITMAP
BC
98
90
10
10
30
20
20
F8
ENDCHAR
STARTCHAR 1F3A
ENCODING 7994
SWIDTH 432 0
DWIDTH 6 0
BBX 9 9 -2 0
BITMAP
4780
5300
9200
0200
0200
0600
0400
0400
1F00
ENDCHAR
STARTCHAR 1F3B
ENCODING 7995
SWIDTH 432 0
DWIDTH 6 0
BBX 8 9 -1 0
BITMAP
8F
A6
A4
04
04
0C
08
08
3E
ENDCHAR
STARTCHAR 1F3C
ENCODING 7996
SWIDTH 432 0
DWIDTH 6 0
BBX 9 9 -2 0
BITMAP
5780
5300
A200
0200
0200
0600
0400
0400
1F00
ENDCHAR
STARTCHAR 1F3D
ENCODING 7997
SWIDTH 432 0
DWIDTH 6 0
BBX 9 9 -2 0
BITMAP
5780
9300
6200
0200
0200
0600
0400
0400
1F00
ENDCHAR
STARTCHAR 1F3E
ENCODING 7998
SWIDTH 432 0
DWIDTH 6 0
BBX 8 10 -1 0
BITMAP
60
8F
46
44
04
04
0C
08
08
3E
ENDCHAR
STARTCHAR 1F3F
ENCODING 7999
SWIDTH 432 0
DWIDTH 6 0
BBX 8 10 -1 0
BITMAP
60
8F
46
44
04
04
0C
08
08
3E
ENDCHAR
STARTCHAR 1F40
ENCODING 8000
SWIDTH 432 0
DWIDTH 6 0
BBX 6 10 1 0
BITMAP
08
08
10
18
6C
44
84
84
88
70
ENDCHAR
STARTCHAR 1F41
ENCODING 8001
SWIDTH 432 0
DWIDTH 6 0
BBX 6 10 1 0
BITMAP
08
08
08
18
6C
44
84
84
88
70
ENDCHAR
STARTCHAR 1F42
ENCODING 8002
SWIDTH 432 0
DWIDTH 6 0
BBX 6 10 1 0
BITMAP
10
14
24
18
6C
44
84
84
88
70
ENDCHAR
STARTCHAR 1F43
ENCODING 8003
SWIDTH 432 0
DWIDTH 6 0
BBX 6 10 1 0
BITMAP
28
28
14
18
6C
44
84
84
88
70
ENDCHAR
STARTCHAR 1F44
ENCODING 8004
SWIDTH 432 0
DWIDTH 6 0
BBX 6 10 1 0
BITMAP
10
14
00
18
6C
44
84
84
88
70
ENDCHAR
STARTCHAR 1F45
ENCODING 8005
SWIDTH 432 0
DWIDTH 6 0
BBX 6 10 1 0
BITMAP
10
24
18
18
6C
44
84
84
88
70
ENDCHAR
STARTCHAR 1F48
ENCODING 8008
SWIDTH 432 0
DWIDTH 6 0
BBX 7 9 0 0
BITMAP
4C
52
A2
22
42
42
46
44
38
ENDCHAR
STARTCHAR 1F49
ENCODING 8009
SWIDTH 432 0
DWIDTH 6 0
BBX 7 9 0 0
BITMAP
8C
92
22
22
42
42
46
44
38
ENDCHAR
STARTCHAR 1F4A
ENCODING 8010
SWIDTH 432 0
DWIDTH 6 0
BBX 9 9 -2 0
BITMAP
A300
A480
0880
0880
1080
1080
1180
1100
0E00
ENDCHAR
STARTCHAR 1F4B
ENCODING 8011
SWIDTH 432 0
DWIDTH 6 0
BBX 9 9 -2 0
BITMAP
A300
A480
0880
0880
1080
1080
1180
1100
0E00
ENDCHAR
STARTCHAR 1F4C
ENCODING 8012
SWIDTH 432 0
DWIDTH 6 0
BBX 9 9 -2 0
BITMAP
5300
5480
A880
0880
1080
1080
1180
1100
0E00
ENDCHAR
STARTCHAR 1F4D
ENCODING 8013
SWIDTH 432 0
DWIDTH 6 0
BBX 9 9 -2 0
BITMAP
5300
9480
6880
0880
1080
1080
1180
1100
0E00
ENDCHAR
STARTCHAR 1F50
ENCODING 8016
SWIDTH 432 0
DWIDTH 6 0
BBX 6 10 1 0
BITMAP
08
08
10
00
44
44
C8
88
88
70
ENDCHAR
STARTCHAR 1F51
ENCODING 8017
SWIDTH 432 0
DWIDTH 6 0
BBX 6 10 1 0
BITMAP
08
10
08
00
44
44
C8
88
88
70
ENDCHAR
STARTCHAR 1F52
ENCODING 8018
SWIDTH 432 0
DWIDTH 6 0
BBX 6 10 1 0
BITMAP
10
14
24
00
44
44
C8
88
88
70
ENDCHAR
STARTCHAR 1F53
ENCODING 8019
SWIDTH 432 0
DWIDTH 6 0
BBX 6 10 1 0
BITMAP
28
28
04
00
44
44
C8
88
88
70
ENDCHAR
STARTCHAR 1F54
ENCODING 8020
SWIDTH 432 0
DWIDTH 6 0
BBX 6 10 1 0
BITMAP
10
14
08
00
44
44
C8
88
88
70
ENDCHAR
STARTCHAR 1F55
ENCODING 8021
SWIDTH 432 0
DWIDTH 6 0
BBX 6 10 1 0
BITMAP
04
24
18
00
44
44
C8
88
88
70
ENDCHAR
STARTCHAR 1F56
ENCODING 8022
SWIDTH 432 0
DWIDTH 6 0
BBX 6 11 1 0
BITMAP
1C
14
08
10
00
44
44
C8
88
88
70
ENDCHAR
STARTCHAR 1F57
ENCODING 8023
SWIDTH 432 0
DWIDTH 6 0
BBX 6 11 1 0
BITMAP
1C
14
08
08
00
44
44
C8
88
88
70
ENDCHAR
STARTCHAR 1F59
ENCODING 8025
SWIDTH 432 0
DWIDTH 6 0
BBX 9 9 0 0
BITMAP
A180
A100
3200
1400
1400
1800
1000
1000
1000
ENDCHAR
STARTCHAR 1F5B
ENCODING 8027
SWIDTH 432 0
DWIDTH 6 0
BBX 11 9 -2 0
BITMAP
E860
A840
1C80
0500
0500
0600
0400
0400
0400
ENDCHAR
STARTCHAR 1F5D
ENCODING 8029
SWIDTH 432 0
DWIDTH 6 0
BBX 11 9 -2 0
BITMAP
8860
A840
8C80
0500
0500
0600
0400
0400
0400
ENDCHAR
STARTCHAR 1F5F
ENCODING 8031
SWIDTH 432 0
DWIDTH 6 0
BBX 11 10 -2 0
BITMAP
6000
8860
4840
4C80
0500
0500
0600
0400
0400
0400
ENDCHAR
STARTCHAR 1F60
ENCODING 8032
SWIDTH 432 0
DWIDTH 6 0
BBX 6 10 1 0
BITMAP
08
08
10
00
44
84
A4
A4
AC
D8
ENDCHAR
STARTCHAR 1F61
ENCODING 8033
SWIDTH 432 0
DWIDTH 6 0
BBX 6 10 1 0
BITMAP
08
10
08
00
44
84
A4
A4
AC
D8
ENDCHAR
STARTCHAR 1F62
ENCODING 8034
SWIDTH 432 0
DWIDTH 6 0
BBX 6 10 1 0
BITMAP
10
14
24
00
44
84
A4
A4
AC
D8
ENDCHAR
STARTCHAR 1F63
ENCODING 8035
SWIDTH 432 0
DWIDTH 6 0
BBX 6 10 1 0
BITMAP
28
28
04
00
44
84
A4
A4
AC
D8
ENDCHAR
STARTCHAR 1F64
ENCODING 8036
SWIDTH 432 0
DWIDTH 6 0
BBX 6 10 1 0
BITMAP
10
14
28
00
44
84
A4
A4
AC
D8
ENDCHAR
STARTCHAR 1F65
ENCODING 8037
SWIDTH 432 0
DWIDTH 6 0
BBX 6 10 1 0
BITMAP
24
24
18
00
44
84
A4
A4
AC
D8
ENDCHAR
STARTCHAR 1F66
ENCODING 8038
SWIDTH 432 0
DWIDTH 6 0
BBX 6 11 1 0
BITMAP
1C
14
08
10
00
44
84
A4
A4
AC
D8
ENDCHAR
STARTCHAR 1F67
ENCODING 8039
SWIDTH 432 0
DWIDTH 6 0
BBX 6 11 1 0
BITMAP
1C
14
08
08
00
44
84
A4
A4
AC
D8
ENDCHAR
STARTCHAR 1F68
ENCODING 8040
SWIDTH 432 0
DWIDTH 6 0
BBX 8 9 0 0
BITMAP
4C
52
A3
62
42
42
44
44
EC
ENDCHAR
STARTCHAR 1F69
ENCODING 8041
SWIDTH 432 0
DWIDTH 6 0
BBX 8 9 0 0
BITMAP
8C
92
23
62
42
42
44
44
EC
ENDCHAR
STARTCHAR 1F6A
ENCODING 8042
SWIDTH 432 0
DWIDTH 6 0
BBX 10 9 -2 0
BITMAP
A300
A480
08C0
1880
1080
1080
1100
1100
3B00
ENDCHAR
STARTCHAR 1F6B
ENCODING 8043
SWIDTH 432 0
DWIDTH 6 0
BBX 10 9 -2 0
BITMAP
A300
A480
08C0
1880
1080
1080
1100
1100
3B00
ENDCHAR
STARTCHAR 1F6C
ENCODING 8044
SWIDTH 432 0
DWIDTH 6 0
BBX 10 9 -2 0
BITMAP
5300
5480
A8C0
1880
1080
1080
1100
1100
3B00
ENDCHAR
STARTCHAR 1F6D
ENCODING 8045
SWIDTH 432 0
DWIDTH 6 0
BBX 10 9 -2 0
BITMAP
D300
9480
68C0
1880
1080
1080
1100
1100
3B00
ENDCHAR
STARTCHAR 1F6E
ENCODING 8046
SWIDTH 432 0
DWIDTH 6 0
BBX 9 10 -1 0
BITMAP
2000
D600
4900
5180
3100
2100
2100
2200
2200
7600
ENDCHAR
STARTCHAR 1F6F
ENCODING 8047
SWIDTH 432 0
DWIDTH 6 0
BBX 9 10 -1 0
BITMAP
6000
8600
4900
5180
3100
2100
2100
2200
2200
7600
ENDCHAR
STARTCHAR 1F70
ENCODING 8048
SWIDTH 432 0
DWIDTH 6 0
BBX 6 10 1 0
BITMAP
10
18
08
08
34
44
88
88
88
7C
ENDCHAR
STARTCHAR 1F71
ENCODING 8049
SWIDTH 432 0
DWIDTH 6 0
BBX 6 9 1 1
BITMAP
08
10
08
34
44
88
88
88
7C
ENDCHAR
STARTCHAR 1F72
ENCODING 8050
SWIDTH 432 0
DWIDTH 6 0
BBX 6 10 1 0
BITMAP
10
18
08
18
64
40
30
C0
80
78
ENDCHAR
STARTCHAR 1F73
ENCODING 8051
SWIDTH 432 0
DWIDTH 6 0
BBX 6 9 1 1
BITMAP
08
10
18
64
40
30
C0
80
78
ENDCHAR
STARTCHAR 1F74
ENCODING 8052
SWIDTH 432 0
DWIDTH 6 0
BBX 6 12 1 -2
BITMAP
10
18
08
10
6C
44
44
C8
88
88
08
18
ENDCHAR
STARTCHAR 1F75
ENCODING 8053
SWIDTH 432 0
DWIDTH 6 0
BBX 6 11 1 -1
BITMAP
08
10
10
6C
44
44
C8
88
88
08
18
ENDCHAR
STARTCHAR 1F76
ENCODING 8054
SWIDTH 432 0
DWIDTH 6 0
BBX 4 9 2 1
BITMAP
60
00
00
E0
60
40
40
40
70
ENDCHAR
STARTCHAR 1F77
ENCODING 8055
SWIDTH 432 0
DWIDTH 6 0
BBX 4 10 2 0
BITMAP
10
30
00
00
E0
60
40
40
40
70
ENDCHAR
STARTCHAR 1F78
ENCODING 8056
SWIDTH 432 0
DWIDTH 6 0
BBX 6 10 1 0
BITMAP
10
18
08
18
6C
44
84
84
88
70
ENDCHAR
STARTCHAR 1F79
ENCODING 8057
SWIDTH 432 0
DWIDTH 6 0
BBX 6 9 1 1
BITMAP
08
10
18
6C
44
84
84
88
70
ENDCHAR
STARTCHAR 1F7A
ENCODING 8058
SWIDTH 432 0
DWIDTH 6 0
BBX 6 9 1 1
BITMAP
10
08
00
44
44
C8
88
88
70
ENDCHAR
STARTCHAR 1F7B
ENCODING 8059
SWIDTH 432 0
DWIDTH 6 0
BBX 6 9 1 1
BITMAP
08
10
00
44
44
C8
88
88
70
ENDCHAR
STARTCHAR 1F7C
ENCODING 8060
SWIDTH 432 0
DWIDTH 6 0
BBX 6 9 1 1
BITMAP
10
08
00
44
84
A4
A4
AC
D8
ENDCHAR
STARTCHAR 1F7D
ENCODING 8061
SWIDTH 432 0
DWIDTH 6 0
BBX 6 9 1 1
BITMAP
08
10
00
44
84
A4
A4
AC
D8
ENDCHAR
STARTCHAR 1F80
ENCODING 8064
SWIDTH 432 0
DWIDTH 6 0
BBX 6 12 1 -2
BITMAP
08
08
10
08
34
44
88
88
88
7C
00
20
ENDCHAR
STARTCHAR 1F81
ENCODING 8065
SWIDTH 432 0
DWIDTH 6 0
BBX 6 12 1 -2
BITMAP
08
08
08
08
34
44
88
88
88
7C
00
20
ENDCHAR
STARTCHAR 1F82
ENCODING 8066
SWIDTH 432 0
DWIDTH 6 0
BBX 6 12 1 -2
BITMAP
14
14
24
08
34
44
88
88
88
7C
00
20
ENDCHAR
STARTCHAR 1F83
ENCODING 8067
SWIDTH 432 0
DWIDTH 6 0
BBX 6 11 1 -1
BITMAP
28
14
08
34
44
88
88
88
7C
00
20
ENDCHAR
STARTCHAR 1F84
ENCODING 8068
SWIDTH 432 0
DWIDTH 6 0
BBX 6 12 1 -2
BITMAP
10
14
10
08
34
44
88
88
88
7C
00
20
ENDCHAR
STARTCHAR 1F85
ENCODING 8069
SWIDTH 432 0
DWIDTH 6 0
BBX 6 12 1 -2
BITMAP
10
24
18
08
34
44
88
88
88
7C
00
20
ENDCHAR
STARTCHAR 1F86
ENCODING 8070
SWIDTH 432 0
DWIDTH 6 0
BBX 6 13 1 -2
BITMAP
0C
10
08
10
08
34
44
88
88
88
7C
00
20
ENDCHAR
STARTCHAR 1F87
ENCODING 8071
SWIDTH 432 0
DWIDTH 6 0
BBX 6 13 1 -2
BITMAP
0C
10
08
08
08
34
44
88
88
88
7C
00
20
ENDCHAR
STARTCHAR 1F88
ENCODING 8072
SWIDTH 432 0
DWIDTH 6 0
BBX 7 9 0 0
BITMAP
50
50
B0
32
2A
4A
7C
8C
9E
ENDCHAR
STARTCHAR 1F89
ENCODING 8073
SWIDTH 432 0
DWIDTH 6 0
BBX 7 9 0 0
BITMAP
D0
90
30
32
2A
4A
7C
8C
9E
ENDCHAR
STARTCHAR 1F8A
ENCODING 8074
SWIDTH 432 0
DWIDTH 6 0
BBX 9 9 -2 0
BITMAP
E400
A400
0C00
0C80
0A80
1280
1F00
2300
2780
ENDCHAR
STARTCHAR 1F8B
ENCODING 8075
SWIDTH 432 0
DWIDTH 6 0
BBX 9 9 -2 0
BITMAP
A400
A400
0C00
0C80
0A80
1280
1F00
2300
2780
ENDCHAR
STARTCHAR 1F8C
ENCODING 8076
SWIDTH 432 0
DWIDTH 6 0
BBX 9 9 -2 0
BITMAP
5400
5400
AC00
0C80
0A80
1280
1F00
2300
2780
ENDCHAR
STARTCHAR 1F8D
ENCODING 8077
SWIDTH 432 0
DWIDTH 6 0
BBX 9 9 -2 0
BITMAP
5400
9400
6C00
0C80
0A80
1280
1F00
2300
2780
ENDCHAR
STARTCHAR 1F8E
ENCODING 8078
SWIDTH 432 0
DWIDTH 6 0
BBX 8 10 -1 0
BITMAP
20
D8
48
58
19
15
25
3E
46
4F
ENDCHAR
STARTCHAR 1F8F
ENCODING 8079
SWIDTH 432 0
DWIDTH 6 0
BBX 8 10 -1 0
BITMAP
20
D8
48
58
19
15
25
3E
46
4F
ENDCHAR
STARTCHAR 1F90
ENCODING 8080
SWIDTH 432 0
DWIDTH 6 0
BBX 6 12 1 -2
BITMAP
08
08
10
10
6C
44
44
C8
88
88
08
98
ENDCHAR
STARTCHAR 1F91
ENCODING 8081
SWIDTH 432 0
DWIDTH 6 0
BBX 6 12 1 -2
BITMAP
08
08
08
10
6C
44
44
C8
88
88
08
98
ENDCHAR
STARTCHAR 1F92
ENCODING 8082
SWIDTH 432 0
DWIDTH 6 0
BBX 6 12 1 -2
BITMAP
14
14
24
10
6C
44
44
C8
88
88
08
98
ENDCHAR
STARTCHAR 1F93
ENCODING 8083
SWIDTH 432 0
DWIDTH 6 0
BBX 6 12 1 -2
BITMAP
28
28
14
10
6C
44
44
C8
88
88
08
98
ENDCHAR
STARTCHAR 1F94
ENCODING 8084
SWIDTH 432 0
DWIDTH 6 0
BBX 6 12 1 -2
BITMAP
10
14
00
10
6C
44
44
C8
88
88
08
98
ENDCHAR
STARTCHAR 1F95
ENCODING 8085
SWIDTH 432 0
DWIDTH 6 0
BBX 6 12 1 -2
BITMAP
10
24
18
10
6C
44
44
C8
88
88
08
98
ENDCHAR
STARTCHAR 1F96
ENCODING 8086
SWIDTH 432 0
DWIDTH 6 0
BBX 6 13 1 -2
BITMAP
0C
10
08
10
10
6C
44
44
C8
88
88
08
98
ENDCHAR
STARTCHAR 1F97
ENCODING 8087
SWIDTH 432 0
DWIDTH 6 0
BBX 6 13 1 -2
BITMAP
0C
10
08
08
10
6C
44
44
C8
88
88
08
98
ENDCHAR
STARTCHAR 1F98
ENCODING 8088
SWIDTH 432 0
DWIDTH 6 0
BBX 7 9 0 0
BITMAP
64
64
A8
2A
7A
4A
4C
54
96
ENDCHAR
STARTCHAR 1F99
ENCODING 8089
SWIDTH 432 0
DWIDTH 6 0
BBX 7 9 0 0
BITMAP
E4
A4
28
2A
7A
4A
4C
54
96
ENDCHAR
STARTCHAR 1F9A
ENCODING 8090
SWIDTH 432 0
DWIDTH 6 0
BBX 9 9 -2 0
BITMAP
A900
A900
0A00
0A80
1E80
1280
1300
1500
2580
ENDCHAR
STARTCHAR 1F9B
ENCODING 8091
SWIDTH 432 0
DWIDTH 6 0
BBX 9 9 -2 0
BITMAP
A900
A900
0A00
0A80
1E80
1280
1300
1500
2580
ENDCHAR
STARTCHAR 1F9C
ENCODING 8092
SWIDTH 432 0
DWIDTH 6 0
BBX 9 9 -2 0
BITMAP
5900
6900
8A00
0A80
1E80
1280
1300
1500
2580
ENDCHAR
STARTCHAR 1F9D
ENCODING 8093
SWIDTH 432 0
DWIDTH 6 0
BBX 9 9 -2 0
BITMAP
9900
A900
0A00
0A80
1E80
1280
1300
1500
2580
ENDCHAR
STARTCHAR 1F9E
ENCODING 8094
SWIDTH 432 0
DWIDTH 6 0
BBX 8 10 -1 0
BITMAP
40
B2
52
94
15
3D
25
26
2A
4B
ENDCHAR
STARTCHAR 1F9F
ENCODING 8095
SWIDTH 432 0
DWIDTH 6 0
BBX 8 10 -1 0
BITMAP
40
B2
52
54
15
3D
25
26
2A
4B
ENDCHAR
STARTCHAR 1FA0
ENCODING 8096
SWIDTH 432 0
DWIDTH 6 0
BBX 6 12 1 -2
BITMAP
08
08
10
00
44
84
A4
A4
AC
D8
00
20
ENDCHAR
STARTCHAR 1FA1
ENCODING 8097
SWIDTH 432 0
DWIDTH 6 0
BBX 6 12 1 -2
BITMAP
08
10
08
00
44
84
A4
A4
AC
D8
00
20
ENDCHAR
STARTCHAR 1FA2
ENCODING 8098
SWIDTH 432 0
DWIDTH 6 0
BBX 6 12 1 -2
BITMAP
10
14
24
00
44
84
A4
A4
AC
D8
00
20
ENDCHAR
STARTCHAR 1FA3
ENCODING 8099
SWIDTH 432 0
DWIDTH 6 0
BBX 6 12 1 -2
BITMAP
28
28
04
00
44
84
A4
A4
AC
D8
00
20
ENDCHAR
STARTCHAR 1FA4
ENCODING 8100
SWIDTH 432 0
DWIDTH 6 0
BBX 6 12 1 -2
BITMAP
10
14
28
00
44
84
A4
A4
AC
D8
00
20
ENDCHAR
STARTCHAR 1FA5
ENCODING 8101
SWIDTH 432 0
DWIDTH 6 0
BBX 6 12 1 -2
BITMAP
24
24
18
00
44
84
A4
A4
AC
D8
00
20
ENDCHAR
STARTCHAR 1FA6
ENCODING 8102
SWIDTH 432 0
DWIDTH 6 0
BBX 6 13 1 -2
BITMAP
1C
14
08
10
00
44
84
A4
A4
AC
D8
00
20
ENDCHAR
STARTCHAR 1FA7
ENCODING 8103
SWIDTH 432 0
DWIDTH 6 0
BBX 6 13 1 -2
BITMAP
1C
14
08
08
00
44
84
A4
A4
AC
D8
00
20
ENDCHAR
STARTCHAR 1FA8
ENCODING 8104
SWIDTH 432 0
DWIDTH 6 0
BBX 7 9 0 0
BITMAP
98
A8
28
4A
4A
4A
54
54
F6
ENDCHAR
STARTCHAR 1FA9
ENCODING 8105
SWIDTH 432 0
DWIDTH 6 0
BBX 8 9 -1 0
BITMAP
4C
94
54
25
25
25
2A
2A
7B
ENDCHAR
STARTCHAR 1FAA
ENCODING 8106
SWIDTH 432 0
DWIDTH 6 0
BBX 10 9 -3 0
BITMAP
4300
5500
9500
0940
0940
0940
0A80
0A80
1EC0
ENDCHAR
STARTCHAR 1FAB
ENCODING 8107
SWIDTH 432 0
DWIDTH 6 0
BBX 10 9 -3 0
BITMAP
6300
9500
5500
0940
0940
0940
0A80
0A80
1EC0
ENDCHAR
STARTCHAR 1FAC
ENCODING 8108
SWIDTH 432 0
DWIDTH 6 0
BBX 9 9 -2 0
BITMAP
C600
AA00
0A00
1280
1280
1280
1500
1500
3D80
ENDCHAR
STARTCHAR 1FAD
ENCODING 8109
SWIDTH 432 0
DWIDTH 6 0
BBX 9 9 -2 0
BITMAP
8600
AA00
0A00
1280
1280
1280
1500
1500
3D80
ENDCHAR
STARTCHAR 1FAE
ENCODING 8110
SWIDTH 432 0
DWIDTH 6 0
BBX 8 10 -1 0
BITMAP
40
AC
54
94
25
25
25
2A
2A
7B
ENDCHAR
STARTCHAR 1FAF
ENCODING 8111
SWIDTH 432 0
DWIDTH 6 0
BBX 8 10 -1 0
BITMAP
40
AC
54
54
25
25
25
2A
2A
7B
ENDCHAR
STARTCHAR 1FB0
ENCODING 8112
SWIDTH 432 0
DWIDTH 6 0
BBX 6 9 1 0
BITMAP
14
08
08
34
44
88
88
88
7C
ENDCHAR
STARTCHAR 1FB1
ENCODING 8113
SWIDTH 432 0
DWIDTH 6 0
BBX 6 9 1 0
BITMAP
1C
00
08
34
44
88
88
88
7C
ENDCHAR
STARTCHAR 1FB2
ENCODING 8114
SWIDTH 432 0
DWIDTH 6 0
BBX 6 12 1 -2
BITMAP
10
18
08
08
34
44
88
88
88
7C
00
20
ENDCHAR
STARTCHAR 1FB3
ENCODING 8115
SWIDTH 432 0
DWIDTH 6 0
BBX 6 9 1 -2
BITMAP
08
34
44
88
88
88
7C
00
20
ENDCHAR
STARTCHAR 1FB4
ENCODING 8116
SWIDTH 432 0
DWIDTH 6 0
BBX 6 11 1 -1
BITMAP
08
10
08
34
44
88
88
88
7C
00
20
ENDCHAR
STARTCHAR 1FB6
ENCODING 8118
SWIDTH 432 0
DWIDTH 6 0
BBX 6 9 1 0
BITMAP
1C
00
08
34
44
88
88
88
7C
ENDCHAR
STARTCHAR 1FB7
ENCODING 8119
SWIDTH 432 0
DWIDTH 6 0
BBX 6 11 1 -2
BITMAP
1C
00
08
34
44
88
88
88
7C
00
20
ENDCHAR
STARTCHAR 1FB8
ENCODING 8120
SWIDTH 432 0
DWIDTH 6 0
BBX 7 11 0 0
BITMAP
0A
04
0C
0C
14
14
24
24
7C
44
84
ENDCHAR
STARTCHAR 1FB9
ENCODING 8121
SWIDTH 432 0
DWIDTH 6 0
BBX 7 11 0 0
BITMAP
0E
00
0C
0C
14
14
24
24
7C
44
84
ENDCHAR
STARTCHAR 1FBA
ENCODING 8122
SWIDTH 432 0
DWIDTH 6 0
BBX 7 9 0 0
BITMAP
04
4C
34
14
24
24
7C
46
86
ENDCHAR
STARTCHAR 1FBB
ENCODING 8123
SWIDTH 432 0
DWIDTH 6 0
BBX 7 9 0 0
BITMAP
04
2C
54
14
24
24
7E
46
86
ENDCHAR
STARTCHAR 1FBC
ENCODING 8124
SWIDTH 432 0
DWIDTH 6 0
BBX 7 9 0 0
BITMAP
10
10
30
32
2A
4A
7C
8C
9E
ENDCHAR
STARTCHAR 1FBD
ENCODING 8125
SWIDTH 432 0
DWIDTH 6 0
BBX 2 3 4 7
BITMAP
40
C0
80
ENDCHAR
STARTCHAR 1FBE
ENCODING 8126
SWIDTH 432 0
DWIDTH 6 0
BBX 1 1 3 -2
BITMAP
80
ENDCHAR
STARTCHAR 1FBF
ENCODING 8127
SWIDTH 432 0
DWIDTH 6 0
BBX 2 3 4 7
BITMAP
40
C0
80
ENDCHAR
STARTCHAR 1FC0
ENCODING 8128
SWIDTH 432 0
DWIDTH 6 0
BBX 3 1 4 8
BITMAP
E0
ENDCHAR
STARTCHAR 1FC1
ENCODING 8129
SWIDTH 432 0
DWIDTH 6 0
BBX 4 4 3 7
BITMAP
30
50
10
90
ENDCHAR
STARTCHAR 1FC2
ENCODING 8130
SWIDTH 432 0
DWIDTH 6 0
BBX 6 12 1 -2
BITMAP
10
18
08
10
6C
44
44
C8
88
88
08
98
ENDCHAR
STARTCHAR 1FC3
ENCODING 8131
SWIDTH 432 0
DWIDTH 6 0
BBX 6 9 1 -2
BITMAP
10
6C
44
44
C8
88
88
08
98
ENDCHAR
STARTCHAR 1FC4
ENCODING 8132
SWIDTH 432 0
DWIDTH 6 0
BBX 6 12 1 -2
BITMAP
04
0C
00
10
6C
44
44
C8
88
88
08
98
ENDCHAR
STARTCHAR 1FC6
ENCODING 8134
SWIDTH 432 0
DWIDTH 6 0
BBX 6 11 1 -2
BITMAP
1C
00
10
6C
44
44
C8
88
88
08
18
ENDCHAR
STARTCHAR 1FC7
ENCODING 8135
SWIDTH 432 0
DWIDTH 6 0
BBX 6 11 1 -2
BITMAP
1C
00
10
6C
44
44
C8
88
88
08
98
ENDCHAR
STARTCHAR 1FC8
ENCODING 8136
SWIDTH 432 0
DWIDTH 6 0
BBX 8 9 0 0
BITMAP
9F
D0
50
20
3C
20
20
60
7C
ENDCHAR
STARTCHAR 1FC9
ENCODING 8137
SWIDTH 432 0
DWIDTH 6 0
BBX 8 9 0 0
BITMAP
1F
D0
10
20
3C
20
20
60
7C
ENDCHAR
STARTCHAR 1FCA
ENCODING 8138
SWIDTH 432 0
DWIDTH 6 0
BBX 8 9 0 0
BITMAP
11
A1
23
22
3E
42
46
44
44
ENDCHAR
STARTCHAR 1FCB
ENCODING 8139
SWIDTH 432 0
DWIDTH 6 0
BBX 8 9 0 0
BITMAP
51
A1
23
22
3E
42
46
44
44
ENDCHAR
STARTCHAR 1FCC
ENCODING 8140
SWIDTH 432 0
DWIDTH 6 0
BBX 7 9 0 0
BITMAP
24
24
28
2A
7A
4A
4C
54
96
ENDCHAR
STARTCHAR 1FCD
ENCODING 8141
SWIDTH 432 0
DWIDTH 6 0
BBX 4 3 3 7
BITMAP
40
60
90
ENDCHAR
STARTCHAR 1FCE
ENCODING 8142
SWIDTH 432 0
DWIDTH 6 0
BBX 4 3 3 7
BITMAP
50
50
A0
ENDCHAR
STARTCHAR 1FCF
ENCODING 8143
SWIDTH 432 0
DWIDTH 6 0
BBX 3 4 4 7
BITMAP
E0
A0
40
80
ENDCHAR
STARTCHAR 1FD0
ENCODING 8144
SWIDTH 432 0
DWIDTH 6 0
BBX 4 9 2 0
BITMAP
50
20
00
E0
60
40
40
40
70
ENDCHAR
STARTCHAR 1FD1
ENCODING 8145
SWIDTH 432 0
DWIDTH 6 0
BBX 4 9 2 0
BITMAP
70
00
00
E0
60
40
40
40
70
ENDCHAR
STARTCHAR 1FD2
ENCODING 8146
SWIDTH 432 0
DWIDTH 6 0
BBX 5 10 2 0
BITMAP
20
A8
00
00
E0
60
40
40
40
70
ENDCHAR
STARTCHAR 1FD3
ENCODING 8147
SWIDTH 432 0
DWIDTH 6 0
BBX 5 9 2 1
BITMAP
A8
00
00
E0
60
40
40
40
70
ENDCHAR
STARTCHAR 1FD6
ENCODING 8150
SWIDTH 432 0
DWIDTH 6 0
BBX 4 9 2 0
BITMAP
70
00
00
E0
60
40
40
40
70
ENDCHAR
STARTCHAR 1FD7
ENCODING 8151
SWIDTH 432 0
DWIDTH 6 0
BBX 4 11 2 0
BITMAP
30
40
50
50
00
E0
60
40
40
40
70
ENDCHAR
STARTCHAR 1FD8
ENCODING 8152
SWIDTH 432 0
DWIDTH 6 0
BBX 6 11 1 0
BITMAP
14
08
3C
18
10
10
10
30
20
20
F8
ENDCHAR
STARTCHAR 1FD9
ENCODING 8153
SWIDTH 432 0
DWIDTH 6 0
BBX 6 11 1 0
BITMAP
1C
00
3C
18
10
10
10
30
20
20
F8
ENDCHAR
STARTCHAR 1FDA
ENCODING 8154
SWIDTH 432 0
DWIDTH 6 0
BBX 7 9 0 0
BITMAP
9E
CC
48
08
08
18
10
10
7C
ENDCHAR
STARTCHAR 1FDB
ENCODING 8155
SWIDTH 432 0
DWIDTH 6 0
BBX 7 9 0 0
BITMAP
1E
CC
08
08
08
18
10
10
7C
ENDCHAR
STARTCHAR 1FDD
ENCODING 8157
SWIDTH 432 0
DWIDTH 6 0
BBX 4 3 3 7
BITMAP
40
90
50
ENDCHAR
STARTCHAR 1FDE
ENCODING 8158
SWIDTH 432 0
DWIDTH 6 0
BBX 4 3 3 7
BITMAP
10
90
60
ENDCHAR
STARTCHAR 1FDF
ENCODING 8159
SWIDTH 432 0
DWIDTH 6 0
BBX 3 4 4 7
BITMAP
E0
A0
40
40
ENDCHAR
STARTCHAR 1FE0
ENCODING 8160
SWIDTH 432 0
DWIDTH 6 0
BBX 6 9 1 0
BITMAP
14
08
00
44
44
C8
88
88
70
ENDCHAR
STARTCHAR 1FE1
ENCODING 8161
SWIDTH 432 0
DWIDTH 6 0
BBX 6 9 1 0
BITMAP
3C
00
00
44
44
C8
88
88
70
ENDCHAR
STARTCHAR 1FE2
ENCODING 8162
SWIDTH 432 0
DWIDTH 6 0
BBX 7 9 1 1
BITMAP
2E
08
00
44
44
C8
88
88
70
ENDCHAR
STARTCHAR 1FE3
ENCODING 8163
SWIDTH 432 0
DWIDTH 6 0
BBX 7 10 1 0
BITMAP
08
2E
10
00
44
44
C8
88
88
70
ENDCHAR
STARTCHAR 1FE4
ENCODING 8164
SWIDTH 432 0
DWIDTH 6 0
BBX 7 12 0 -2
BITMAP
04
04
08
08
36
22
22
62
44
78
40
C0
ENDCHAR
STARTCHAR 1FE5
ENCODING 8165
SWIDTH 432 0
DWIDTH 6 0
BBX 7 12 0 -2
BITMAP
04
0C
04
08
36
22
22
62
44
78
40
C0
ENDCHAR
STARTCHAR 1FE6
ENCODING 8166
SWIDTH 432 0
DWIDTH 6 0
BBX 6 9 1 0
BITMAP
1C
00
00
44
44
C8
88
88
70
ENDCHAR
STARTCHAR 1FE7
ENCODING 8167
SWIDTH 432 0
DWIDTH 6 0
BBX 6 11 1 0
BITMAP
0C
14
24
24
00
44
44
C8
88
88
70
ENDCHAR
STARTCHAR 1FE8
ENCODING 8168
SWIDTH 432 0
DWIDTH 6 0
BBX 7 11 2 0
BITMAP
28
10
86
84
C8
50
50
60
40
40
40
ENDCHAR
STARTCHAR 1FE9
ENCODING 8169
SWIDTH 432 0
DWIDTH 6 0
BBX 7 11 2 0
BITMAP
38
00
86
84
C8
50
50
60
40
40
40
ENDCHAR
STARTCHAR 1FEA
ENCODING 8170
SWIDTH 432 0
DWIDTH 6 0
BBX 9 9 0 0
BITMAP
2180
A100
3200
1400
1400
1800
1000
1000
1000
ENDCHAR
STARTCHAR 1FEB
ENCODING 8171
SWIDTH 432 0
DWIDTH 6 0
BBX 10 9 -1 0
BITMAP
10C0
D080
9900
0A00
0A00
0C00
0800
0800
0800
ENDCHAR
STARTCHAR 1FEC
ENCODING 8172
SWIDTH 432 0
DWIDTH 6 0
BBX 8 9 0 0
BITMAP
5C
92
63
22
26
38
40
40
40
ENDCHAR
STARTCHAR 1FED
ENCODING 8173
SWIDTH 432 0
DWIDTH 6 0
BBX 5 2 3 8
BITMAP
B8
20
ENDCHAR
STARTCHAR 1FEE
ENCODING 8174
SWIDTH 432 0
DWIDTH 6 0
BBX 5 3 3 7
BITMAP
20
B8
40
ENDCHAR
STARTCHAR 1FEF
ENCODING 8175
SWIDTH 432 0
DWIDTH 6 0
BBX 2 3 4 7
BITMAP
80
80
40
ENDCHAR
STARTCHAR 1FF2
ENCODING 8178
SWIDTH 432 0
DWIDTH 6 0
BBX 6 11 1 -1
BITMAP
10
08
00
44
84
A4
A4
AC
D8
00
20
ENDCHAR
STARTCHAR 1FF3
ENCODING 8179
SWIDTH 432 0
DWIDTH 6 0
BBX 6 8 1 -1
BITMAP
44
84
A4
A4
AC
D8
00
20
ENDCHAR
STARTCHAR 1FF4
ENCODING 8180
SWIDTH 432 0
DWIDTH 6 0
BBX 6 11 1 -1
BITMAP
08
10
00
44
84
A4
A4
AC
D8
00
20
ENDCHAR
STARTCHAR 1FF6
ENCODING 8182
SWIDTH 432 0
DWIDTH 6 0
BBX 6 9 1 0
BITMAP
1C
00
00
44
84
A4
A4
AC
D8
ENDCHAR
STARTCHAR 1FF7
ENCODING 8183
SWIDTH 432 0
DWIDTH 6 0
BBX 6 11 1 -2
BITMAP
1C
00
00
44
84
A4
A4
AC
D8
00
20
ENDCHAR
STARTCHAR 1FF8
ENCODING 8184
SWIDTH 432 0
DWIDTH 6 0
BBX 8 9 -1 0
BITMAP
06
C9
11
11
21
21
23
22
1C
ENDCHAR
STARTCHAR 1FF9
ENCODING 8185
SWIDTH 432 0
DWIDTH 6 0
BBX 7 9 0 0
BITMAP
0C
D2
22
22
42
42
46
44
38
ENDCHAR
STARTCHAR 1FFA
ENCODING 8186
SWIDTH 432 0
DWIDTH 6 0
BBX 9 9 -1 0
BITMAP
8600
C900
1180
3100
2100
2100
2200
2200
7600
ENDCHAR
STARTCHAR 1FFB
ENCODING 8187
SWIDTH 432 0
DWIDTH 6 0
BBX 8 9 0 0
BITMAP
4C
D2
23
62
42
42
44
44
EC
ENDCHAR
STARTCHAR 1FFC
ENCODING 8188
SWIDTH 432 0
DWIDTH 6 0
BBX 7 9 0 0
BITMAP
18
28
28
4A
4A
4A
54
54
F6
ENDCHAR
STARTCHAR 1FFD
ENCODING 8189
SWIDTH 432 0
DWIDTH 6 0
BBX 2 2 4 8
BITMAP
40
80
ENDCHAR
STARTCHAR 1FFE
ENCODING 8190
SWIDTH 432 0
DWIDTH 6 0
BBX 1 3 5 7
BITMAP
80
80
80
ENDCHAR
STARTCHAR 2013
ENCODING 8211
SWIDTH 432 0
DWIDTH 6 0
BBX 5 1 1 3
BITMAP
F8
ENDCHAR
STARTCHAR 2014
ENCODING 8212
SWIDTH 432 0
DWIDTH 6 0
BBX 6 1 1 3
BITMAP
FC
ENDCHAR
STARTCHAR 2015
ENCODING 8213
SWIDTH 432 0
DWIDTH 6 0
BBX 7 1 1 3
BITMAP
FE
ENDCHAR
STARTCHAR 2018
ENCODING 8216
SWIDTH 432 0
DWIDTH 6 0
BBX 3 4 4 6
BITMAP
60
80
C0
C0
ENDCHAR
STARTCHAR 2019
ENCODING 8217
SWIDTH 432 0
DWIDTH 6 0
BBX 3 4 3 6
BITMAP
20
60
20
C0
ENDCHAR
STARTCHAR 201A
ENCODING 8218
SWIDTH 432 0
DWIDTH 6 0
BBX 2 4 2 -2
BITMAP
40
C0
40
80
ENDCHAR
STARTCHAR 201C
ENCODING 8220
SWIDTH 432 0
DWIDTH 6 0
BBX 6 4 2 6
BITMAP
24
48
D8
C8
ENDCHAR
STARTCHAR 201D
ENCODING 8221
SWIDTH 432 0
DWIDTH 6 0
BBX 6 4 2 6
BITMAP
48
6C
4C
98
ENDCHAR
STARTCHAR 201E
ENCODING 8222
SWIDTH 432 0
DWIDTH 6 0
BBX 5 4 1 -2
BITMAP
C8
D8
48
90
ENDCHAR
STARTCHAR 2020
ENCODING 8224
SWIDTH 432 0
DWIDTH 6 0
BBX 5 10 2 -2
BITMAP
10
20
20
F8
20
20
40
40
40
80
ENDCHAR
STARTCHAR 2021
ENCODING 8225
SWIDTH 432 0
DWIDTH 6 0
BBX 6 10 1 -2
BITMAP
08
10
10
7C
10
10
F8
20
20
40
ENDCHAR
STARTCHAR 2022
ENCODING 8226
SWIDTH 432 0
DWIDTH 6 0
BBX 4 4 2 2
BITMAP
60
F0
F0
60
ENDCHAR
STARTCHAR 2026
ENCODING 8230
SWIDTH 432 0
DWIDTH 6 0
BBX 6 1 0 0
BITMAP
D4
ENDCHAR
STARTCHAR 2030
ENCODING 8240
SWIDTH 432 0
DWIDTH 6 0
BBX 7 9 1 0
BITMAP
20
60
A6
58
20
E4
6C
74
7C
ENDCHAR
STARTCHAR 2039
ENCODING 8249
SWIDTH 432 0
DWIDTH 6 0
BBX 3 5 3 1
BITMAP
60
C0
80
80
40
ENDCHAR
STARTCHAR 203A
ENCODING 8250
SWIDTH 432 0
DWIDTH 6 0
BBX 3 5 2 1
BITMAP
40
20
20
60
C0
ENDCHAR
STARTCHAR 2044
ENCODING 8260
SWIDTH 432 0
DWIDTH 6 0
BBX 7 9 1 0
BITMAP
02
04
08
08
10
20
40
C0
80
ENDCHAR
STARTCHAR 2070
ENCODING 8304
SWIDTH 432 0
DWIDTH 6 0
BBX 4 5 3 4
BITMAP
60
90
D0
A0
E0
ENDCHAR
STARTCHAR 2074
ENCODING 8308
SWIDTH 432 0
DWIDTH 6 0
BBX 4 5 2 4
BITMAP
10
30
50
F0
20
ENDCHAR
STARTCHAR 2075
ENCODING 8309
SWIDTH 432 0
DWIDTH 6 0
BBX 4 5 3 4
BITMAP
70
40
E0
20
E0
ENDCHAR
STARTCHAR 2076
ENCODING 8310
SWIDTH 432 0
DWIDTH 6 0
BBX 4 5 3 4
BITMAP
30
40
E0
A0
E0
ENDCHAR
STARTCHAR 2077
ENCODING 8311
SWIDTH 432 0
DWIDTH 6 0
BBX 4 5 3 4
BITMAP
F0
20
60
40
80
ENDCHAR
STARTCHAR 2078
ENCODING 8312
SWIDTH 432 0
DWIDTH 6 0
BBX 4 5 3 4
BITMAP
60
90
60
A0
E0
ENDCHAR
STARTCHAR 2079
ENCODING 8313
SWIDTH 432 0
DWIDTH 6 0
BBX 3 5 3 4
BITMAP
60
A0
A0
60
C0
ENDCHAR
STARTCHAR 2080
ENCODING 8320
SWIDTH 432 0
DWIDTH 6 0
BBX 4 5 2 0
BITMAP
70
90
F0
90
E0
ENDCHAR
STARTCHAR 2081
ENCODING 8321
SWIDTH 432 0
DWIDTH 6 0
BBX 3 5 2 0
BITMAP
20
60
40
40
E0
ENDCHAR
STARTCHAR 2082
ENCODING 8322
SWIDTH 432 0
DWIDTH 6 0
BBX 4 5 2 0
BITMAP
70
10
20
40
E0
ENDCHAR
STARTCHAR 2083
ENCODING 8323
SWIDTH 432 0
DWIDTH 6 0
BBX 4 5 2 0
BITMAP
70
10
60
20
E0
ENDCHAR
STARTCHAR 2084
ENCODING 8324
SWIDTH 432 0
DWIDTH 6 0
BBX 4 5 2 0
BITMAP
30
60
A0
E0
20
ENDCHAR
STARTCHAR 2085
ENCODING 8325
SWIDTH 432 0
DWIDTH 6 0
BBX 4 5 2 0
BITMAP
70
40
E0
20
E0
ENDCHAR
STARTCHAR 2086
ENCODING 8326
SWIDTH 432 0
DWIDTH 6 0
BBX 4 5 2 0
BITMAP
30
C0
E0
A0
E0
ENDCHAR
STARTCHAR 2087
ENCODING 8327
SWIDTH 432 0
DWIDTH 6 0
BBX 4 5 2 0
BITMAP
70
20
20
40
80
ENDCHAR
STARTCHAR 2088
ENCODING 8328
SWIDTH 432 0
DWIDTH 6 0
BBX 4 5 2 0
BITMAP
70
90
60
90
E0
ENDCHAR
STARTCHAR 2089
ENCODING 8329
SWIDTH 432 0
DWIDTH 6 0
BBX 4 5 2 0
BITMAP
70
90
70
20
C0
ENDCHAR
STARTCHAR 20AC
ENCODING 8364
SWIDTH 432 0
DWIDTH 6 0
BBX 7 9 1 0
BITMAP
0E
10
20
FC
40
F8
40
40
38
ENDCHAR
STARTCHAR 20AE
ENCODING 8366
SWIDTH 432 0
DWIDTH 6 0
BBX 7 9 1 0
BITMAP
7E
18
10
1C
70
38
70
A0
20
ENDCHAR
STARTCHAR 20B4
ENCODING 8372
SWIDTH 432 0
DWIDTH 6 0
BBX 6 9 1 0
BITMAP
38
04
04
FC
10
FC
C0
80
78
ENDCHAR
STARTCHAR 20B9
ENCODING 8377
SWIDTH 432 0
DWIDTH 6 0
BBX 7 9 1 0
BITMAP
3E
08
0C
78
18
E0
40
20
30
ENDCHAR
STARTCHAR 2113
ENCODING 8467
SWIDTH 432 0
DWIDTH 6 0
BBX 4 10 2 0
BITMAP
20
50
50
D0
D0
E0
C0
C0
40
70
ENDCHAR
STARTCHAR 2116
ENCODING 8470
SWIDTH 432 0
DWIDTH 6 0
BBX 8 9 0 0
BITMAP
29
2B
2D
6D
6A
70
76
B0
90
ENDCHAR
STARTCHAR 2122
ENCODING 8482
SWIDTH 432 0
DWIDTH 6 0
BBX 6 4 2 5
BITMAP
D4
94
AC
A4
ENDCHAR
STARTCHAR 2126
ENCODING 8486
SWIDTH 432 0
DWIDTH 6 0
BBX 8 9 0 0
BITMAP
0C
12
23
62
42
42
44
44
EC
ENDCHAR
STARTCHAR 212E
ENCODING 8494
SWIDTH 432 0
DWIDTH 6 0
BBX 6 5 1 0
BITMAP
F8
84
F8
80
F0
ENDCHAR
STARTCHAR 2153
ENCODING 8531
SWIDTH 432 0
DWIDTH 6 0
BBX 7 9 1 0
BITMAP
22
64
28
08
10
28
44
8C
98
ENDCHAR
STARTCHAR 2154
ENCODING 8532
SWIDTH 432 0
DWIDTH 6 0
BBX 7 9 1 0
BITMAP
62
24
48
E8
10
28
44
CC
98
ENDCHAR
STARTCHAR 2155
ENCODING 8533
SWIDTH 432 0
DWIDTH 6 0
BBX 7 9 1 0
BITMAP
22
64
2C
08
10
20
4C
44
98
ENDCHAR
STARTCHAR 2156
ENCODING 8534
SWIDTH 432 0
DWIDTH 6 0
BBX 7 9 1 0
BITMAP
62
24
4C
E8
10
20
4C
44
98
ENDCHAR
STARTCHAR 2157
ENCODING 8535
SWIDTH 432 0
DWIDTH 6 0
BBX 7 9 1 0
BITMAP
62
24
2C
E8
10
20
4C
44
98
ENDCHAR
STARTCHAR 2158
ENCODING 8536
SWIDTH 432 0
DWIDTH 6 0
BBX 7 9 1 0
BITMAP
22
64
E4
28
10
20
6C
44
98
ENDCHAR
STARTCHAR 2159
ENCODING 8537
SWIDTH 432 0
DWIDTH 6 0
BBX 7 9 1 0
BITMAP
22
64
2C
08
10
24
58
5C
98
ENDCHAR
STARTCHAR 215A
ENCODING 8538
SWIDTH 432 0
DWIDTH 6 0
BBX 7 9 1 0
BITMAP
62
44
24
E8
10
24
78
5C
98
ENDCHAR
STARTCHAR 215B
ENCODING 8539
SWIDTH 432 0
DWIDTH 6 0
BBX 7 9 1 0
BITMAP
22
64
28
08
10
2C
54
9C
9C
ENDCHAR
STARTCHAR 215C
ENCODING 8540
SWIDTH 432 0
DWIDTH 6 0
BBX 7 9 1 0
BITMAP
62
24
28
E8
10
2C
54
9C
9C
ENDCHAR
STARTCHAR 215D
ENCODING 8541
SWIDTH 432 0
DWIDTH 6 0
BBX 7 9 1 0
BITMAP
62
44
28
E8
10
2C
54
9C
9C
ENDCHAR
STARTCHAR 215E
ENCODING 8542
SWIDTH 432 0
DWIDTH 6 0
BBX 7 9 1 0
BITMAP
32
24
28
48
10
2C
54
9C
9C
ENDCHAR
STARTCHAR 2202
ENCODING 8706
SWIDTH 432 0
DWIDTH 6 0
BBX 6 10 1 0
BITMAP
30
0C
04
04
3C
44
84
8C
88
70
ENDCHAR
STARTCHAR 2206
ENCODING 8710
SWIDTH 432 0
DWIDTH 6 0
BBX 6 9 0 0
BITMAP
0C
0C
14
14
24
24
44
44
FC
ENDCHAR
STARTCHAR 220F
ENCODING 8719
SWIDTH 432 0
DWIDTH 6 0
BBX 8 10 0 -1
BITMAP
1F
21
22
22
22
62
44
44
44
C4
ENDCHAR
STARTCHAR 2211
ENCODING 8721
SWIDTH 432 0
DWIDTH 6 0
BBX 7 10 1 -1
BITMAP
3E
20
20
10
10
10
20
60
C0
F8
ENDCHAR
STARTCHAR 2212
ENCODING 8722
SWIDTH 432 0
DWIDTH 6 0
BBX 6 1 1 3
BITMAP
FC
ENDCHAR
STARTCHAR 2215
ENCODING 8725
SWIDTH 432 0
DWIDTH 6 0
BBX 7 9 1 0
BITMAP
02
04
08
08
10
20
40
C0
80
ENDCHAR
STARTCHAR 2219
ENCODING 8729
SWIDTH 432 0
DWIDTH 6 0
BBX 2 2 3 3
BITMAP
C0
C0
ENDCHAR
STARTCHAR 221A
ENCODING 8730
SWIDTH 432 0
DWIDTH 6 0
BBX 7 10 2 0
BITMAP
02
04
04
08
08
90
90
A0
A0
40
ENDCHAR
STARTCHAR 221E
ENCODING 8734
SWIDTH 432 0
DWIDTH 6 0
BBX 6 3 1 2
BITMAP
FC
A4
FC
ENDCHAR
STARTCHAR 222B
ENCODING 8747
SWIDTH 432 0
DWIDTH 6 0
BBX 8 12 0 -2
BITMAP
03
04
08
08
08
08
10
10
10
10
20
E0
ENDCHAR
STARTCHAR 2248
ENCODING 8776
SWIDTH 432 0
DWIDTH 6 0
BBX 6 5 1 1
BITMAP
74
9C
00
EC
98
ENDCHAR
STARTCHAR 2260
ENCODING 8800
SWIDTH 432 0
DWIDTH 6 0
BBX 6 7 1 0
BITMAP
0C
08
7C
30
FC
40
40
ENDCHAR
STARTCHAR 2264
ENCODING 8804
SWIDTH 432 0
DWIDTH 6 0
BBX 7 7 1 0
BITMAP
06
38
40
70
1C
00
F8
ENDCHAR
STARTCHAR 2265
ENCODING 8805
SWIDTH 432 0
DWIDTH 6 0
BBX 6 7 1 0
BITMAP
60
18
04
18
E0
00
F8
ENDCHAR
STARTCHAR 2500
ENCODING 9472
SWIDTH 432 0
DWIDTH 6 0
BBX 7 1 0 4
BITMAP
FE
ENDCHAR
STARTCHAR 2502
ENCODING 9474
SWIDTH 432 0
DWIDTH 6 0
BBX 1 14 3 -2
BITMAP
80
80
80
80
80
80
80
80
80
80
80
80
80
80
ENDCHAR
STARTCHAR 250C
ENCODING 9484
SWIDTH 432 0
DWIDTH 6 0
BBX 4 7 3 -2
BITMAP
F0
80
80
80
80
80
80
ENDCHAR
STARTCHAR 2510
ENCODING 9488
SWIDTH 432 0
DWIDTH 6 0
BBX 4 7 0 -2
BITMAP
F0
10
10
10
10
10
10
ENDCHAR
STARTCHAR 2514
ENCODING 9492
SWIDTH 432 0
DWIDTH 6 0
BBX 4 8 3 4
BITMAP
80
80
80
80
80
80
80
F0
ENDCHAR
STARTCHAR 2518
ENCODING 9496
SWIDTH 432 0
DWIDTH 6 0
BBX 4 8 0 4
BITMAP
10
10
10
10
10
10
10
F0
ENDCHAR
STARTCHAR 251C
ENCODING 9500
SWIDTH 432 0
DWIDTH 6 0
BBX 4 14 3 -2
BITMAP
80
80
80
80
80
80
80
F0
80
80
80
80
80
80
ENDCHAR
STARTCHAR 2524
ENCODING 9508
SWIDTH 432 0
DWIDTH 6 0
BBX 4 14 0 -2
BITMAP
10
10
10
10
10
10
10
F0
10
10
10
10
10
10
ENDCHAR
STARTCHAR 252C
ENCODING 9516
SWIDTH 432 0
DWIDTH 6 0
BBX 7 7 0 -2
BITMAP
FE
10
10
10
10
10
10
ENDCHAR
STARTCHAR 2534
ENCODING 9524
SWIDTH 432 0
DWIDTH 6 0
BBX 7 8 0 4
BITMAP
10
10
10
10
10
10
10
FE
ENDCHAR
STARTCHAR 253C
ENCODING 9532
SWIDTH 432 0
DWIDTH 6 0
BBX 7 14 0 -2
BITMAP
10
10
10
10
10
10
10
FE
10
10
10
10
10
10
ENDCHAR
STARTCHAR 2550
ENCODING 9552
SWIDTH 432 0
DWIDTH 6 0
BBX 7 3 0 3
BITMAP
FE
00
FE
ENDCHAR
STARTCHAR 2551
ENCODING 9553
SWIDTH 432 0
DWIDTH 6 0
BBX 3 14 2 -2
BITMAP
A0
A0
A0
A0
A0
A0
A0
A0
A0
A0
A0
A0
A0
A0
ENDCHAR
STARTCHAR 2552
ENCODING 9554
SWIDTH 432 0
DWIDTH 6 0
BBX 4 8 3 -2
BITMAP
F0
00
F0
80
80
80
80
80
ENDCHAR
STARTCHAR 2553
ENCODING 9555
SWIDTH 432 0
DWIDTH 6 0
BBX 5 7 2 -2
BITMAP
B8
A0
A0
A0
A0
A0
A0
ENDCHAR
STARTCHAR 2554
ENCODING 9556
SWIDTH 432 0
DWIDTH 6 0
BBX 5 8 2 -2
BITMAP
F8
80
B8
A0
A0
A0
A0
A0
ENDCHAR
STARTCHAR 2555
ENCODING 9557
SWIDTH 432 0
DWIDTH 6 0
BBX 4 8 0 -2
BITMAP
F0
00
F0
10
10
10
10
10
ENDCHAR
STARTCHAR 2556
ENCODING 9558
SWIDTH 432 0
DWIDTH 6 0
BBX 5 7 0 -2
BITMAP
E8
28
28
28
28
28
28
ENDCHAR
STARTCHAR 2557
ENCODING 9559
SWIDTH 432 0
DWIDTH 6 0
BBX 5 8 0 -2
BITMAP
F8
08
E8
28
28
28
28
28
ENDCHAR
STARTCHAR 2558
ENCODING 9560
SWIDTH 432 0
DWIDTH 6 0
BBX 4 9 3 3
BITMAP
80
80
80
80
80
80
F0
00
F0
ENDCHAR
STARTCHAR 2559
ENCODING 9561
SWIDTH 432 0
DWIDTH 6 0
BBX 5 8 2 4
BITMAP
A0
A0
A0
A0
A0
A0
A0
B8
ENDCHAR
STARTCHAR 255A
ENCODING 9562
SWIDTH 432 0
DWIDTH 6 0
BBX 5 9 2 3
BITMAP
A0
A0
A0
A0
A0
A0
B8
80
F8
ENDCHAR
STARTCHAR 255B
ENCODING 9563
SWIDTH 432 0
DWIDTH 6 0
BBX 4 9 0 3
BITMAP
10
10
10
10
10
10
F0
00
F0
ENDCHAR
STARTCHAR 255C
ENCODING 9564
SWIDTH 432 0
DWIDTH 6 0
BBX 5 8 0 4
BITMAP
28
28
28
28
28
28
28
E8
ENDCHAR
STARTCHAR 255D
ENCODING 9565
SWIDTH 432 0
DWIDTH 6 0
BBX 5 9 0 3
BITMAP
28
28
28
28
28
28
E8
08
F8
ENDCHAR
STARTCHAR 255E
ENCODING 9566
SWIDTH 432 0
DWIDTH 6 0
BBX 4 14 3 -2
BITMAP
80
80
80
80
80
80
F0
00
F0
80
80
80
80
80
ENDCHAR
STARTCHAR 255F
ENCODING 9567
SWIDTH 432 0
DWIDTH 6 0
BBX 5 14 2 -2
BITMAP
A0
A0
A0
A0
A0
A0
A0
B8
A0
A0
A0
A0
A0
A0
ENDCHAR
STARTCHAR 2560
ENCODING 9568
SWIDTH 432 0
DWIDTH 6 0
BBX 5 14 2 -2
BITMAP
A0
A0
A0
A0
A0
A0
B8
80
B8
A0
A0
A0
A0
A0
ENDCHAR
STARTCHAR 2561
ENCODING 9569
SWIDTH 432 0
DWIDTH 6 0
BBX 4 14 0 -2
BITMAP
10
10
10
10
10
10
F0
00
F0
10
10
10
10
10
ENDCHAR
STARTCHAR 2562
ENCODING 9570
SWIDTH 432 0
DWIDTH 6 0
BBX 5 14 0 -2
BITMAP
28
28
28
28
28
28
28
E8
28
28
28
28
28
28
ENDCHAR
STARTCHAR 2563
ENCODING 9571
SWIDTH 432 0
DWIDTH 6 0
BBX 5 14 0 -2
BITMAP
28
28
28
28
28
28
E8
08
E8
28
28
28
28
28
ENDCHAR
STARTCHAR 2564
ENCODING 9572
SWIDTH 432 0
DWIDTH 6 0
BBX 7 8 0 -2
BITMAP
FE
00
FE
10
10
10
10
10
ENDCHAR
STARTCHAR 2565
ENCODING 9573
SWIDTH 432 0
DWIDTH 6 0
BBX 7 7 0 -2
BITMAP
FE
28
28
28
28
28
28
ENDCHAR
STARTCHAR 2566
ENCODING 9574
SWIDTH 432 0
DWIDTH 6 0
BBX 7 8 0 -2
BITMAP
FE
00
EE
28
28
28
28
28
ENDCHAR
STARTCHAR 2567
ENCODING 9575
SWIDTH 432 0
DWIDTH 6 0
BBX 7 9 0 3
BITMAP
10
10
10
10
10
10
FE
00
FE
ENDCHAR
STARTCHAR 2568
ENCODING 9576
SWIDTH 432 0
DWIDTH 6 0
BBX 7 8 0 4
BITMAP
28
28
28
28
28
28
28
FE
ENDCHAR
STARTCHAR 2569
ENCODING 9577
SWIDTH 432 0
DWIDTH 6 0
BBX 7 9 0 3
BITMAP
28
28
28
28
28
28
EE
00
FE
ENDCHAR
STARTCHAR 256A
ENCODING 9578
SWIDTH 432 0
DWIDTH 6 0
BBX 7 14 0 -2
BITMAP
10
10
10
10
10
10
FE
10
FE
10
10
10
10
10
ENDCHAR
STARTCHAR 256B
ENCODING 9579
SWIDTH 432 0
DWIDTH 6 0
BBX 7 14 0 -2
BITMAP
28
28
28
28
28
28
28
FE
28
28
28
28
28
28
ENDCHAR
STARTCHAR 256C
ENCODING 9580
SWIDTH 432 0
DWIDTH 6 0
BBX 7 14 0 -2
BITMAP
28
28
28
28
28
28
EE
00
EE
28
28
28
28
28
ENDCHAR
STARTCHAR 2588
ENCODING 9608
SWIDTH 432 0
DWIDTH 6 0
BBX 7 14 0 -2
BITMAP
FE
FE
FE
FE
FE
FE
FE
FE
FE
FE
FE
FE
FE
FE
ENDCHAR
STARTCHAR 2591
ENCODING 9617
SWIDTH 432 0
DWIDTH 6 0
BBX 7 14 0 -2
BITMAP
AA
00
00
00
00
00
00
AA
54
AA
54
AA
54
AA
ENDCHAR
STARTCHAR 2592
ENCODING 9618
SWIDTH 432 0
DWIDTH 6 0
BBX 7 14 0 -2
BITMAP
FE
00
00
00
00
00
00
FE
02
FE
02
FE
02
FE
ENDCHAR
STARTCHAR 2593
ENCODING 9619
SWIDTH 432 0
DWIDTH 6 0
BBX 7 14 0 -2
BITMAP
FE
FE
FE
FE
FE
FE
FE
FE
FE
FE
FE
FE
FE
FE
ENDCHAR
STARTCHAR 25CA
ENCODING 9674
SWIDTH 432 0
DWIDTH 6 0
BBX 5 9 2 0
BITMAP
10
30
50
C8
88
98
B0
E0
40
ENDCHAR
STARTCHAR E0FF
ENCODING 57599
SWIDTH 432 0
DWIDTH 6 0
BBX 5 6 2 4
BITMAP
30
68
B8
B8
68
30
ENDCHAR
STARTCHAR EFFD
ENCODING 61437
SWIDTH 432 0
DWIDTH 6 0
BBX 8 9 0 0
BITMAP
33
55
B7
99
EF
00
00
30
30
ENDCHAR
STARTCHAR F000
ENCODING 61440
SWIDTH 432 0
DWIDTH 6 0
BBX 11 10 -2 0
BITMAP
F1E0
0A00
8A20
8A20
0A00
6AC0
8A20
8A20
8A20
6AC0
ENDCHAR
STARTCHAR F001
ENCODING 61441
SWIDTH 432 0
DWIDTH 6 0
BBX 9 12 -1 -2
BITMAP
0600
0880
0800
1800
3D00
1100
1100
1200
3200
2200
2000
E000
ENDCHAR
STARTCHAR F002
ENCODING 61442
SWIDTH 432 0
DWIDTH 6 0
BBX 9 12 -1 -2
BITMAP
0680
0880
0980
1900
3D00
1100
1300
1200
3200
2300
2000
E000
ENDCHAR
STARTCHAR F506
ENCODING 62726
SWIDTH 432 0
DWIDTH 6 0
BBX 7 9 1 0
BITMAP
22
64
28
18
10
20
4C
88
90
ENDCHAR
STARTCHAR F507
ENCODING 62727
SWIDTH 432 0
DWIDTH 6 0
BBX 7 9 1 0
BITMAP
62
24
48
E8
10
20
4C
C8
90
ENDCHAR
STARTCHAR F508
ENCODING 62728
SWIDTH 432 0
DWIDTH 6 0
BBX 7 9 1 0
BITMAP
62
24
28
E8
10
20
4C
C8
90
ENDCHAR
STARTCHAR F509
ENCODING 62729
SWIDTH 432 0
DWIDTH 6 0
BBX 7 9 1 0
BITMAP
22
64
EC
28
10
20
4C
48
90
ENDCHAR
STARTCHAR F50A
ENCODING 62730
SWIDTH 432 0
DWIDTH 6 0
BBX 7 9 1 0
BITMAP
62
44
2C
E8
10
20
4C
48
90
ENDCHAR
STARTCHAR F50B
ENCODING 62731
SWIDTH 432 0
DWIDTH 6 0
BBX 7 9 1 0
BITMAP
22
64
AC
68
10
20
4C
48
90
ENDCHAR
STARTCHAR F50C
ENCODING 62732
SWIDTH 432 0
DWIDTH 6 0
BBX 7 9 1 0
BITMAP
22
64
2C
08
10
28
54
5C
98
ENDCHAR
STARTCHAR F50D
ENCODING 62733
SWIDTH 432 0
DWIDTH 6 0
BBX 7 9 1 0
BITMAP
62
24
4C
E8
10
28
54
5C
98
ENDCHAR
STARTCHAR F50E
ENCODING 62734
SWIDTH 432 0
DWIDTH 6 0
BBX 7 9 1 0
BITMAP
22
64
EC
28
10
28
54
5C
98
ENDCHAR
STARTCHAR F50F
ENCODING 62735
SWIDTH 432 0
DWIDTH 6 0
BBX 7 9 1 0
BITMAP
62
44
2C
E8
10
28
54
5C
98
ENDCHAR
STARTCHAR F510
ENCODING 62736
SWIDTH 432 0
DWIDTH 6 0
BBX 7 9 1 0
BITMAP
32
24
2C
48
10
28
54
5C
98
ENDCHAR
STARTCHAR F511
ENCODING 62737
SWIDTH 432 0
DWIDTH 6 0
BBX 7 9 1 0
BITMAP
62
64
AC
E8
10
28
54
5C
98
ENDCHAR
STARTCHAR F80A
ENCODING 63498
SWIDTH 432 0
DWIDTH 6 0
BBX 4 5 3 5
BITMAP
70
90
B0
90
60
ENDCHAR
STARTCHAR F80B
ENCODING 63499
SWIDTH 432 0
DWIDTH 6 0
BBX 3 5 3 5
BITMAP
20
60
20
40
E0
ENDCHAR
STARTCHAR F80C
ENCODING 63500
SWIDTH 432 0
DWIDTH 6 0
BBX 4 5 3 5
BITMAP
70
10
60
80
E0
ENDCHAR
STARTCHAR F80D
ENCODING 63501
SWIDTH 432 0
DWIDTH 6 0
BBX 4 5 3 5
BITMAP
70
10
30
10
E0
ENDCHAR
STARTCHAR F80E
ENCODING 63502
SWIDTH 432 0
DWIDTH 6 0
BBX 4 5 3 5
BITMAP
30
60
A0
60
20
ENDCHAR
STARTCHAR F80F
ENCODING 63503
SWIDTH 432 0
DWIDTH 6 0
BBX 4 5 3 5
BITMAP
70
40
30
10
E0
ENDCHAR
STARTCHAR F810
ENCODING 63504
SWIDTH 432 0
DWIDTH 6 0
BBX 4 5 3 5
BITMAP
30
40
B0
90
60
ENDCHAR
STARTCHAR F811
ENCODING 63505
SWIDTH 432 0
DWIDTH 6 0
BBX 4 5 3 5
BITMAP
70
20
40
40
80
ENDCHAR
STARTCHAR F812
ENCODING 63506
SWIDTH 432 0
DWIDTH 6 0
BBX 4 5 3 5
BITMAP
70
50
70
90
60
ENDCHAR
STARTCHAR F813
ENCODING 63507
SWIDTH 432 0
DWIDTH 6 0
BBX 4 5 3 5
BITMAP
70
90
70
20
C0
ENDCHAR
STARTCHAR F814
ENCODING 63508
SWIDTH 432 0
DWIDTH 6 0
BBX 4 5 1 -2
BITMAP
30
50
B0
90
60
ENDCHAR
STARTCHAR F815
ENCODING 63509
SWIDTH 432 0
DWIDTH 6 0
BBX 3 5 2 -2
BITMAP
20
E0
40
40
E0
ENDCHAR
STARTCHAR F816
ENCODING 63510
SWIDTH 432 0
DWIDTH 6 0
BBX 3 5 2 -2
BITMAP
60
20
20
C0
E0
ENDCHAR
STARTCHAR F817
ENCODING 63511
SWIDTH 432 0
DWIDTH 6 0
BBX 4 5 1 -2
BITMAP
30
10
20
10
F0
ENDCHAR
STARTCHAR F818
ENCODING 63512
SWIDTH 432 0
DWIDTH 6 0
BBX 4 5 1 -2
BITMAP
10
30
50
F0
20
ENDCHAR
STARTCHAR F819
ENCODING 63513
SWIDTH 432 0
DWIDTH 6 0
BBX 4 5 1 -2
BITMAP
30
40
60
10
F0
ENDCHAR
STARTCHAR F81A
ENCODING 63514
SWIDTH 432 0
DWIDTH 6 0
BBX 4 5 1 -2
BITMAP
10
60
70
90
70
ENDCHAR
STARTCHAR F81B
ENCODING 63515
SWIDTH 432 0
DWIDTH 6 0
BBX 4 5 2 -2
BITMAP
F0
20
40
40
80
ENDCHAR
STARTCHAR F81C
ENCODING 63516
SWIDTH 432 0
DWIDTH 6 0
BBX 3 5 2 -2
BITMAP
60
A0
E0
A0
E0
ENDCHAR
STARTCHAR F81D
ENCODING 63517
SWIDTH 432 0
DWIDTH 6 0
BBX 3 5 2 -2
BITMAP
60
A0
A0
60
C0
ENDCHAR
STARTCHAR FB01
ENCODING 64257
SWIDTH 432 0
DWIDTH 6 0
BBX 9 12 -1 -2
BITMAP
0600
0880
0800
1800
3D00
1100
1100
1200
3200
2200
2000
E000
ENDCHAR
STARTCHAR FB02
ENCODING 64258
SWIDTH 432 0
DWIDTH 6 0
BBX 9 12 -1 -2
BITMAP
0680
0880
0980
1900
3D00
1100
1300
1200
3200
2300
2000
E000
ENDCHAR
STARTCHAR FFFD
ENCODING 65533
SWIDTH 432 0
DWIDTH 6 0
BBX 6 6 1 1
BITMAP
30
48
EC
DC
78
30
ENDCHAR
ENDFONT
